# Blender 4.5.3 LTS
# www.blender.org
mtllib polymergedistance.mtl
o Text
v -3.769956 0.484570 0.000002
v -3.769956 0.437865 0.000002
v -3.659031 0.437865 0.000002
v -3.658990 0.485503 0.000002
v -3.279590 0.485503 0.000002
v -3.281534 0.111105 0.000002
v -3.658381 0.112686 0.000002
v -3.659031 0.229358 0.000002
v -3.523084 0.229358 0.000002
v -3.523084 0.339450 0.000002
v -3.769956 0.339450 0.000002
v -3.769956 0.115930 0.000002
v -3.767819 0.092655 0.000002
v -3.761408 0.071205 0.000002
v -3.746210 0.045443 0.000002
v -3.729964 0.028383 0.000002
v -3.711390 0.015013 0.000002
v -3.691044 0.005864 0.000002
v -3.668926 0.000938 0.000002
v -3.277425 0.000235 0.000002
v -3.254759 0.003753 0.000002
v -3.233917 0.011494 0.000002
v -3.214899 0.023457 0.000002
v -3.197839 0.039509 0.000002
v -3.184468 0.057919 0.000002
v -3.173209 0.085303 0.000002
v -3.169690 0.107969 0.000002
v -3.169456 0.484570 0.000002
v -3.171568 0.507845 0.000002
v -3.177901 0.529295 0.000002
v -3.192913 0.555057 0.000002
v -3.208966 0.572117 0.000002
v -3.233917 0.589006 0.000002
v -3.254759 0.596747 0.000002
v -3.285386 0.600500 0.000002
v -3.661156 0.600266 0.000002
v -3.683866 0.596747 0.000002
v -3.717776 0.581500 0.000002
v -3.741223 0.560991 0.000002
v -3.758321 0.536040 0.000002
v -3.767819 0.507845 0.000002
v -2.965119 0.160133 0.000002
v -2.965119 0.600500 0.000002
v -3.076045 0.600500 0.000002
v -3.076045 0.000000 0.000002
v -2.955945 0.000000 0.000002
v -2.585636 0.440367 0.000002
v -2.585636 0.000000 0.000002
v -2.475545 0.000000 0.000002
v -2.475545 0.600500 0.000002
v -2.595645 0.600500 0.000002
v -1.895895 0.600500 0.000002
v -2.271665 0.600266 0.000002
v -2.301551 0.594636 0.000002
v -2.328285 0.581500 0.000002
v -2.346270 0.566722 0.000002
v -2.361231 0.548921 0.000002
v -2.371917 0.529295 0.000002
v -2.378328 0.507845 0.000002
v -2.380466 0.484570 0.000002
v -2.380466 0.000000 0.000002
v -2.269540 0.000000 0.000002
v -2.269540 0.201835 0.000002
v -1.890057 0.201835 0.000002
v -1.890057 0.000000 0.000002
v -1.779965 0.000000 0.000002
v -1.779965 0.484570 0.000002
v -1.783719 0.515198 0.000002
v -1.791459 0.536040 0.000002
v -1.808348 0.560991 0.000002
v -1.831545 0.581500 0.000002
v -1.851170 0.592056 0.000002
v -1.872620 0.598389 0.000002
v -1.890057 0.311927 0.000002
v -2.269540 0.311927 0.000002
v -2.269377 0.486354 0.000002
v -1.890098 0.485503 0.000002
v -1.686554 0.484570 0.000002
v -1.686554 0.437865 0.000002
v -1.575628 0.437865 0.000002
v -1.575628 0.484570 0.000002
v -1.196187 0.485503 0.000002
v -1.201983 0.110092 0.000002
v -1.575586 0.114997 0.000002
v -1.575628 0.229358 0.000002
v -1.439681 0.229358 0.000002
v -1.439681 0.339450 0.000002
v -1.686554 0.339450 0.000002
v -1.686554 0.115930 0.000002
v -1.684417 0.092655 0.000002
v -1.671356 0.057919 0.000002
v -1.657820 0.039509 0.000002
v -1.627988 0.015013 0.000002
v -1.607641 0.005864 0.000002
v -1.585523 0.000938 0.000002
v -1.201983 0.000000 0.000002
v -1.178709 0.002111 0.000002
v -1.157258 0.008445 0.000002
v -1.125563 0.028383 0.000002
v -1.109510 0.045443 0.000002
v -1.091917 0.078153 0.000002
v -1.086992 0.100211 0.000002
v -1.086054 0.484570 0.000002
v -1.091918 0.522348 0.000002
v -1.101066 0.542582 0.000002
v -1.114437 0.560991 0.000002
v -1.131497 0.577043 0.000002
v -1.157258 0.592056 0.000002
v -1.178709 0.598389 0.000002
v -1.201983 0.600500 0.000002
v -1.577754 0.600266 0.000002
v -1.600463 0.596747 0.000002
v -1.621400 0.589006 0.000002
v -1.640565 0.577043 0.000002
v -1.657820 0.560991 0.000002
v -1.674918 0.536040 0.000002
v -1.682754 0.515198 0.000002
v -0.881716 0.160133 0.000001
v -0.881716 0.600500 0.000001
v -0.992642 0.600500 0.000002
v -0.992642 0.000000 0.000002
v -0.872542 0.000000 0.000001
v -0.502234 0.440367 0.000001
v -0.502234 0.000000 0.000001
v -0.392142 0.000000 0.000001
v -0.392142 0.600500 0.000001
v -0.512242 0.600500 0.000001
v 0.184172 0.600500 0.000001
v -0.199944 0.599562 0.000001
v -0.235391 0.589006 0.000001
v -0.254434 0.577043 0.000001
v -0.271665 0.560991 0.000001
v -0.285201 0.542582 0.000001
v -0.298261 0.507845 0.000001
v -0.300399 0.484570 0.000001
v -0.300399 0.115930 0.000001
v -0.298261 0.092655 0.000001
v -0.291850 0.071205 0.000001
v -0.281164 0.051579 0.000001
v -0.260412 0.028383 0.000001
v -0.241924 0.015013 0.000001
v -0.221768 0.005864 0.000001
v -0.199945 0.000938 0.000001
v 0.184172 0.000000 0.000001
v 0.207446 0.002111 0.000001
v 0.235641 0.011494 0.000001
v 0.254658 0.023457 0.000001
v 0.281101 0.051579 0.000001
v 0.294237 0.078153 0.000001
v 0.299867 0.107969 0.000001
v 0.300102 0.484570 0.000001
v 0.296349 0.515198 0.000001
v 0.281101 0.548921 0.000001
v 0.266324 0.566722 0.000001
v 0.235641 0.589006 0.000001
v 0.207447 0.598389 0.000001
v 0.184172 0.110092 0.000001
v -0.189438 0.114997 0.000001
v -0.189473 0.484570 0.000001
v 0.184172 0.490409 0.000001
v 0.390177 0.437865 0.000001
v 0.501103 0.437865 0.000001
v 0.501467 0.487125 0.000001
v 0.877301 0.490044 0.000001
v 0.880585 0.115930 0.000001
v 0.502562 0.111551 0.000001
v 0.501103 0.229358 0.000001
v 0.637049 0.229358 0.000001
v 0.637049 0.339450 0.000001
v 0.390177 0.339450 0.000001
v 0.390414 0.107969 0.000001
v 0.398726 0.071205 0.000001
v 0.413923 0.045443 0.000001
v 0.436164 0.023457 0.000001
v 0.455329 0.011494 0.000001
v 0.476267 0.003753 0.000001
v 0.498977 0.000235 0.000001
v 0.874747 0.000000 0.000001
v 0.898022 0.002111 0.000001
v 0.926217 0.011494 0.000001
v 0.945235 0.023457 0.000001
v 0.971677 0.051579 0.000001
v 0.982233 0.071205 0.000001
v 0.989739 0.100211 0.000001
v 0.990677 0.484570 0.000001
v 0.986924 0.515198 0.000001
v 0.975665 0.542582 0.000001
v 0.962294 0.560991 0.000001
v 0.945234 0.577043 0.000001
v 0.926217 0.589006 0.000001
v 0.905375 0.596747 0.000001
v 0.882708 0.600266 0.000001
v 0.498977 0.600266 0.000001
v 0.476267 0.596747 0.000001
v 0.448744 0.585488 0.000001
v 0.424372 0.566722 0.000001
v 0.409412 0.548921 0.000001
v 0.393976 0.515198 0.000001
v 0.390414 0.492531 0.000001
v 1.161653 0.600500 0.000001
v 1.029877 0.600500 0.000001
v 1.307608 0.224354 0.000001
v 1.307608 0.000000 0.000001
v 1.417700 0.000000 0.000001
v 1.417700 0.224354 0.000001
v 1.695431 0.600500 0.000001
v 1.564489 0.600500 0.000001
v 1.362654 0.345288 0.000001
v 2.311778 0.000000 0.000000
v 2.311778 0.601334 -0.000000
v 2.201686 0.601334 -0.000000
v 2.201686 0.110092 -0.000000
v 1.711278 0.110092 0.000001
v 1.711278 0.000000 0.000001
v 2.504809 0.599562 -0.000000
v 2.482986 0.594636 -0.000000
v 2.462830 0.585488 -0.000000
v 2.444342 0.572117 -0.000000
v 2.428102 0.555057 -0.000000
v 2.412904 0.529295 -0.000000
v 2.406493 0.507845 -0.000000
v 2.404355 0.484570 -0.000000
v 2.404593 0.107969 -0.000000
v 2.408155 0.085303 -0.000000
v 2.423590 0.051579 -0.000000
v 2.438550 0.033778 -0.000000
v 2.456482 0.019000 -0.000000
v 2.482986 0.005864 -0.000000
v 2.504809 0.000938 -0.000000
v 2.904645 0.000938 -0.000000
v 2.926703 0.005864 -0.000000
v 2.953276 0.019000 -0.000000
v 2.981399 0.045443 -0.000000
v 2.993362 0.064461 -0.000000
v 3.001103 0.085303 -0.000000
v 3.004621 0.107969 -0.000000
v 3.004856 0.484570 -0.000000
v 3.002745 0.507845 -0.000000
v 2.996411 0.529295 -0.000000
v 2.976473 0.560991 -0.000000
v 2.959413 0.577043 -0.000000
v 2.940395 0.589006 -0.000000
v 2.919553 0.596747 -0.000000
v 2.896887 0.600266 -0.000000
v 2.888926 0.110092 -0.000000
v 2.520285 0.110092 -0.000000
v 2.518096 0.490044 -0.000000
v 2.891480 0.490044 -0.000000
v 3.662904 0.599666 -0.000000
v 3.171204 0.599429 -0.000000
v 3.141318 0.593730 -0.000000
v 3.120971 0.584469 -0.000000
v 3.102396 0.570933 -0.000000
v 3.081639 0.547540 -0.000000
v 3.068341 0.521036 -0.000000
v 3.063354 0.499212 -0.000000
v 3.062404 0.321935 -0.000000
v 3.064541 0.298999 -0.000000
v 3.070952 0.277731 -0.000000
v 3.081638 0.258132 -0.000000
v 3.096599 0.240200 -0.000000
v 3.114583 0.225240 -0.000000
v 3.134339 0.214554 -0.000000
v 3.155867 0.208142 -0.000000
v 3.179168 0.206005 -0.000000
v 3.552812 0.206005 -0.000000
v 3.552812 0.000000 0.000000
v 3.662904 0.000000 0.000000
v 3.179168 0.489575 -0.000000
v 3.551353 0.488115 -0.000000
v 3.551799 0.318083 -0.000000
v 3.173370 0.321002 -0.000000
v -3.769956 0.484570 -0.230902
v -3.769956 0.437865 -0.230902
v -3.659031 0.437865 -0.230902
v -3.658990 0.485503 -0.230902
v -3.279590 0.485503 -0.230902
v -3.282831 0.110457 -0.230902
v -3.657043 0.111105 -0.230902
v -3.659031 0.229358 -0.230902
v -3.523084 0.229358 -0.230902
v -3.523084 0.339450 -0.230902
v -3.769956 0.339450 -0.230902
v -3.769006 0.100211 -0.230902
v -3.764020 0.078153 -0.230902
v -3.754759 0.057919 -0.230902
v -3.735761 0.033778 -0.230902
v -3.717778 0.019000 -0.230902
v -3.683868 0.003753 -0.230902
v -3.661159 0.000235 -0.230902
v -3.285386 -0.000000 -0.230902
v -3.262111 0.002111 -0.230902
v -3.240661 0.008445 -0.230902
v -3.221036 0.019000 -0.230902
v -3.203234 0.033778 -0.230902
v -3.188456 0.051579 -0.230902
v -3.177900 0.071205 -0.230902
v -3.171567 0.092655 -0.230902
v -3.169456 0.115930 -0.230902
v -3.169456 0.484570 -0.230902
v -3.171568 0.507845 -0.230902
v -3.177901 0.529295 -0.230902
v -3.188456 0.548921 -0.230902
v -3.203234 0.566722 -0.230902
v -3.221036 0.581500 -0.230902
v -3.240661 0.592056 -0.230902
v -3.262111 0.598389 -0.230902
v -3.285386 0.600500 -0.230902
v -3.668923 0.599562 -0.230902
v -3.704803 0.589006 -0.230902
v -3.735761 0.566722 -0.230902
v -3.754759 0.542582 -0.230902
v -3.764020 0.522348 -0.230902
v -2.965119 0.160133 -0.230902
v -2.965119 0.600500 -0.230902
v -3.076045 0.600500 -0.230902
v -3.076045 -0.000000 -0.230902
v -2.955945 -0.000000 -0.230902
v -2.585636 0.440367 -0.230902
v -2.585636 -0.000000 -0.230902
v -2.475545 -0.000000 -0.230902
v -2.475545 0.600500 -0.230902
v -2.595645 0.600500 -0.230902
v -1.895895 0.600500 -0.230903
v -2.271665 0.600266 -0.230903
v -2.294375 0.596747 -0.230903
v -2.315312 0.589006 -0.230903
v -2.334476 0.577043 -0.230903
v -2.351732 0.560991 -0.230903
v -2.371917 0.529295 -0.230903
v -2.378328 0.507845 -0.230902
v -2.380466 0.484570 -0.230902
v -2.380466 -0.000000 -0.230902
v -2.269540 -0.000000 -0.230903
v -2.269540 0.201835 -0.230903
v -1.890057 0.201835 -0.230903
v -1.890057 -0.000000 -0.230903
v -1.779965 -0.000000 -0.230903
v -1.779965 0.484570 -0.230903
v -1.782077 0.507845 -0.230903
v -1.788410 0.529295 -0.230903
v -1.803423 0.555057 -0.230903
v -1.819474 0.572117 -0.230903
v -1.837884 0.585488 -0.230903
v -1.858117 0.594636 -0.230903
v -1.890057 0.311927 -0.230903
v -2.269540 0.311927 -0.230903
v -2.269377 0.486354 -0.230903
v -1.890219 0.486354 -0.230903
v -1.686554 0.484570 -0.230903
v -1.686554 0.437865 -0.230903
v -1.575628 0.437865 -0.230903
v -1.575588 0.485503 -0.230903
v -1.196309 0.486354 -0.230903
v -1.201983 0.110092 -0.230903
v -1.575586 0.114997 -0.230903
v -1.575628 0.229358 -0.230903
v -1.439681 0.229358 -0.230903
v -1.439681 0.339450 -0.230903
v -1.686554 0.339450 -0.230903
v -1.686554 0.115930 -0.230903
v -1.684417 0.092655 -0.230903
v -1.678005 0.071205 -0.230903
v -1.662807 0.045443 -0.230903
v -1.640567 0.023457 -0.230903
v -1.621403 0.011494 -0.230903
v -1.585523 0.000938 -0.230903
v -1.186264 0.000938 -0.230903
v -1.164206 0.005864 -0.230903
v -1.143972 0.015013 -0.230903
v -1.125563 0.028383 -0.230903
v -1.109510 0.045443 -0.230903
v -1.097547 0.064461 -0.230903
v -1.089806 0.085303 -0.230903
v -1.086054 0.115930 -0.230903
v -1.086054 0.484570 -0.230903
v -1.088165 0.507845 -0.230903
v -1.097547 0.536040 -0.230903
v -1.109511 0.555057 -0.230903
v -1.125563 0.572117 -0.230903
v -1.143972 0.585488 -0.230903
v -1.164206 0.594636 -0.230903
v -1.201983 0.600500 -0.230903
v -1.569790 0.600500 -0.230903
v -1.600463 0.596747 -0.230903
v -1.621400 0.589006 -0.230903
v -1.640565 0.577043 -0.230903
v -1.662807 0.555057 -0.230903
v -1.678005 0.529295 -0.230903
v -1.684417 0.507845 -0.230903
v -0.881716 0.160133 -0.230903
v -0.881716 0.600500 -0.230903
v -0.992642 0.600500 -0.230903
v -0.992642 -0.000000 -0.230903
v -0.872542 -0.000000 -0.230903
v -0.502234 0.440367 -0.230903
v -0.502234 -0.000000 -0.230903
v -0.392142 -0.000000 -0.230903
v -0.392142 0.600500 -0.230903
v -0.512242 0.600500 -0.230903
v 0.184172 0.600500 -0.230903
v -0.184469 0.600500 -0.230903
v -0.207404 0.598389 -0.230903
v -0.235391 0.589006 -0.230903
v -0.254434 0.577043 -0.230903
v -0.271665 0.560991 -0.230903
v -0.291850 0.529295 -0.230903
v -0.298261 0.507845 -0.230903
v -0.300399 0.484570 -0.230903
v -0.300399 0.115930 -0.230903
v -0.298261 0.092655 -0.230903
v -0.291850 0.071205 -0.230903
v -0.281164 0.051579 -0.230903
v -0.266204 0.033778 -0.230903
v -0.248272 0.019000 -0.230903
v -0.228672 0.008445 -0.230903
v -0.192300 0.000235 -0.230903
v 0.184172 -0.000000 -0.230903
v 0.207446 0.002111 -0.230903
v 0.235641 0.011494 -0.230903
v 0.254658 0.023457 -0.230903
v 0.271719 0.039509 -0.230903
v 0.288608 0.064461 -0.230903
v 0.299163 0.100211 -0.230903
v 0.300102 0.484570 -0.230903
v 0.296349 0.515198 -0.230903
v 0.285089 0.542582 -0.230903
v 0.271719 0.560991 -0.230903
v 0.242183 0.585488 -0.230903
v 0.214799 0.596747 -0.230903
v -0.189473 0.115930 -0.230903
v -0.189334 0.486354 -0.230903
v 0.185104 0.490368 -0.230903
v 0.185104 0.110132 -0.230903
v 0.390177 0.484570 -0.230903
v 0.390177 0.437865 -0.230903
v 0.501103 0.437865 -0.230903
v 0.501103 0.484570 -0.230903
v 0.878599 0.489395 -0.230904
v 0.876531 0.110254 -0.230904
v 0.506008 0.110132 -0.230903
v 0.501103 0.229358 -0.230903
v 0.637049 0.229358 -0.230903
v 0.637049 0.339450 -0.230903
v 0.390177 0.339450 -0.230903
v 0.390177 0.115930 -0.230903
v 0.392314 0.092655 -0.230903
v 0.398726 0.071205 -0.230903
v 0.413923 0.045443 -0.230903
v 0.436164 0.023457 -0.230903
v 0.455329 0.011494 -0.230903
v 0.476267 0.003753 -0.230903
v 0.498977 0.000235 -0.230903
v 0.874747 -0.000000 -0.230904
v 0.898022 0.002111 -0.230904
v 0.919472 0.008445 -0.230904
v 0.945235 0.023457 -0.230904
v 0.962294 0.039509 -0.230904
v 0.979183 0.064461 -0.230904
v 0.988566 0.092655 -0.230904
v 0.990677 0.115930 -0.230904
v 0.990677 0.484570 -0.230904
v 0.984813 0.522348 -0.230904
v 0.975665 0.542582 -0.230904
v 0.962294 0.560991 -0.230904
v 0.945234 0.577043 -0.230904
v 0.926217 0.589006 -0.230904
v 0.898022 0.598389 -0.230904
v 0.874747 0.600500 -0.230904
v 0.491210 0.599562 -0.230903
v 0.455329 0.589006 -0.230903
v 0.436164 0.577043 -0.230903
v 0.418910 0.560991 -0.230903
v 0.405375 0.542582 -0.230903
v 0.392314 0.507845 -0.230903
v 1.161653 0.600500 -0.230904
v 1.029877 0.600500 -0.230904
v 1.307608 0.224354 -0.230904
v 1.307608 -0.000000 -0.230904
v 1.417700 -0.000000 -0.230904
v 1.417700 0.224354 -0.230904
v 1.695431 0.600500 -0.230904
v 1.564489 0.600500 -0.230904
v 1.362654 0.345288 -0.230904
v 2.311778 -0.000000 -0.230904
v 2.311778 0.601334 -0.230904
v 2.201686 0.601334 -0.230904
v 2.201686 0.110092 -0.230904
v 1.711278 0.110092 -0.230904
v 1.711278 -0.000000 -0.230904
v 2.512455 0.600266 -0.230904
v 2.482985 0.594636 -0.230904
v 2.462830 0.585488 -0.230904
v 2.444342 0.572117 -0.230904
v 2.428102 0.555057 -0.230904
v 2.415991 0.536040 -0.230904
v 2.406493 0.507845 -0.230904
v 2.404355 0.484570 -0.230904
v 2.405305 0.100211 -0.230904
v 2.410292 0.078153 -0.230904
v 2.423590 0.051579 -0.230904
v 2.450320 0.023457 -0.230904
v 2.469363 0.011494 -0.230904
v 2.490075 0.003753 -0.230904
v 2.512455 0.000235 -0.230904
v 2.896887 0.000235 -0.230904
v 2.919553 0.003753 -0.230904
v 2.940395 0.011494 -0.230904
v 2.971077 0.033778 -0.230904
v 2.985856 0.051579 -0.230904
v 3.001103 0.085303 -0.230904
v 3.004621 0.107969 -0.230904
v 3.004856 0.484570 -0.230904
v 3.002745 0.507845 -0.230904
v 2.996411 0.529295 -0.230904
v 2.985856 0.548921 -0.230904
v 2.965347 0.572117 -0.230904
v 2.940395 0.589006 -0.230904
v 2.919553 0.596747 -0.230904
v 2.896887 0.600266 -0.230904
v 2.515837 0.112686 -0.230904
v 2.515316 0.485503 -0.230904
v 2.888926 0.490409 -0.230904
v 2.889858 0.110132 -0.230904
v 3.662904 0.599666 -0.230904
v 3.171204 0.599429 -0.230904
v 3.141318 0.593730 -0.230904
v 3.120971 0.584469 -0.230904
v 3.102396 0.570933 -0.230904
v 3.081639 0.547540 -0.230904
v 3.070953 0.527940 -0.230904
v 3.064541 0.506672 -0.230904
v 3.062404 0.483736 -0.230904
v 3.063354 0.306459 -0.230904
v 3.070952 0.277731 -0.230904
v 3.086150 0.251969 -0.230904
v 3.108391 0.229752 -0.230904
v 3.127556 0.217641 -0.230904
v 3.148494 0.209804 -0.230904
v 3.171204 0.206242 -0.230904
v 3.552812 0.206005 -0.230904
v 3.552812 -0.000000 -0.230904
v 3.662904 -0.000000 -0.230904
v 3.173694 0.486291 -0.230904
v 3.551799 0.487588 -0.230904
v 3.552812 0.321935 -0.230904
v 3.173370 0.321002 -0.230904
vn -0.0000 -0.0000 1.0000
vn -0.0000 -0.0003 1.0000
vn -0.0000 -0.0000 -1.0000
vn -0.0003 -0.0000 1.0000
vn -0.0000 -0.0003 -1.0000
vn -0.0003 -0.0000 -1.0000
vn -0.0000 0.0003 -1.0000
vn 0.0004 -0.0661 -0.9978
vn -0.0000 -0.0001 -1.0000
vn -0.0000 0.0001 -1.0000
vn 0.0003 -0.0000 -1.0000
vn 0.3482 0.9374 -0.0000
vn -0.9876 -0.1571 -0.0000
vn 0.5325 0.8464 -0.0000
vn -0.9575 -0.2886 -0.0000
vn -0.4741 0.8805 -0.0000
vn -0.5843 0.8116 -0.0000
vn -0.9353 -0.3538 -0.0000
vn -0.6349 0.7726 -0.0000
vn -0.8780 -0.4787 -0.0000
vn -0.8438 -0.5366 -0.0000
vn 0.5876 0.8091 -0.0000
vn -0.8069 -0.5907 -0.0000
vn 0.6853 0.7282 -0.0000
vn 1.0000 -0.0000 -0.0000
vn 0.6388 0.7694 -0.0000
vn 0.6388 0.7694 -0.0001
vn -1.0000 -0.0000 -0.0000
vn -0.6858 -0.7278 -0.0000
vn -0.7655 0.6434 -0.0000
vn 0.7694 0.6387 -0.0000
vn -0.0000 -1.0000 -0.0000
vn -0.5889 -0.8082 -0.0000
vn -0.8057 0.5924 -0.0000
vn -0.5342 -0.8454 -0.0000
vn -0.7239 0.6899 -0.0000
vn 0.8091 0.5877 -0.0000
vn -0.0000 1.0000 -0.0000
vn -0.7656 0.6434 -0.0000
vn 0.8465 0.5324 -0.0000
vn 0.8091 0.5876 -0.0000
vn -0.8783 0.4782 -0.0000
vn 0.9996 -0.0294 -0.0000
vn -0.2856 -0.9584 -0.0000
vn -0.2199 -0.9755 -0.0000
vn -0.8435 0.5372 -0.0000
vn 0.8464 0.5325 -0.0000
vn -1.0000 -0.0001 -0.0000
vn -0.0911 -0.9958 -0.0000
vn -0.9360 0.3519 -0.0000
vn -0.0297 -0.9996 -0.0000
vn 0.9374 0.3483 -0.0000
vn 0.9112 0.4119 -0.0000
vn -0.0022 -1.0000 -0.0000
vn 0.9760 0.2179 -0.0000
vn -0.9879 0.1552 -0.0000
vn 0.9882 0.1534 -0.0000
vn -0.9879 0.1553 -0.0000
vn -0.0903 0.9959 -0.0000
vn 0.9882 0.1533 -0.0000
vn 0.9959 0.0904 -0.0000
vn 0.1534 0.9882 -0.0000
vn -0.2174 0.9761 -0.0000
vn 0.2179 0.9760 -0.0000
vn -0.2822 0.9593 -0.0000
vn -0.4101 0.9120 -0.0000
vn -0.4712 0.8820 -0.0000
vn 0.4736 0.8807 -0.0000
vn -0.5842 0.8116 -0.0000
vn -0.9878 -0.1555 -0.0000
vn -0.9754 -0.2205 -0.0000
vn 0.6387 0.7695 -0.0000
vn 0.6387 0.7694 -0.0000
vn 0.9760 -0.2180 -0.0000
vn 0.9591 -0.2831 -0.0000
vn 0.7281 0.6855 -0.0000
vn 0.7693 0.6388 -0.0000
vn 0.7694 0.6388 -0.0000
vn 0.9111 -0.4121 -0.0000
vn -0.8056 0.5924 -0.0000
vn -0.8783 -0.4782 -0.0000
vn -0.8435 0.5371 -0.0000
vn 0.8807 0.4737 -0.0000
vn 0.8091 -0.5877 -0.0000
vn 1.0000 -0.0001 0.0002
vn 0.7281 -0.6855 -0.0000
vn 0.7281 -0.6854 -0.0000
vn -0.9581 0.2864 -0.0000
vn 0.9591 0.2832 -0.0000
vn -0.6812 -0.7321 -0.0000
vn -0.9996 -0.0299 -0.0000
vn -0.9996 -0.0298 -0.0000
vn 0.5876 -0.8091 -0.0000
vn -0.5842 -0.8116 -0.0000
vn 0.5324 -0.8465 -0.0000
vn -0.4713 -0.8819 -0.0000
vn -0.4714 -0.8819 -0.0000
vn 0.9959 -0.0904 -0.0000
vn 0.3482 -0.9374 -0.0000
vn -0.2822 -0.9594 -0.0000
vn 0.2832 -0.9591 -0.0000
vn -0.9581 -0.2864 -0.0000
vn 0.9590 -0.2833 -0.0000
vn 0.1534 -0.9882 -0.0000
vn -0.9093 -0.4162 -0.0000
vn 0.9112 -0.4120 -0.0000
vn -0.0901 -0.9959 -0.0000
vn 0.0295 -0.9996 -0.0000
vn -0.0001 -1.0000 -0.0000
vn 0.8045 -0.5940 -0.0000
vn -0.7844 0.6203 -0.0000
vn 0.7856 0.6187 -0.0000
vn -0.8045 -0.5940 -0.0000
vn 0.9882 -0.1533 -0.0000
vn -0.7239 -0.6899 -0.0000
vn 0.6855 -0.7281 -0.0000
vn -0.9581 -0.2863 -0.0000
vn -0.9361 -0.3519 -0.0000
vn -0.9360 -0.3519 -0.0000
vn 0.9374 -0.3482 -0.0000
vn -0.5860 -0.8103 -0.0000
vn 1.0000 -0.0001 -0.0000
vn -0.4742 -0.8804 -0.0000
vn -0.8782 -0.4782 -0.0000
vn 0.4737 -0.8807 -0.0000
vn -0.1554 0.9879 -0.0000
vn -0.1553 0.9879 -0.0000
vn 0.8465 -0.5325 -0.0000
vn 0.8464 -0.5325 -0.0000
vn -0.8056 -0.5924 -0.0000
vn -0.2854 -0.9584 -0.0000
vn -0.3501 0.9367 -0.0000
vn -0.7240 -0.6898 -0.0000
vn 0.2179 -0.9760 -0.0000
vn 0.4120 0.9112 -0.0000
vn -0.1554 -0.9879 -0.0000
vn 0.6387 -0.7694 -0.0000
vn -0.6813 -0.7320 -0.0000
vn 0.4737 0.8807 -0.0000
vn 0.6388 -0.7694 -0.0000
vn -0.0916 -0.9958 -0.0000
vn 0.5877 -0.8091 -0.0000
vn -0.5319 -0.8468 -0.0000
vn -0.5295 -0.8483 -0.0000
vn 0.5328 -0.8462 -0.0000
vn -0.6359 0.7718 -0.0000
vn -0.6816 0.7317 -0.0000
vn -0.4101 -0.9121 -0.0000
vn 0.4119 -0.9112 -0.0000
vn 0.3483 -0.9374 -0.0000
vn -0.3469 -0.9379 -0.0000
vn 0.7695 0.6387 -0.0000
vn -0.2202 -0.9755 -0.0000
vn 0.2180 -0.9760 -0.0000
vn -0.1549 0.9879 -0.0000
vn -0.3505 0.9366 -0.0000
vn 0.9112 0.4120 -0.0000
vn -0.9360 0.3520 -0.0000
vn -0.4758 0.8796 -0.0000
vn 0.9374 0.3481 -0.0000
vn -0.5343 0.8453 -0.0000
vn 0.9882 -0.1534 -0.0000
vn -0.6395 0.7688 -0.0000
vn -0.7661 0.6427 -0.0000
vn -0.7275 0.6861 -0.0000
vn 0.7654 -0.6436 -0.0000
vn -0.2822 0.9594 -0.0000
vn 0.2832 0.9591 -0.0000
vn 0.0294 0.9996 -0.0000
vn -0.8438 0.5366 -0.0000
vn 0.9112 -0.4121 -0.0000
vn -0.9087 0.4175 -0.0000
vn 0.9996 0.0295 -0.0000
vn 0.8807 -0.4736 -0.0000
vn -0.9353 0.3538 -0.0000
vn -0.9574 0.2887 -0.0000
vn -0.1532 0.9882 -0.0000
vn -0.7656 -0.6433 -0.0000
vn 0.7694 -0.6387 -0.0000
vn 0.5877 0.8091 -0.0000
vn -0.9995 0.0303 -0.0000
vn 0.3481 0.9375 -0.0000
vn 0.6387 -0.7695 -0.0000
vn -0.6349 -0.7726 -0.0000
vn -0.4713 -0.8820 -0.0000
vn -0.6811 0.7322 -0.0000
vn 0.6854 0.7281 -0.0000
vn 0.8807 0.4736 -0.0000
vn -0.9093 0.4162 -0.0000
vn -0.2823 -0.9593 -0.0000
vn -0.1531 -0.9882 -0.0000
vn -0.9958 0.0915 -0.0000
vn 0.9375 0.3481 -0.0000
vn -0.9754 0.2205 -0.0000
vn 0.0904 0.9959 -0.0000
vn -0.0299 0.9996 -0.0000
vn -0.2854 0.9584 -0.0000
vn -0.3500 0.9367 -0.0000
vt 0.840764 0.000000
vt 0.859873 0.000000
vt 0.866242 0.000000
vt 0.834395 0.000000
vt 0.808917 0.000000
vt 0.891720 0.000000
vt 0.898089 0.000000
vt 0.802548 0.000000
vt 0.789809 0.000000
vt 0.796178 0.000000
vt 0.910828 0.000000
vt 0.783440 0.000000
vt 0.917197 0.000000
vt 0.923567 0.000000
vt 0.757962 0.000000
vt 0.764331 0.000000
vt 0.942675 0.000000
vt 0.949045 0.000000
vt 0.745223 0.000000
vt 0.751592 0.000000
vt 0.955414 0.000000
vt 0.732484 0.000000
vt 0.968153 0.000000
vt 0.974522 0.000000
vt 0.713376 0.000000
vt 0.719745 0.000000
vt 0.987261 0.000000
vt 0.993631 0.000000
vt 0.707006 0.000000
vt 0.700637 0.000000
vt 1.000000 0.000000
vt 0.095541 0.000000
vt 0.101911 0.000000
vt 0.687898 0.000000
vt 0.694268 0.000000
vt 0.178344 0.000000
vt 0.184713 0.000000
vt 0.012739 0.000000
vt 0.019108 0.000000
vt 0.000000 0.000000
vt 0.006369 0.000000
vt 0.356688 0.000000
vt 0.363057 0.000000
vt 0.369427 0.000000
vt 0.350318 0.000000
vt 0.375796 0.000000
vt 0.343949 0.000000
vt 0.337580 0.000000
vt 0.382166 0.000000
vt 0.681529 0.000000
vt 0.261146 0.000000
vt 0.267516 0.000000
vt 0.675159 0.000000
vt 0.388535 0.000000
vt 0.656051 0.000000
vt 0.407643 0.000000
vt 0.414013 0.000000
vt 0.649682 0.000000
vt 0.643312 0.000000
vt 0.420382 0.000000
vt 0.426752 0.000000
vt 0.630573 0.000000
vt 0.636943 0.000000
vt 0.433121 0.000000
vt 0.605096 0.000000
vt 0.452229 0.000000
vt 0.458599 0.000000
vt 0.598726 0.000000
vt 0.592357 0.000000
vt 0.471338 0.000000
vt 0.477707 0.000000
vt 0.579618 0.000000
vt 0.585987 0.000000
vt 0.484076 0.000000
vt 0.573248 0.000000
vt 0.490446 0.000000
vt 0.496815 0.000000
vt 0.566879 0.000000
vt 0.503185 0.000000
vt 0.554140 0.000000
vt 0.560510 0.000000
vt 0.509554 0.000000
vt 0.777778 0.000000
vt 0.888889 0.000000
vt 0.555556 0.000000
vt 0.111111 0.000000
vt 0.222222 0.000000
vt 0.333333 0.000000
vt 0.666667 0.000000
vt 0.444444 0.000000
vt 0.662651 0.000000
vt 0.012048 0.000000
vt 0.650602 0.000000
vt 0.036145 0.000000
vt 0.048193 0.000000
vt 0.602410 0.000000
vt 0.614458 0.000000
vt 0.084337 0.000000
vt 0.590361 0.000000
vt 0.096386 0.000000
vt 0.108434 0.000000
vt 0.566265 0.000000
vt 0.578313 0.000000
vt 0.120482 0.000000
vt 0.542169 0.000000
vt 0.554217 0.000000
vt 0.144578 0.000000
vt 0.156627 0.000000
vt 0.518072 0.000000
vt 0.168675 0.000000
vt 0.493976 0.000000
vt 0.506024 0.000000
vt 0.192771 0.000000
vt 0.204819 0.000000
vt 0.457831 0.000000
vt 0.228916 0.000000
vt 0.240964 0.000000
vt 0.433735 0.000000
vt 0.445783 0.000000
vt 0.253012 0.000000
vt 0.421687 0.000000
vt 0.265060 0.000000
vt 0.277108 0.000000
vt 0.409639 0.000000
vt 0.397590 0.000000
vt 0.289157 0.000000
vt 0.843373 0.000000
vt 0.855422 0.000000
vt 0.373494 0.000000
vt 0.385542 0.000000
vt 0.674699 0.000000
vt 0.686747 0.000000
vt 0.698795 0.000000
vt 0.301205 0.000000
vt 0.313253 0.000000
vt 0.349398 0.000000
vt 0.337349 0.000000
vt 0.361446 0.000000
vt 0.325301 0.000000
vt 0.828025 0.000000
vt 0.872611 0.000000
vt 0.878981 0.000000
vt 0.821656 0.000000
vt 0.885350 0.000000
vt 0.770701 0.000000
vt 0.929936 0.000000
vt 0.738854 0.000000
vt 0.961783 0.000000
vt 0.726115 0.000000
vt 0.980892 0.000000
vt 0.668790 0.000000
vt 0.394904 0.000000
vt 0.624204 0.000000
vt 0.439490 0.000000
vt 0.445860 0.000000
vt 0.617834 0.000000
vt 0.464968 0.000000
vt 0.515924 0.000000
vt 0.535032 0.000000
vt 0.541401 0.000000
vt 0.528662 0.000000
vt 0.642384 0.000000
vt 0.649007 0.000000
vt 0.026490 0.000000
vt 0.635762 0.000000
vt 0.033113 0.000000
vt 0.039735 0.000000
vt 0.622517 0.000000
vt 0.629139 0.000000
vt 0.046358 0.000000
vt 0.615894 0.000000
vt 0.052980 0.000000
vt 0.059603 0.000000
vt 0.596026 0.000000
vt 0.602649 0.000000
vt 0.072848 0.000000
vt 0.576159 0.000000
vt 0.086093 0.000000
vt 0.092715 0.000000
vt 0.099338 0.000000
vt 0.562914 0.000000
vt 0.569536 0.000000
vt 0.105960 0.000000
vt 0.543046 0.000000
vt 0.549669 0.000000
vt 0.125828 0.000000
vt 0.132450 0.000000
vt 0.523179 0.000000
vt 0.145695 0.000000
vt 0.152318 0.000000
vt 0.509934 0.000000
vt 0.516556 0.000000
vt 0.158940 0.000000
vt 0.834437 0.000000
vt 0.841060 0.000000
vt 0.496689 0.000000
vt 0.503311 0.000000
vt 0.920530 0.000000
vt 0.927152 0.000000
vt 0.748344 0.000000
vt 0.754967 0.000000
vt 0.165563 0.000000
vt 0.172185 0.000000
vt 0.741722 0.000000
vt 0.178808 0.000000
vt 0.490066 0.000000
vt 0.662252 0.000000
vt 0.668874 0.000000
vt 0.476821 0.000000
vt 0.483444 0.000000
vt 0.192053 0.000000
vt 0.463576 0.000000
vt 0.205298 0.000000
vt 0.211921 0.000000
vt 0.456954 0.000000
vt 0.218543 0.000000
vt 0.450331 0.000000
vt 0.423841 0.000000
vt 0.245033 0.000000
vt 0.251656 0.000000
vt 0.417219 0.000000
vt 0.397351 0.000000
vt 0.403974 0.000000
vt 0.264901 0.000000
vt 0.271523 0.000000
vt 0.278146 0.000000
vt 0.390728 0.000000
vt 0.284768 0.000000
vt 0.364238 0.000000
vt 0.370861 0.000000
vt 0.304636 0.000000
vt 0.357616 0.000000
vt 0.311258 0.000000
vt 0.317881 0.000000
vt 0.350993 0.000000
vt 0.904459 0.000000
vt 0.777070 0.000000
vt 0.936306 0.000000
vt 0.401274 0.000000
vt 0.662420 0.000000
vt 0.611465 0.000000
vt 0.547771 0.000000
vt 0.522293 0.000000
vt 0.625000 0.000000
vt 0.750000 0.000000
vt 0.875000 0.000000
vt 0.125000 0.000000
vt 0.250000 0.000000
vt 0.500000 0.000000
vt 0.375000 0.000000
vt 0.200000 0.000000
vt 0.400000 0.000000
vt 0.600000 0.000000
vt 0.800000 0.000000
vt 0.019868 0.000000
vt 0.609272 0.000000
vt 0.079470 0.000000
vt 0.589404 0.000000
vt 0.582781 0.000000
vt 0.112583 0.000000
vt 0.556291 0.000000
vt 0.536424 0.000000
vt 0.847682 0.000000
vt 0.185430 0.000000
vt 0.198675 0.000000
vt 0.470199 0.000000
vt 0.430464 0.000000
vt 0.437086 0.000000
vt 0.238411 0.000000
vt 0.410596 0.000000
vt 0.384106 0.000000
vt 0.509434 0.000000
vt 0.745283 0.000000
vt 0.679245 0.000000
vt 0.009434 0.000000
vt 0.028302 0.000000
vt 0.037736 0.000000
vt 0.669811 0.000000
vt 0.075472 0.000000
vt 0.084906 0.000000
vt 0.094340 0.000000
vt 0.122642 0.000000
vt 0.132075 0.000000
vt 0.660377 0.000000
vt 0.169811 0.000000
vt 0.179245 0.000000
vt 0.188679 0.000000
vt 0.198113 0.000000
vt 0.650943 0.000000
vt 0.226415 0.000000
vt 0.641509 0.000000
vt 0.764151 0.000000
vt 0.773585 0.000000
vt 0.518868 0.000000
vt 0.528302 0.000000
vt 0.235849 0.000000
vt 0.245283 0.000000
vt 0.886792 0.000000
vt 0.490566 0.000000
vt 0.896226 0.000000
vt 0.254717 0.000000
vt 0.264151 0.000000
vt 0.273585 0.000000
vt 0.292453 0.000000
vt 0.301887 0.000000
vt 0.320755 0.000000
vt 0.330189 0.000000
vt 0.339623 0.000000
vt 0.377358 0.000000
vt 0.386792 0.000000
vt 0.396226 0.000000
vt 0.433962 0.000000
vt 0.443396 0.000000
vt 0.462264 0.000000
vt 0.471698 0.000000
vt 0.853503 0.000000
vt 0.847134 0.000000
vt 0.815287 0.000000
vt 0.024096 0.000000
vt 0.638554 0.000000
vt 0.626506 0.000000
vt 0.072289 0.000000
vt 0.060241 0.000000
vt 0.132530 0.000000
vt 0.530120 0.000000
vt 0.481928 0.000000
vt 0.655629 0.000000
vt 0.013245 0.000000
vt 0.006623 0.000000
vt 0.231788 0.000000
vt 0.443709 0.000000
vt 0.258278 0.000000
vt 0.298013 0.000000
vt 0.377483 0.000000
vt 0.066225 0.000000
vt 0.225166 0.000000
vt 0.324503 0.000000
vt 0.066038 0.000000
vt 0.056604 0.000000
vt 0.113208 0.000000
vt 0.103774 0.000000
vt 0.160377 0.000000
vt 0.150943 0.000000
vt 0.632075 0.000000
vt 0.283019 0.000000
vt 0.311321 0.000000
vt 0.367925 0.000000
vt 0.358491 0.000000
vt 0.424528 0.000000
vt 0.452830 0.000000
vt 0.481132 0.000000
vt 0.337748 0.000000
vt 0.331126 0.000000
s 1
usemtl Material.001
f 35/1/1 36/2/1 37/3/1
f 34/4/1 35/1/1 37/3/1
f 34/5/1 37/6/1 38/7/1
f 33/8/1 34/5/1 38/7/1
f 32/9/1 33/10/1 38/11/1
f 32/12/1 38/13/1 39/14/1
f 31/15/1 32/16/1 39/17/1
f 31/15/1 39/17/1 40/18/1
f 30/19/1 31/20/1 40/21/1
f 30/22/1 40/23/1 41/24/1
f 29/25/1 30/26/1 41/27/1
f 29/25/1 41/27/1 1/28/1
f 28/29/1 29/25/1 1/28/1
f 28/30/1 1/31/1 4/32/1
f 5/33/1 28/30/1 4/32/1
f 27/34/1 28/35/1 5/36/1
f 27/34/1 5/36/1 6/37/1
f 3/38/1 4/39/1 1/40/1
f 3/38/1 1/40/1 2/41/1
f 9/42/1 10/43/1 11/44/1
f 9/42/1 11/44/1 8/45/1
f 8/45/1 11/44/1 12/46/1
f 7/47/1 8/45/1 12/46/1
f 7/48/1 12/46/1 13/49/1
f 27/50/1 6/51/1 7/52/1
f 27/50/1 7/52/1 13/49/1
f 26/53/1 27/50/1 13/54/1
f 26/55/1 13/56/1 14/57/1
f 25/58/1 26/55/1 14/57/1
f 25/59/1 14/60/1 15/61/1
f 24/62/1 25/63/1 15/64/1
f 24/65/1 15/66/1 16/67/1
f 23/68/1 24/65/1 16/67/1
f 23/69/1 16/70/1 17/71/1
f 22/72/1 23/73/1 17/74/1
f 21/75/1 22/72/1 17/76/1
f 21/75/1 17/76/1 18/77/1
f 21/78/1 18/77/1 19/79/1
f 20/80/1 21/81/1 19/82/1
f 49/83/1 50/84/1 51/31/1
f 49/83/1 51/31/1 47/85/1
f 47/85/1 51/31/1 42/40/1
f 42/40/1 43/86/1 44/87/1
f 42/40/1 44/87/1 45/88/1
f 49/83/1 47/85/1 48/89/1
f 46/90/1 47/85/1 42/40/1
f 46/90/1 42/40/1 45/88/1
f 73/91/1 52/40/1 53/92/1
f 73/93/1 53/94/1 54/95/1
f 72/96/1 73/97/1 54/98/1
f 72/99/1 54/100/1 55/101/1
f 71/102/1 72/103/1 55/104/1
f 70/105/1 71/106/1 55/107/1
f 70/105/1 55/107/1 56/108/1
f 70/109/1 56/108/1 57/110/1
f 69/111/1 70/112/1 57/113/1
f 69/111/1 57/113/1 58/114/1
f 69/115/1 58/116/1 59/117/1
f 68/118/1 69/119/1 59/120/1
f 68/121/1 59/122/1 60/123/1
f 67/124/1 68/121/1 60/123/1
f 67/125/1 60/126/1 76/127/2
f 77/128/1 67/125/1 76/127/2
f 66/129/1 67/130/1 77/31/1
f 66/129/1 77/31/1 74/131/1
f 75/132/1 76/133/2 60/134/1
f 75/132/1 60/134/1 61/135/1
f 66/129/1 74/131/1 64/136/1
f 64/136/1 74/131/1 75/132/1
f 64/136/1 75/132/1 63/137/1
f 63/137/1 75/132/1 61/135/1
f 66/129/1 64/136/1 65/138/1
f 62/139/1 63/137/1 61/135/1
f 109/140/1 110/4/1 111/141/1
f 109/140/1 111/141/1 112/142/1
f 108/143/1 109/140/1 112/142/1
f 108/143/1 112/142/1 113/144/1
f 107/9/1 108/10/1 113/11/1
f 107/9/1 113/11/1 114/13/1
f 107/12/1 114/13/1 115/14/1
f 106/16/1 107/145/1 115/146/1
f 105/15/1 106/16/1 115/17/1
f 105/15/1 115/17/1 116/18/1
f 104/147/1 105/19/1 116/148/1
f 104/149/1 116/24/1 117/150/1
f 104/25/1 117/27/1 78/28/1
f 103/29/1 104/25/1 78/28/1
f 103/30/1 78/31/1 81/32/3
f 82/33/1 103/30/1 81/32/3
f 102/34/1 103/35/1 82/36/1
f 102/34/1 82/36/1 83/37/1
f 80/38/1 81/39/3 78/40/1
f 80/38/1 78/40/1 79/41/1
f 86/42/1 87/43/1 88/44/1
f 86/42/1 88/44/1 85/45/1
f 85/45/1 88/44/1 89/46/1
f 84/47/1 85/45/1 89/46/1
f 84/48/1 89/46/1 90/49/1
f 102/50/1 83/51/1 84/52/1
f 102/50/1 84/52/1 90/49/1
f 101/151/1 102/53/1 90/152/1
f 101/55/1 90/56/1 91/57/1
f 100/63/1 101/59/1 91/61/1
f 100/153/1 91/154/1 92/155/1
f 99/156/1 100/153/1 92/155/1
f 99/68/1 92/67/1 93/157/1
f 98/73/1 99/69/1 93/71/1
f 98/73/1 93/71/1 94/74/1
f 97/78/1 98/75/1 94/77/1
f 97/80/1 94/82/1 95/158/1
f 96/159/1 97/160/1 95/161/1
f 125/83/1 126/84/1 127/31/1
f 125/83/1 127/31/1 123/85/1
f 123/85/1 127/31/1 118/40/1
f 118/40/1 119/86/1 120/87/1
f 118/40/1 120/87/1 121/88/1
f 125/83/1 123/85/1 124/89/1
f 122/90/1 123/85/1 118/40/1
f 122/90/1 118/40/1 121/88/1
f 156/162/1 128/163/1 129/164/1
f 156/165/1 129/166/1 130/167/1
f 155/168/1 156/169/1 130/170/1
f 155/171/1 130/172/1 131/173/1
f 154/174/1 155/175/1 131/176/1
f 154/177/1 131/178/1 132/179/1
f 154/177/1 132/179/1 133/180/1
f 153/181/1 154/182/1 133/183/1
f 152/184/1 153/185/1 133/186/1
f 152/184/1 133/186/1 134/187/1
f 152/188/1 134/189/1 135/190/1
f 151/191/1 152/192/1 135/193/1
f 151/191/1 135/193/1 159/194/1
f 160/195/1 151/191/1 159/194/1
f 150/196/1 151/197/1 160/198/1
f 150/196/1 160/198/1 157/199/1
f 158/200/1 159/201/1 135/202/1
f 158/200/1 135/202/1 136/203/1
f 158/204/1 136/203/1 137/205/1
f 150/206/1 157/207/1 158/208/1
f 150/206/1 158/208/1 137/205/1
f 149/209/1 150/210/1 137/211/1
f 149/212/1 137/213/1 138/214/1
f 149/215/1 138/214/1 139/216/1
f 148/217/1 149/215/1 139/216/1
f 148/218/1 139/219/1 140/220/1
f 147/221/1 148/218/1 140/220/1
f 146/222/1 147/223/1 140/224/1
f 146/222/1 140/225/1 141/226/1
f 146/227/1 141/226/1 142/228/1
f 145/229/1 146/230/1 142/231/1
f 145/232/1 142/233/1 143/234/1
f 144/235/1 145/232/1 143/234/1
f 192/1/1 193/2/1 194/3/1
f 191/143/1 192/140/1 194/142/1
f 191/5/1 194/6/1 195/7/1
f 190/8/1 191/5/1 195/7/1
f 189/10/1 190/8/1 195/236/1
f 189/9/1 195/11/1 196/13/1
f 188/237/1 189/12/1 196/14/1
f 188/16/1 196/146/1 197/238/1
f 187/19/1 188/20/1 197/21/1
f 187/147/1 197/148/1 198/23/1
f 186/22/1 187/147/1 198/23/1
f 186/29/1 198/28/1 199/31/1
f 185/30/1 186/29/1 199/31/1
f 185/30/1 199/31/1 163/32/1
f 164/33/4 185/30/1 163/32/1
f 184/34/1 185/35/1 164/36/4
f 184/34/1 164/36/4 165/37/1
f 162/38/1 163/39/1 199/40/1
f 162/38/1 199/40/1 161/41/1
f 168/42/1 169/43/1 170/44/1
f 168/42/1 170/44/1 167/45/1
f 167/45/1 170/44/1 171/46/1
f 166/47/1 167/45/1 171/46/1
f 184/50/1 165/51/1 166/52/1
f 184/50/1 166/52/1 171/49/1
f 184/151/1 171/152/1 172/239/1
f 183/240/1 184/151/1 172/239/1
f 182/59/1 183/58/1 172/60/1
f 182/59/1 172/60/1 173/61/1
f 181/241/1 182/156/1 173/66/1
f 181/65/1 173/66/1 174/67/1
f 180/69/1 181/68/1 174/157/1
f 180/73/1 174/71/1 175/74/1
f 180/78/1 175/77/1 176/79/1
f 179/81/1 180/78/1 176/79/1
f 178/242/1 179/80/1 176/158/1
f 178/242/1 176/158/1 177/243/1
f 205/244/1 206/245/1 207/246/1
f 205/244/1 207/246/1 208/31/1
f 208/31/1 200/40/1 201/247/1
f 208/31/1 201/247/1 202/248/1
f 205/244/1 208/31/1 202/248/1
f 204/249/1 205/244/1 202/248/1
f 204/249/1 202/248/1 203/250/1
f 209/40/1 210/251/1 211/252/1
f 209/40/1 211/252/1 212/253/1
f 209/40/1 212/253/1 213/254/1
f 209/40/1 213/254/1 214/31/1
f 244/163/1 215/255/1 216/164/1
f 243/165/1 244/162/1 216/166/1
f 243/169/1 216/167/1 217/170/1
f 242/171/1 243/168/1 217/172/1
f 241/256/1 242/171/1 217/173/1
f 241/174/1 217/176/1 218/257/1
f 241/258/1 218/257/1 219/178/1
f 240/177/1 241/259/1 219/178/1
f 240/181/1 219/183/1 220/260/1
f 239/261/1 240/181/1 220/260/1
f 239/184/1 220/186/1 221/187/1
f 238/262/1 239/184/1 221/187/1
f 238/188/1 221/189/1 222/190/1
f 238/191/1 222/193/1 247/194/2
f 237/197/1 238/191/1 248/263/1
f 248/195/1 238/191/1 247/194/2
f 236/196/1 237/197/1 248/198/1
f 236/196/1 248/198/1 245/199/1
f 246/200/1 247/201/2 222/202/1
f 246/200/1 222/202/1 223/203/1
f 236/206/1 245/207/1 246/208/1
f 236/206/1 246/208/1 223/205/1
f 235/210/1 236/206/1 223/264/1
f 235/209/1 223/211/1 224/265/1
f 234/212/1 235/266/1 224/213/1
f 234/215/1 224/214/1 225/216/1
f 233/267/1 234/268/1 225/269/1
f 233/218/1 225/219/1 226/220/1
f 232/270/1 233/221/1 226/220/1
f 232/222/1 226/224/1 227/225/1
f 232/227/1 227/226/1 228/228/1
f 231/271/1 232/227/1 228/228/1
f 230/229/1 231/230/1 228/231/1
f 230/232/1 228/233/1 229/234/1
f 268/272/1 249/40/1 270/273/1
f 270/274/1 249/40/1 250/275/1
f 270/274/1 250/276/1 251/277/1
f 270/278/1 251/279/1 252/280/1
f 270/278/1 252/280/1 253/281/1
f 270/278/1 253/282/1 254/283/1
f 270/284/1 254/285/1 255/286/1
f 270/284/1 255/287/1 256/288/1
f 270/289/1 256/290/1 269/291/1
f 268/272/1 270/292/1 271/293/1
f 272/294/1 269/295/1 256/296/1
f 272/294/1 256/296/1 257/297/1
f 268/272/1 271/298/1 266/299/1
f 266/299/1 271/298/1 272/300/1
f 266/299/1 272/300/1 257/301/1
f 266/299/1 257/302/1 258/303/1
f 266/299/1 258/304/1 259/305/1
f 266/299/1 259/306/1 260/307/1
f 266/299/1 260/307/1 261/308/1
f 266/299/1 261/309/1 262/310/1
f 266/299/1 262/310/1 263/311/1
f 266/299/1 263/312/1 264/313/1
f 266/299/1 264/314/1 265/315/1
f 268/272/1 266/299/1 267/249/1
f 307/1/3 309/316/3 308/317/3
f 307/143/3 310/144/3 309/142/3
f 306/5/3 310/6/3 307/318/3
f 305/8/3 310/7/3 306/5/3
f 305/9/3 311/13/3 310/11/3
f 304/145/3 311/146/3 305/237/3
f 304/16/3 312/17/3 311/238/3
f 303/20/3 312/18/3 304/15/3
f 302/19/3 312/21/3 303/20/3
f 302/19/3 313/148/3 312/21/3
f 301/149/3 313/24/3 302/22/3
f 301/25/3 273/28/3 313/27/3
f 300/29/3 273/28/3 301/25/3
f 300/30/3 276/32/3 273/31/3
f 277/33/3 276/32/3 300/30/3
f 299/34/3 277/36/3 300/35/3
f 299/34/3 278/37/3 277/36/3
f 275/38/3 273/40/3 276/39/3
f 275/38/3 274/41/3 273/40/3
f 281/42/3 283/44/3 282/43/3
f 281/42/3 280/45/3 283/44/3
f 280/45/3 284/46/3 283/44/3
f 279/47/3 284/46/3 280/45/3
f 298/50/3 278/37/3 299/34/3
f 298/50/3 279/52/3 278/51/3
f 298/50/3 284/49/3 279/52/3
f 297/240/3 284/239/3 298/151/3
f 297/240/3 285/56/3 284/239/3
f 297/55/3 286/57/3 285/56/3
f 296/62/3 286/64/3 297/63/3
f 296/62/3 287/154/3 286/64/3
f 295/153/3 287/154/3 296/62/3
f 294/69/3 287/157/3 295/68/3
f 294/69/3 288/70/3 287/157/3
f 293/73/3 288/71/3 294/69/3
f 293/72/3 289/76/3 288/74/3
f 292/78/3 289/77/3 293/75/3
f 291/242/3 289/158/3 292/80/3
f 291/242/3 290/243/3 289/158/3
f 321/83/3 323/31/3 322/84/3
f 321/83/3 319/85/3 323/31/3
f 319/85/3 314/40/3 323/31/3
f 314/40/3 316/87/3 315/86/3
f 314/40/3 317/88/3 316/87/3
f 321/83/3 320/89/3 319/85/3
f 318/90/3 314/40/3 319/85/3
f 318/90/3 317/88/3 314/40/3
f 324/91/3 326/94/3 325/319/3
f 345/320/3 326/95/3 324/93/3
f 345/321/3 327/322/3 326/323/3
f 345/99/3 328/101/3 327/100/3
f 344/103/3 328/101/3 345/99/3
f 344/106/3 329/107/3 328/324/3
f 343/105/3 329/107/3 344/106/3
f 342/325/3 329/108/3 343/105/3
f 342/111/3 330/114/3 329/113/3
f 341/326/3 330/114/3 342/111/3
f 340/119/3 330/117/3 341/115/3
f 340/118/3 331/122/3 330/120/3
f 340/121/3 332/123/3 331/122/3
f 339/124/3 332/123/3 340/121/3
f 339/125/3 348/127/3 332/126/3
f 349/128/3 348/127/3 339/125/3
f 338/129/3 349/31/3 339/130/3
f 338/129/3 346/131/3 349/31/3
f 347/132/3 332/134/3 348/133/3
f 347/132/3 333/135/3 332/134/3
f 338/129/3 336/136/3 346/131/3
f 336/136/3 347/132/3 346/131/3
f 336/136/3 335/137/3 347/132/3
f 335/137/3 333/135/3 347/132/3
f 338/129/3 337/138/3 336/136/3
f 334/139/3 333/135/3 335/137/3
f 383/1/3 385/3/3 384/2/3
f 382/140/3 385/141/3 383/4/3
f 382/5/3 386/7/3 385/6/3
f 382/8/3 387/236/3 386/7/3
f 381/10/3 387/236/3 382/8/3
f 380/237/3 387/14/3 381/12/3
f 380/16/3 388/238/3 387/146/3
f 379/15/3 388/17/3 380/16/3
f 378/20/3 388/18/3 379/15/3
f 378/20/3 389/21/3 388/18/3
f 378/22/3 390/24/3 389/23/3
f 377/26/3 390/150/3 378/149/3
f 377/25/3 350/28/3 390/27/3
f 376/29/3 350/28/3 377/25/3
f 376/30/3 353/32/3 350/31/3
f 354/33/5 353/32/3 376/30/3
f 375/34/3 354/36/5 376/35/3
f 375/34/3 355/37/6 354/36/5
f 352/38/3 350/40/3 353/39/3
f 352/38/3 351/41/3 350/40/3
f 358/42/3 360/44/3 359/43/3
f 358/42/3 357/45/3 360/44/3
f 357/45/3 361/46/3 360/44/3
f 356/47/3 361/46/3 357/45/3
f 356/48/3 362/49/3 361/46/3
f 375/50/3 356/52/3 355/51/6
f 375/50/3 362/49/3 356/52/3
f 374/53/3 362/54/3 375/50/3
f 374/55/3 363/57/3 362/56/3
f 373/59/3 363/60/3 374/58/3
f 373/59/3 364/61/3 363/60/3
f 372/63/3 364/61/3 373/59/3
f 371/156/3 364/155/3 372/153/3
f 371/65/3 365/67/3 364/66/3
f 370/68/3 365/67/3 371/65/3
f 370/73/3 366/74/3 365/71/3
f 369/78/3 366/77/3 370/75/3
f 369/78/3 367/79/3 366/77/3
f 368/81/3 367/79/3 369/78/3
f 398/83/3 400/31/3 399/84/3
f 398/83/3 396/85/3 400/31/3
f 396/85/3 391/40/3 400/31/3
f 391/40/3 393/87/3 392/86/3
f 391/40/3 394/88/3 393/87/3
f 398/83/3 397/89/3 396/85/3
f 395/90/3 391/40/3 396/85/3
f 395/90/3 394/88/3 391/40/3
f 401/327/3 403/328/3 402/329/3
f 430/162/3 403/164/3 401/163/3
f 430/169/3 404/170/3 403/167/3
f 429/168/3 404/170/3 430/169/3
f 429/171/3 405/173/3 404/172/3
f 428/258/3 405/257/3 429/174/3
f 428/177/3 406/179/3 405/178/3
f 428/181/3 407/260/3 406/183/3
f 427/261/3 407/260/3 428/181/3
f 426/184/3 407/186/3 427/185/3
f 426/184/3 408/187/3 407/186/3
f 426/188/3 409/190/3 408/189/3
f 425/192/3 409/190/3 426/188/3
f 425/191/3 432/194/3 409/193/3
f 433/195/5 432/194/3 425/191/3
f 424/196/3 433/198/5 425/197/3
f 424/196/3 434/199/3 433/198/5
f 431/200/3 409/202/3 432/201/3
f 431/200/3 410/203/3 409/202/3
f 431/204/3 411/205/3 410/203/3
f 424/206/3 431/208/3 434/207/3
f 424/206/3 411/205/3 431/208/3
f 423/212/3 411/213/3 424/266/3
f 423/212/3 412/214/3 411/213/3
f 423/215/3 413/216/3 412/214/3
f 422/268/3 413/330/3 423/331/3
f 422/218/3 414/220/3 413/219/3
f 421/223/3 414/332/3 422/270/3
f 420/222/3 414/224/3 421/223/3
f 420/222/3 415/225/3 414/224/3
f 420/222/3 416/226/3 415/225/3
f 419/230/3 416/333/3 420/334/3
f 419/229/3 417/233/3 416/231/3
f 418/235/3 417/234/3 419/232/3
f 468/140/3 470/141/3 469/4/3
f 468/143/3 471/144/3 470/142/3
f 467/318/3 471/144/3 468/143/3
f 467/8/3 472/236/3 471/7/3
f 466/12/3 472/13/3 467/9/3
f 466/12/3 473/14/3 472/13/3
f 465/237/3 473/14/3 466/12/3
f 465/20/3 474/21/3 473/18/3
f 464/19/3 474/21/3 465/20/3
f 463/147/3 474/148/3 464/19/3
f 463/22/3 475/24/3 474/23/3
f 463/25/3 435/28/7 475/27/3
f 462/29/3 435/28/7 463/25/3
f 462/30/3 438/32/8 435/31/7
f 439/33/9 438/32/8 462/30/3
f 461/34/3 439/36/9 462/35/3
f 461/34/3 440/37/3 439/36/9
f 437/38/3 435/40/7 438/39/8
f 437/38/3 436/41/3 435/40/7
f 443/42/3 445/44/3 444/43/3
f 443/42/3 442/45/3 445/44/3
f 442/45/3 446/46/3 445/44/3
f 441/47/10 446/46/3 442/45/3
f 460/50/3 440/37/3 461/34/3
f 460/50/3 441/52/10 440/51/3
f 460/50/3 446/49/3 441/52/10
f 460/53/3 447/152/3 446/54/3
f 460/151/3 448/239/3 447/152/3
f 459/55/3 448/56/3 460/240/3
f 459/59/3 449/61/3 448/60/3
f 458/153/3 449/154/3 459/62/3
f 457/241/3 449/66/3 458/156/3
f 457/65/3 450/67/3 449/66/3
f 457/69/3 451/70/3 450/157/3
f 456/73/3 451/71/3 457/69/3
f 455/78/3 451/77/3 456/75/3
f 455/78/3 452/79/3 451/77/3
f 455/242/3 453/243/3 452/158/3
f 454/159/3 453/161/3 455/160/3
f 481/244/3 483/246/3 482/245/3
f 481/244/3 484/31/3 483/246/3
f 484/31/3 477/247/3 476/40/3
f 484/31/3 478/248/3 477/247/3
f 481/244/3 478/248/3 484/31/3
f 480/249/3 478/248/3 481/244/3
f 480/249/3 479/250/3 478/248/3
f 485/40/3 487/252/3 486/251/3
f 485/40/3 488/253/3 487/252/3
f 485/40/3 489/254/3 488/253/3
f 485/40/3 490/31/3 489/254/3
f 520/163/3 492/164/3 491/255/3
f 519/165/3 492/166/3 520/162/3
f 519/169/3 493/170/3 492/167/3
f 518/171/3 493/172/3 519/168/3
f 517/175/3 493/335/3 518/256/3
f 517/174/3 494/257/3 493/176/3
f 517/177/3 495/180/3 494/179/3
f 516/182/3 495/180/3 517/177/3
f 516/182/3 496/183/3 495/180/3
f 515/184/3 496/186/3 516/185/3
f 515/184/3 497/187/3 496/186/3
f 514/262/3 497/187/3 515/184/3
f 514/188/3 498/190/3 497/189/3
f 514/191/3 522/194/3 498/193/3
f 513/197/3 523/263/3 514/191/3
f 523/195/3 522/194/3 514/191/3
f 512/196/3 523/198/3 513/197/3
f 512/196/3 524/199/3 523/198/3
f 521/200/3 498/202/3 522/201/3
f 521/200/3 499/203/3 498/202/3
f 512/206/3 521/208/3 524/207/3
f 512/206/3 499/205/3 521/208/3
f 511/210/3 499/264/3 512/206/3
f 511/266/3 500/213/3 499/265/3
f 510/217/3 500/216/3 511/215/3
f 510/217/3 501/336/3 500/216/3
f 509/267/3 501/269/3 510/268/3
f 509/218/3 502/220/3 501/219/3
f 508/222/3 502/224/3 509/223/3
f 508/222/3 503/225/3 502/224/3
f 508/230/3 504/231/3 503/333/3
f 507/229/3 504/231/3 508/230/3
f 506/232/3 504/233/3 507/229/3
f 506/235/3 505/337/3 504/234/3
f 543/272/3 545/273/11 525/40/3
f 545/274/11 526/275/3 525/40/3
f 545/274/11 527/277/3 526/276/3
f 545/278/11 528/338/3 527/339/3
f 545/278/11 529/340/3 528/341/3
f 545/278/11 530/283/3 529/282/3
f 545/284/11 531/342/3 530/343/3
f 545/284/11 532/287/3 531/286/3
f 545/289/11 544/291/3 532/290/3
f 544/344/3 533/296/3 532/290/3
f 543/272/3 546/293/3 545/292/11
f 547/294/3 533/296/3 544/295/3
f 547/294/3 534/297/3 533/296/3
f 543/272/3 541/299/3 546/298/3
f 541/299/3 547/300/3 546/298/3
f 541/299/3 534/301/3 547/300/3
f 541/299/3 535/304/3 534/345/3
f 541/299/3 536/306/3 535/346/3
f 541/299/3 537/347/3 536/348/3
f 541/299/3 538/310/3 537/309/3
f 541/299/3 539/312/3 538/349/3
f 541/299/3 540/314/3 539/350/3
f 543/272/3 542/249/3 541/299/3
f 156/169/12 155/168/12 429/168/12 430/169/12
f 258/303/13 257/302/13 534/303/13
f 33/10/14 32/9/14 305/10/14
f 258/345/15 534/345/15 535/304/15
f 131/173/16 130/172/16 404/172/16 405/173/16
f 38/11/17 310/11/17 311/13/17
f 259/305/18 258/304/18 535/305/18
f 39/14/19 38/13/19 311/14/19
f 259/346/20 535/346/20 536/306/20
f 260/307/21 259/306/21 536/307/21
f 155/175/22 154/174/22 429/175/22
f 261/308/23 260/307/23 536/308/23
f 32/145/24 304/145/24 305/237/24
f 185/35/25 184/34/25 461/34/25 462/35/25
f 154/258/26 428/258/26 429/174/27
f 165/37/28 164/36/28 439/36/28 440/37/28
f 261/348/29 536/348/29 537/347/29
f 163/39/25 162/38/25 437/38/25 438/39/25
f 39/238/30 311/238/30 312/17/30
f 32/16/31 31/15/31 304/16/31
f 162/38/32 161/41/32 436/41/32 437/38/32
f 161/41/28 199/40/28 435/40/28 436/41/28
f 262/310/33 261/309/33 537/309/33 538/310/33
f 169/43/25 168/42/25 443/42/25 444/43/25
f 40/18/34 39/17/34 312/18/34
f 263/311/35 262/310/35 538/311/35
f 132/179/36 131/178/36 405/178/36 406/179/36
f 31/20/37 303/20/37 304/15/37
f 170/44/38 169/43/38 444/43/38 445/44/38
f 168/42/32 167/45/32 442/45/32 443/42/32
f 133/180/39 132/179/39 406/180/39
f 31/20/40 30/19/40 302/19/40 303/20/40
f 171/46/28 170/44/28 445/44/28 446/46/28
f 167/45/25 166/47/25 441/47/25 442/45/25
f 154/182/41 153/181/41 428/182/41
f 40/21/42 312/21/42 313/148/42
f 184/50/43 460/50/43 461/34/43
f 263/349/44 538/349/44 539/312/44
f 67/130/25 66/129/25 338/129/25 339/130/25
f 264/313/45 263/312/45 539/313/45
f 133/183/46 406/183/46 407/260/46
f 153/261/47 427/261/47 428/181/47
f 74/131/48 77/31/48 349/31/48 346/131/48
f 76/133/25 75/132/25 347/132/25 348/133/25
f 264/350/49 539/350/49 540/314/49
f 41/24/50 40/23/50 313/24/50
f 265/315/51 264/314/51 540/315/51
f 30/149/52 301/149/52 302/22/52
f 61/135/28 60/134/28 332/134/28 333/135/28
f 268/272/32 267/249/32 542/249/32 543/272/32
f 267/249/28 266/299/28 541/299/28 542/249/28
f 153/185/53 152/184/53 426/184/53 427/185/53
f 266/351/54 265/315/54 540/315/54 541/351/54
f 75/132/38 74/131/38 346/131/38 347/132/38
f 64/136/32 63/137/32 335/137/32 336/136/32
f 134/187/50 133/186/50 407/186/50 408/187/50
f 30/26/55 29/25/55 301/26/55
f 66/129/32 65/138/32 337/138/32 338/129/32
f 65/138/28 64/136/28 336/136/28 337/138/28
f 63/137/25 62/139/25 334/139/25 335/137/25
f 1/28/56 41/27/56 313/27/56 273/28/56
f 62/139/32 61/135/32 333/135/32 334/139/32
f 29/25/57 28/29/57 300/29/57 301/25/57
f 111/316/38 110/317/38 383/317/38 384/316/38
f 135/190/58 134/189/58 408/189/58 409/190/58
f 111/2/59 384/2/59 385/3/59
f 152/192/60 425/192/60 426/188/60
f 152/192/61 151/191/61 425/192/61
f 110/4/62 109/140/62 382/140/62 383/4/62
f 112/142/63 111/141/63 385/142/63
f 109/140/64 108/143/64 382/140/64
f 5/33/32 4/32/32 276/32/32 277/33/32
f 113/144/65 112/142/65 385/144/65
f 160/195/32 159/194/32 432/194/32 433/195/32
f 113/6/66 385/6/66 386/7/66
f 113/7/67 386/7/67 387/236/67
f 108/10/68 381/10/68 382/8/68
f 166/52/38 165/51/38 440/51/38 441/52/38
f 108/10/14 107/9/14 381/10/14
f 114/13/69 113/11/69 387/13/69
f 171/54/70 446/54/70 447/152/70
f 115/14/19 114/13/19 387/14/19
f 172/239/71 171/152/71 447/152/71 448/239/71
f 107/237/72 380/237/73 381/12/72
f 184/151/74 183/240/74 460/151/74
f 183/55/75 459/55/75 460/240/75
f 107/145/76 106/16/76 380/145/76
f 115/146/36 387/146/36 388/238/36
f 106/16/77 105/15/78 379/15/77 380/16/78
f 183/58/79 182/59/79 459/58/79
f 116/18/80 115/17/80 388/18/80
f 173/61/81 172/60/81 448/60/81 449/61/81
f 105/20/37 378/20/37 379/15/37
f 28/35/25 27/34/25 299/34/25 300/35/25
f 116/18/82 388/18/82 389/21/82
f 6/37/28 5/36/28 277/36/28 278/37/28
f 4/39/25 3/38/25 275/38/25 276/39/25
f 105/19/83 104/147/83 378/19/83
f 3/38/32 2/41/32 274/41/32 275/38/32
f 182/153/84 458/153/84 459/62/84
f 151/197/25 150/196/25 424/196/25 425/197/25
f 2/41/28 1/40/28 273/40/28 274/41/28
f 10/43/25 9/42/25 281/42/25 282/43/25
f 157/199/28 160/198/28 433/198/28 434/199/28
f 11/44/38 10/43/38 282/43/38 283/44/38
f 159/201/85 158/200/85 431/200/85 432/201/85
f 9/42/32 8/45/32 280/45/32 281/42/32
f 116/23/50 389/23/50 390/24/50
f 136/203/28 135/202/28 409/202/28 410/203/28
f 12/46/28 11/44/28 283/44/28 284/46/28
f 182/156/86 181/241/86 457/241/87 458/156/87
f 8/45/25 7/47/25 279/47/25 280/45/25
f 117/150/88 116/24/88 390/150/88
f 27/50/43 298/50/43 299/34/43
f 104/26/89 377/26/89 378/149/89
f 174/67/90 173/66/90 449/66/90 450/67/90
f 137/205/91 136/203/91 410/203/91 411/205/91
f 13/49/92 12/46/92 284/49/92
f 181/68/93 180/69/93 457/68/93
f 78/28/56 117/27/56 390/27/56 350/28/56
f 104/25/57 103/29/57 376/29/57 377/25/57
f 174/157/94 450/157/94 451/70/94
f 180/73/95 456/73/95 457/69/95
f 246/208/38 245/207/38 524/207/38 521/208/38
f 175/74/96 174/71/97 451/74/96
f 236/206/98 235/210/98 511/210/98 512/206/98
f 180/78/99 455/78/99 456/75/99
f 82/33/32 81/32/32 353/32/32 354/33/32
f 224/265/71 223/211/71 499/265/71
f 176/79/100 175/77/100 451/77/100 452/79/100
f 180/78/101 179/81/101 455/78/101
f 224/265/102 499/265/102 500/213/102
f 235/266/103 234/212/103 511/266/103
f 179/80/104 178/242/104 455/80/104
f 225/216/105 224/214/105 500/216/105
f 234/217/106 510/217/106 511/215/106
f 177/243/107 176/158/107 452/158/107 453/243/107
f 225/216/81 500/216/81 501/336/81
f 178/159/108 454/159/108 455/160/108
f 178/159/109 177/161/109 453/161/109 454/159/109
f 206/245/110 205/244/110 481/244/110 482/245/110
f 207/246/38 206/245/38 482/245/38 483/246/38
f 158/208/38 157/207/38 434/207/38 431/208/38
f 208/31/111 207/246/111 483/246/111 484/31/111
f 234/268/84 233/267/84 509/267/84 510/268/84
f 200/40/112 208/31/112 484/31/112 476/40/112
f 7/52/38 6/51/38 278/51/38 279/52/38
f 201/247/38 200/40/38 476/40/38 477/247/38
f 202/248/113 201/247/113 477/247/113 478/248/113
f 27/50/98 26/53/98 298/50/98
f 205/244/25 204/249/25 480/249/25 481/244/25
f 150/210/114 149/209/114 424/210/114
f 226/220/115 225/219/115 501/219/115 502/220/115
f 204/249/32 203/250/32 479/250/32 480/249/32
f 203/250/28 202/248/28 478/248/28 479/250/28
f 233/221/116 232/270/116 509/221/116
f 210/251/25 209/40/25 485/40/25 486/251/25
f 211/252/38 210/251/38 486/251/38 487/252/38
f 26/240/74 297/240/74 298/151/74
f 212/253/28 211/252/28 487/252/28 488/253/28
f 149/212/103 423/212/103 424/266/103
f 13/239/117 284/239/117 285/56/117
f 213/254/38 212/253/38 488/253/38 489/254/38
f 209/40/32 214/31/32 490/31/32 485/40/32
f 138/214/118 137/213/118 411/213/118 412/214/118
f 232/222/93 508/222/93 509/223/93
f 214/31/28 213/254/28 489/254/28 490/31/28
f 103/35/25 102/34/25 375/34/25 376/35/25
f 14/57/119 13/56/119 285/56/119 286/57/119
f 26/55/120 25/58/120 297/55/120
f 227/225/121 226/224/121 502/224/121 503/225/121
f 215/329/38 244/40/38 520/40/38 491/329/38
f 83/37/28 82/36/28 354/36/28 355/37/28
f 139/216/105 138/214/105 412/214/105 413/216/105
f 81/39/122 80/38/122 352/38/122 353/39/122
f 149/215/106 148/217/106 423/215/106
f 80/38/32 79/41/32 351/41/32 352/38/32
f 79/41/28 78/40/28 350/40/28 351/41/28
f 87/43/25 86/42/25 358/42/25 359/43/25
f 228/228/123 227/226/123 503/228/123
f 15/61/124 14/60/124 286/61/124
f 232/227/125 231/271/125 508/227/125
f 88/44/38 87/43/38 359/43/38 360/44/38
f 216/164/126 215/255/126 491/255/127 492/164/127
f 86/42/32 85/45/32 357/45/32 358/42/32
f 148/268/128 422/268/128 423/331/128
f 89/46/28 88/44/28 360/44/28 361/46/28
f 25/63/129 24/62/129 296/62/129 297/63/129
f 85/45/25 84/47/25 356/47/25 357/45/25
f 244/162/64 243/165/64 519/165/64 520/162/64
f 15/64/130 286/64/130 287/154/130
f 24/153/84 295/153/84 296/62/84
f 228/333/131 503/333/131 504/231/131
f 231/230/101 230/229/101 507/229/101 508/230/101
f 217/170/132 216/167/132 492/167/132 493/170/132
f 140/220/133 139/219/133 413/219/133 414/220/115
f 90/49/91 89/46/91 361/46/91 362/49/91
f 148/218/87 147/221/87 422/218/87
f 230/232/134 506/232/134 507/229/134
f 243/168/135 242/171/135 518/171/135 519/168/135
f 229/234/136 228/233/136 504/234/136
f 147/223/137 421/223/137 422/270/137
f 16/67/138 15/66/138 287/67/138
f 242/171/139 241/256/139 518/171/139
f 24/65/140 23/68/140 295/65/140
f 229/234/141 504/234/141 505/337/141
f 147/223/142 146/222/142 420/222/142 421/223/142
f 241/175/14 517/175/14 518/256/14
f 23/69/142 294/69/142 295/68/142
f 140/224/121 414/224/121 415/225/121
f 230/352/32 229/353/32 505/353/32 506/352/32
f 141/226/143 140/225/143 415/225/143 416/226/143
f 16/157/94 287/157/94 288/70/94
f 249/40/25 268/272/25 543/272/25 525/40/25
f 17/71/144 16/70/144 288/71/144
f 23/73/145 293/73/145 294/69/145
f 218/257/146 217/176/146 493/176/146 494/257/146
f 142/228/123 141/226/123 416/228/123
f 23/73/125 22/72/125 293/73/125
f 219/178/147 218/257/147 494/178/147
f 17/74/148 288/74/148 289/76/148
f 241/259/76 240/177/76 517/259/76
f 22/72/149 21/75/149 293/72/149
f 146/230/150 419/230/150 420/334/150
f 18/77/151 17/76/151 289/77/151
f 21/78/99 292/78/99 293/75/99
f 219/179/30 494/179/30 495/180/30
f 240/182/152 516/182/152 517/177/152
f 146/230/101 145/229/101 419/230/101
f 19/79/100 18/77/100 289/79/100
f 250/275/38 249/40/38 525/40/38 526/275/38
f 219/180/80 495/180/80 496/183/80
f 142/231/153 416/231/153 417/233/153
f 21/81/154 20/80/154 292/81/154
f 220/260/46 219/183/46 496/260/46
f 143/234/136 142/233/136 417/234/136
f 251/277/155 250/276/155 526/276/155 527/277/155
f 240/181/40 239/261/40 516/181/40
f 145/232/104 144/235/104 418/235/104 419/232/104
f 20/242/104 291/242/104 292/80/104
f 19/158/107 289/158/107 290/243/107
f 84/52/38 83/51/38 355/51/38 356/52/38
f 251/339/156 527/339/156 528/338/156
f 239/184/157 515/184/157 516/185/157
f 144/352/32 143/353/32 417/353/32 418/352/32
f 102/53/98 374/53/98 375/50/98
f 221/187/50 220/186/158 496/186/50 497/187/50
f 20/159/32 19/161/32 290/161/32 291/159/32
f 252/280/159 251/279/159 528/280/159
f 239/184/160 238/262/160 514/262/160 515/184/160
f 193/316/38 192/317/38 469/317/38 470/316/38
f 50/84/25 49/83/25 321/83/25 322/84/25
f 253/281/161 252/280/161 528/281/161
f 102/53/162 101/151/162 374/53/162
f 51/31/38 50/84/38 322/84/38 323/31/38
f 194/3/59 193/2/59 470/3/59
f 253/341/163 528/341/163 529/340/163
f 42/40/164 51/31/164 323/31/164 314/40/164
f 43/86/25 42/40/25 314/40/25 315/86/25
f 192/140/62 468/140/62 469/4/62
f 44/87/38 43/86/38 315/86/38 316/87/38
f 254/283/165 253/282/165 529/282/165 530/283/165
f 222/190/58 221/189/58 497/189/58 498/190/58
f 45/88/28 44/87/28 316/87/28 317/88/28
f 49/83/32 48/89/32 320/89/32 321/83/32
f 91/57/119 90/56/119 362/56/119 363/57/119
f 192/140/64 191/143/64 468/140/64
f 48/89/28 47/85/28 319/85/28 320/89/28
f 47/85/166 46/90/166 318/90/166 319/85/166
f 194/142/167 470/142/167 471/144/167
f 46/90/32 45/88/32 317/88/32 318/90/32
f 191/318/168 467/318/168 468/143/168
f 52/40/169 73/91/169 324/40/169
f 254/343/170 530/343/170 531/342/170
f 101/59/171 373/59/171 374/58/171
f 53/92/38 52/40/38 324/40/38 325/92/38
f 91/60/124 363/60/124 364/61/124
f 255/286/172 254/285/172 531/286/172
f 238/191/173 237/197/173 513/197/173 514/191/173
f 101/59/174 100/63/174 372/63/174 373/59/174
f 53/319/59 325/319/59 326/94/59
f 255/286/175 531/286/175 532/287/175
f 195/7/66 194/6/66 471/7/66
f 191/5/135 190/8/135 467/5/135
f 256/288/176 255/287/176 532/288/176
f 248/195/32 247/194/32 522/194/32 523/195/32
f 54/95/177 53/94/177 326/95/177
f 195/7/67 471/7/67 472/236/67
f 73/320/62 345/320/62 324/93/62
f 190/8/68 189/10/68 467/8/68
f 92/155/178 91/154/178 364/155/178
f 100/153/179 99/156/179 371/156/179 372/153/179
f 270/289/32 269/291/32 544/291/32 545/289/32
f 54/323/167 326/323/167 327/322/167
f 196/13/17 195/11/17 472/13/17
f 189/12/180 466/12/180 467/9/180
f 256/290/181 532/290/181 533/296/181
f 196/13/19 472/13/19 473/14/19
f 73/97/182 72/96/182 345/97/182
f 189/12/26 188/237/26 465/237/26 466/12/26
f 92/66/90 364/66/90 365/67/90
f 99/68/183 370/68/183 371/65/183
f 93/157/184 92/67/184 365/157/184
f 55/101/67 54/100/67 327/100/67 328/101/67
f 72/103/139 344/103/139 345/99/139
f 197/238/36 196/146/36 473/238/36
f 72/103/14 71/102/14 344/103/14
f 99/69/95 98/73/95 370/69/95
f 94/74/185 93/71/185 365/71/185 366/74/185
f 55/324/19 328/324/19 329/107/19
f 197/18/46 473/18/46 474/21/46
f 71/106/73 70/105/73 343/105/73 344/106/73
f 188/20/47 187/19/47 464/19/47 465/20/47
f 56/108/186 55/107/186 329/108/186
f 70/325/187 342/325/187 343/105/187
f 187/147/188 463/147/188 464/19/188
f 98/75/99 97/78/99 369/78/99 370/75/99
f 271/293/28 270/292/28 545/292/28 546/293/28
f 198/23/189 197/148/189 474/23/189
f 269/295/25 272/294/25 547/294/25 544/295/25
f 94/77/190 366/77/190 367/79/190
f 187/147/157 186/22/157 463/147/157
f 57/110/36 56/108/36 329/110/36
f 97/81/101 368/81/101 369/78/101
f 257/297/28 256/296/28 533/296/28 534/297/28
f 198/23/50 474/23/50 475/24/50
f 237/197/25 236/196/25 512/196/25 513/197/25
f 70/112/37 69/111/37 342/112/37
f 245/199/28 248/198/28 523/198/28 524/199/28
f 95/158/191 94/82/191 367/158/191
f 247/201/25 246/200/25 521/200/25 522/201/25
f 58/114/46 57/113/82 329/113/46 330/114/82
f 69/326/47 341/326/47 342/111/47
f 223/203/28 222/202/28 498/202/28 499/203/28
f 198/27/56 475/27/56 435/28/56
f 186/29/57 462/29/57 463/25/57
f 97/160/108 96/159/108 368/160/108
f 96/159/32 95/161/32 367/161/32 368/159/32
f 126/84/25 125/83/25 398/83/25 399/84/25
f 199/31/192 198/28/192 435/31/192
f 186/29/61 185/30/61 462/29/61
f 127/31/38 126/84/38 399/84/38 400/31/38
f 59/117/50 58/116/50 330/117/50
f 69/119/193 340/119/193 341/115/193
f 118/40/164 127/31/164 400/31/164 391/40/164
f 119/86/25 118/40/25 391/40/25 392/86/25
f 69/119/89 68/118/89 340/119/89
f 120/87/38 119/86/38 392/86/38 393/87/38
f 35/1/169 307/1/169 308/317/169
f 121/88/28 120/87/28 393/87/28 394/88/28
f 59/120/194 330/120/194 331/122/194
f 125/83/32 124/89/32 397/89/32 398/83/32
f 36/316/38 35/317/38 308/317/38 309/316/38
f 124/89/28 123/85/28 396/85/28 397/89/28
f 123/85/166 122/90/166 395/90/166 396/85/166
f 164/33/32 163/32/32 438/32/32 439/33/32
f 60/123/56 59/122/56 331/122/56 332/123/56
f 122/90/32 121/88/32 394/88/32 395/90/32
f 37/3/59 36/2/59 309/3/59
f 68/121/57 67/124/57 339/124/57 340/121/57
f 35/1/195 34/4/195 307/1/195
f 129/329/38 128/40/38 401/40/38 402/329/38
f 129/329/196 402/329/196 403/328/196
f 128/163/62 156/162/62 430/162/62 401/163/62
f 37/142/167 309/142/167 310/144/167
f 34/5/12 306/5/12 307/318/12
f 77/128/32 76/127/32 348/127/32 349/128/32
f 130/167/197 129/166/197 403/167/197
f 38/7/66 37/6/66 310/7/66
f 34/5/135 33/8/135 305/8/135 306/5/135
f 272/300/38 271/298/38 546/298/38 547/300/38
f 130/167/198 403/167/198 404/170/198
