# Blender 4.5.3 LTS
# www.blender.org
mtllib poly00149obj.mtl
o Text.001
v -3.769956 0.484570 0.000002
v -3.769956 0.437865 0.000002
v -3.659031 0.437865 0.000002
v -3.658990 0.485503 0.000002
v -3.279590 0.485503 0.000002
v -3.281534 0.111105 0.000002
v -3.658381 0.112686 0.000002
v -3.659031 0.229358 0.000002
v -3.523084 0.229358 0.000002
v -3.523084 0.339450 0.000002
v -3.769956 0.339450 0.000002
v -3.769719 0.107969 0.000002
v -3.767819 0.092655 0.000002
v -3.764020 0.078153 0.000002
v -3.754759 0.057919 0.000002
v -3.746210 0.045443 0.000002
v -3.735761 0.033778 0.000002
v -3.723970 0.023457 0.000002
v -3.711390 0.015013 0.000002
v -3.691044 0.005864 0.000002
v -3.668926 0.000938 0.000002
v -3.653193 0.000000 0.000002
v -3.277425 0.000235 0.000002
v -3.262111 0.002111 0.000002
v -3.247608 0.005864 0.000002
v -3.227375 0.015013 0.000002
v -3.214899 0.023457 0.000002
v -3.197839 0.039509 0.000002
v -3.188456 0.051579 0.000002
v -3.180949 0.064461 0.000002
v -3.173209 0.085303 0.000002
v -3.170394 0.100211 0.000002
v -3.169456 0.115930 0.000002
v -3.169456 0.484570 0.000002
v -3.171568 0.507845 0.000002
v -3.177901 0.529295 0.000002
v -3.192913 0.555057 0.000002
v -3.208966 0.572117 0.000002
v -3.221036 0.581500 0.000002
v -3.233917 0.589006 0.000002
v -3.254759 0.596747 0.000002
v -3.269667 0.599562 0.000002
v -3.285386 0.600500 0.000002
v -3.661156 0.600266 0.000002
v -3.683866 0.596747 0.000002
v -3.698021 0.592056 0.000002
v -3.717776 0.581500 0.000002
v -3.729962 0.572117 0.000002
v -3.741223 0.560991 0.000002
v -3.750722 0.548921 0.000002
v -3.758321 0.536040 0.000002
v -3.766157 0.515198 0.000002
v -3.769006 0.500290 0.000002
v -2.965119 0.160133 0.000002
v -2.965119 0.600500 0.000002
v -3.076045 0.600500 0.000002
v -3.076045 0.000000 0.000002
v -2.955945 0.000000 0.000002
v -2.585636 0.440367 0.000002
v -2.585636 0.000000 0.000002
v -2.475545 0.000000 0.000002
v -2.475545 0.600500 0.000002
v -2.595645 0.600500 0.000002
v -1.895895 0.600500 0.000002
v -2.271665 0.600266 0.000002
v -2.287002 0.598389 0.000002
v -2.301551 0.594636 0.000002
v -2.328285 0.581500 0.000002
v -2.340471 0.572117 0.000002
v -2.351732 0.560991 0.000002
v -2.361231 0.548921 0.000002
v -2.371917 0.529295 0.000002
v -2.379515 0.500290 0.000002
v -2.380466 0.484570 0.000002
v -2.380466 0.000000 0.000002
v -2.269540 0.000000 0.000002
v -2.269540 0.201835 0.000002
v -1.890057 0.201835 0.000002
v -1.890057 0.000000 0.000002
v -1.779965 0.000000 0.000002
v -1.779965 0.484570 0.000002
v -1.780904 0.500290 0.000002
v -1.783719 0.515198 0.000002
v -1.791459 0.536040 0.000002
v -1.798966 0.548921 0.000002
v -1.808348 0.560991 0.000002
v -1.819474 0.572117 0.000002
v -1.837884 0.585488 0.000002
v -1.858117 0.594636 0.000002
v -1.872620 0.598389 0.000002
v -1.890057 0.311927 0.000002
v -2.269540 0.311927 0.000002
v -2.269377 0.486354 0.000002
v -1.890098 0.485503 0.000002
v -1.686554 0.484570 0.000002
v -1.686554 0.437865 0.000002
v -1.575628 0.437865 0.000002
v -1.575628 0.484570 0.000002
v -1.196187 0.485503 0.000002
v -1.201983 0.110092 0.000002
v -1.575586 0.114997 0.000002
v -1.575628 0.229358 0.000002
v -1.439681 0.229358 0.000002
v -1.439681 0.339450 0.000002
v -1.686554 0.339450 0.000002
v -1.686316 0.107969 0.000002
v -1.684417 0.092655 0.000002
v -1.680617 0.078153 0.000002
v -1.671356 0.057919 0.000002
v -1.662807 0.045443 0.000002
v -1.652359 0.033778 0.000002
v -1.640567 0.023457 0.000002
v -1.627988 0.015013 0.000002
v -1.607641 0.005864 0.000002
v -1.593093 0.002111 0.000002
v -1.577756 0.000235 0.000002
v -1.194022 0.000235 0.000002
v -1.178709 0.002111 0.000002
v -1.164206 0.005864 0.000002
v -1.143972 0.015013 0.000002
v -1.125563 0.028383 0.000002
v -1.114436 0.039509 0.000002
v -1.105053 0.051579 0.000002
v -1.091917 0.078153 0.000002
v -1.088165 0.092655 0.000002
v -1.086288 0.107969 0.000002
v -1.086054 0.484570 0.000002
v -1.088165 0.507845 0.000002
v -1.091918 0.522348 0.000002
v -1.101066 0.542582 0.000002
v -1.109511 0.555057 0.000002
v -1.119832 0.566722 0.000002
v -1.131497 0.577043 0.000002
v -1.157258 0.592056 0.000002
v -1.186264 0.599562 0.000002
v -1.201983 0.600500 0.000002
v -1.577754 0.600266 0.000002
v -1.593090 0.598389 0.000002
v -1.621400 0.589006 0.000002
v -1.634373 0.581500 0.000002
v -1.646559 0.572117 0.000002
v -1.657820 0.560991 0.000002
v -1.667319 0.548921 0.000002
v -1.674918 0.536040 0.000002
v -1.682754 0.515198 0.000002
v -1.685604 0.500290 0.000002
v -0.881716 0.160133 0.000001
v -0.881716 0.600500 0.000001
v -0.992642 0.600500 0.000002
v -0.992642 0.000000 0.000002
v -0.872542 0.000000 0.000001
v -0.502234 0.440367 0.000001
v -0.502234 0.000000 0.000001
v -0.392142 0.000000 0.000001
v -0.392142 0.600500 0.000001
v -0.512242 0.600500 0.000001
v 0.184172 0.600500 0.000001
v -0.184469 0.600500 0.000001
v -0.199944 0.599562 0.000001
v -0.221768 0.594636 0.000001
v -0.241924 0.585488 0.000001
v -0.254434 0.577043 0.000001
v -0.266204 0.566722 0.000001
v -0.276652 0.555057 0.000001
v -0.285201 0.542582 0.000001
v -0.296599 0.515198 0.000001
v -0.299449 0.500290 0.000001
v -0.300399 0.484570 0.000001
v -0.300399 0.115930 0.000001
v -0.298261 0.092655 0.000001
v -0.291850 0.071205 0.000001
v -0.281164 0.051579 0.000001
v -0.271665 0.039509 0.000001
v -0.260412 0.028383 0.000001
v -0.248272 0.019000 0.000001
v -0.221768 0.005864 0.000001
v -0.199945 0.000938 0.000001
v -0.184469 0.000000 0.000001
v 0.184172 0.000000 0.000001
v 0.199891 0.000938 0.000001
v 0.214799 0.003753 0.000001
v 0.235641 0.011494 0.000001
v 0.248522 0.019000 0.000001
v 0.260592 0.028383 0.000001
v 0.271719 0.039509 0.000001
v 0.281101 0.051579 0.000001
v 0.294237 0.078153 0.000001
v 0.297991 0.092655 0.000001
v 0.299867 0.107969 0.000001
v 0.300102 0.484570 0.000001
v 0.299163 0.500290 0.000001
v 0.296349 0.515198 0.000001
v 0.285089 0.542582 0.000001
v 0.276645 0.555057 0.000001
v 0.266324 0.566722 0.000001
v 0.254659 0.577043 0.000001
v 0.235641 0.589006 0.000001
v 0.214799 0.596747 0.000001
v 0.199891 0.599562 0.000001
v 0.184172 0.110092 0.000001
v -0.189438 0.114997 0.000001
v -0.189473 0.484570 0.000001
v 0.184172 0.490409 0.000001
v 0.390177 0.437865 0.000001
v 0.501103 0.437865 0.000001
v 0.501467 0.487125 0.000001
v 0.877301 0.490044 0.000001
v 0.880585 0.115930 0.000001
v 0.502562 0.111551 0.000001
v 0.501103 0.229358 0.000001
v 0.637049 0.229358 0.000001
v 0.637049 0.339450 0.000001
v 0.390177 0.339450 0.000001
v 0.390414 0.107969 0.000001
v 0.392314 0.092655 0.000001
v 0.398726 0.071205 0.000001
v 0.413923 0.045443 0.000001
v 0.424372 0.033778 0.000001
v 0.436164 0.023457 0.000001
v 0.448744 0.015013 0.000001
v 0.476267 0.003753 0.000001
v 0.491210 0.000938 0.000001
v 0.506941 0.000000 0.000001
v 0.874747 0.000000 0.000001
v 0.898022 0.002111 0.000001
v 0.926217 0.011494 0.000001
v 0.939098 0.019000 0.000001
v 0.951168 0.028383 0.000001
v 0.962294 0.039509 0.000001
v 0.971677 0.051579 0.000001
v 0.979183 0.064461 0.000001
v 0.986924 0.085303 0.000001
v 0.989739 0.100211 0.000001
v 0.990677 0.115930 0.000001
v 0.990677 0.484570 0.000001
v 0.989739 0.500290 0.000001
v 0.986924 0.515198 0.000001
v 0.979183 0.536040 0.000001
v 0.971677 0.548921 0.000001
v 0.962294 0.560991 0.000001
v 0.951168 0.572117 0.000001
v 0.939098 0.581500 0.000001
v 0.912525 0.594636 0.000001
v 0.898022 0.598389 0.000001
v 0.882708 0.600266 0.000001
v 0.506941 0.600500 0.000001
v 0.491210 0.599562 0.000001
v 0.476267 0.596747 0.000001
v 0.448744 0.585488 0.000001
v 0.436164 0.577043 0.000001
v 0.424372 0.566722 0.000001
v 0.409412 0.548921 0.000001
v 0.401813 0.536040 0.000001
v 0.393976 0.515198 0.000001
v 0.390414 0.492531 0.000001
v 1.161653 0.600500 0.000001
v 1.029877 0.600500 0.000001
v 1.307608 0.224354 0.000001
v 1.307608 0.000000 0.000001
v 1.417700 0.000000 0.000001
v 1.417700 0.224354 0.000001
v 1.695431 0.600500 0.000001
v 1.564489 0.600500 0.000001
v 1.362654 0.345288 0.000001
v 2.311778 0.000000 0.000000
v 2.311778 0.601334 -0.000000
v 2.201686 0.601334 -0.000000
v 2.201686 0.110092 -0.000000
v 1.711278 0.110092 0.000001
v 1.711278 0.000000 0.000001
v 2.520285 0.600500 -0.000000
v 2.504809 0.599562 -0.000000
v 2.482986 0.594636 -0.000000
v 2.462830 0.585488 -0.000000
v 2.450320 0.577043 -0.000000
v 2.438550 0.566722 -0.000000
v 2.428102 0.555057 -0.000000
v 2.415991 0.536040 -0.000000
v 2.408155 0.515198 -0.000000
v 2.405305 0.500290 -0.000000
v 2.404355 0.484570 -0.000000
v 2.404593 0.107969 -0.000000
v 2.406492 0.092655 -0.000000
v 2.412904 0.071205 -0.000000
v 2.423590 0.051579 -0.000000
v 2.433089 0.039509 -0.000000
v 2.444342 0.028383 -0.000000
v 2.456482 0.019000 -0.000000
v 2.482986 0.005864 -0.000000
v 2.504809 0.000938 -0.000000
v 2.520285 0.000000 0.000000
v 2.888926 0.000000 0.000000
v 2.904645 0.000938 -0.000000
v 2.919553 0.003753 -0.000000
v 2.940395 0.011494 -0.000000
v 2.953276 0.019000 -0.000000
v 2.965347 0.028383 -0.000000
v 2.981399 0.045443 -0.000000
v 2.993362 0.064461 -0.000000
v 3.001103 0.085303 -0.000000
v 3.003917 0.100211 -0.000000
v 3.004856 0.115930 -0.000000
v 3.004621 0.492531 -0.000000
v 3.002745 0.507845 -0.000000
v 2.996411 0.529295 -0.000000
v 2.981399 0.555057 -0.000000
v 2.971078 0.566722 -0.000000
v 2.959413 0.577043 -0.000000
v 2.946937 0.585488 -0.000000
v 2.926703 0.594636 -0.000000
v 2.912200 0.598389 -0.000000
v 2.896887 0.600266 -0.000000
v 2.888926 0.110092 -0.000000
v 2.520285 0.110092 -0.000000
v 2.518096 0.490044 -0.000000
v 2.891480 0.490044 -0.000000
v 3.662904 0.599666 -0.000000
v 3.171204 0.599429 -0.000000
v 3.155867 0.597529 -0.000000
v 3.141318 0.593730 -0.000000
v 3.114583 0.580432 -0.000000
v 3.102396 0.570933 -0.000000
v 3.091137 0.559679 -0.000000
v 3.081639 0.547540 -0.000000
v 3.074040 0.534659 -0.000000
v 3.066203 0.513947 -0.000000
v 3.063354 0.499212 -0.000000
v 3.062404 0.483736 -0.000000
v 3.062404 0.321935 -0.000000
v 3.063354 0.306459 -0.000000
v 3.066203 0.291725 -0.000000
v 3.077601 0.264480 -0.000000
v 3.086150 0.251969 -0.000000
v 3.096599 0.240200 -0.000000
v 3.108391 0.229752 -0.000000
v 3.120971 0.221203 -0.000000
v 3.134339 0.214554 -0.000000
v 3.148494 0.209804 -0.000000
v 3.163437 0.206955 -0.000000
v 3.179168 0.206005 -0.000000
v 3.552812 0.206005 -0.000000
v 3.552812 0.000000 0.000000
v 3.662904 0.000000 0.000000
v 3.179168 0.489575 -0.000000
v 3.551353 0.488115 -0.000000
v 3.551799 0.318083 -0.000000
v 3.173370 0.321002 -0.000000
v -3.769956 0.484570 -0.230902
v -3.769956 0.437865 -0.230902
v -3.659031 0.437865 -0.230902
v -3.658990 0.485503 -0.230902
v -3.279590 0.485503 -0.230902
v -3.282831 0.110457 -0.230902
v -3.657043 0.111105 -0.230902
v -3.659031 0.229358 -0.230902
v -3.523084 0.229358 -0.230902
v -3.523084 0.339450 -0.230902
v -3.769956 0.339450 -0.230902
v -3.769956 0.115930 -0.230902
v -3.769006 0.100211 -0.230902
v -3.764020 0.078153 -0.230902
v -3.754759 0.057919 -0.230902
v -3.746210 0.045443 -0.230902
v -3.735761 0.033778 -0.230902
v -3.723970 0.023457 -0.230902
v -3.698023 0.008445 -0.230902
v -3.683868 0.003753 -0.230902
v -3.668926 0.000938 -0.230902
v -3.653193 -0.000000 -0.230902
v -3.285386 -0.000000 -0.230902
v -3.269667 0.000938 -0.230902
v -3.254759 0.003753 -0.230902
v -3.227375 0.015013 -0.230902
v -3.214899 0.023457 -0.230902
v -3.203234 0.033778 -0.230902
v -3.192913 0.045443 -0.230902
v -3.177900 0.071205 -0.230902
v -3.171567 0.092655 -0.230902
v -3.169690 0.107969 -0.230902
v -3.169456 0.484570 -0.230902
v -3.170395 0.500290 -0.230902
v -3.177901 0.529295 -0.230902
v -3.188456 0.548921 -0.230902
v -3.197839 0.560991 -0.230902
v -3.208966 0.572117 -0.230902
v -3.221036 0.581500 -0.230902
v -3.247608 0.594636 -0.230902
v -3.262111 0.598389 -0.230902
v -3.285386 0.600500 -0.230902
v -3.653193 0.600500 -0.230902
v -3.668923 0.599562 -0.230902
v -3.683866 0.596747 -0.230902
v -3.704803 0.589006 -0.230902
v -3.723967 0.577043 -0.230902
v -3.735761 0.566722 -0.230902
v -3.746210 0.555057 -0.230902
v -3.754759 0.542582 -0.230902
v -3.764020 0.522348 -0.230902
v -3.769006 0.500290 -0.230902
v -2.965119 0.160133 -0.230902
v -2.965119 0.600500 -0.230902
v -3.076045 0.600500 -0.230902
v -3.076045 -0.000000 -0.230902
v -2.955945 -0.000000 -0.230902
v -2.585636 0.440367 -0.230902
v -2.585636 -0.000000 -0.230902
v -2.475545 -0.000000 -0.230902
v -2.475545 0.600500 -0.230902
v -2.595645 0.600500 -0.230902
v -1.895895 0.600500 -0.230903
v -2.271665 0.600266 -0.230903
v -2.294375 0.596747 -0.230903
v -2.315312 0.589006 -0.230903
v -2.328285 0.581500 -0.230903
v -2.340471 0.572117 -0.230903
v -2.351732 0.560991 -0.230903
v -2.361231 0.548921 -0.230903
v -2.371917 0.529295 -0.230903
v -2.379515 0.500290 -0.230902
v -2.380466 0.484570 -0.230902
v -2.380466 -0.000000 -0.230902
v -2.269540 -0.000000 -0.230903
v -2.269540 0.201835 -0.230903
v -1.890057 0.201835 -0.230903
v -1.890057 -0.000000 -0.230903
v -1.779965 -0.000000 -0.230903
v -1.779965 0.484570 -0.230903
v -1.782077 0.507845 -0.230903
v -1.788410 0.529295 -0.230903
v -1.803423 0.555057 -0.230903
v -1.813743 0.566722 -0.230903
v -1.825408 0.577043 -0.230903
v -1.837884 0.585488 -0.230903
v -1.858117 0.594636 -0.230903
v -1.872620 0.598389 -0.230903
v -1.890057 0.311927 -0.230903
v -2.269540 0.311927 -0.230903
v -2.269377 0.486354 -0.230903
v -1.890219 0.486354 -0.230903
v -1.686554 0.484570 -0.230903
v -1.686554 0.437865 -0.230903
v -1.575628 0.437865 -0.230903
v -1.575588 0.485503 -0.230903
v -1.196309 0.486354 -0.230903
v -1.201983 0.110092 -0.230903
v -1.575586 0.114997 -0.230903
v -1.575628 0.229358 -0.230903
v -1.439681 0.229358 -0.230903
v -1.439681 0.339450 -0.230903
v -1.686554 0.339450 -0.230903
v -1.686554 0.115930 -0.230903
v -1.684417 0.092655 -0.230903
v -1.680617 0.078153 -0.230903
v -1.671356 0.057919 -0.230903
v -1.662807 0.045443 -0.230903
v -1.652359 0.033778 -0.230903
v -1.640567 0.023457 -0.230903
v -1.627988 0.015013 -0.230903
v -1.600466 0.003753 -0.230903
v -1.585523 0.000938 -0.230903
v -1.569790 -0.000000 -0.230903
v -1.201983 -0.000000 -0.230903
v -1.186264 0.000938 -0.230903
v -1.164206 0.005864 -0.230903
v -1.143972 0.015013 -0.230903
v -1.125563 0.028383 -0.230903
v -1.114436 0.039509 -0.230903
v -1.105053 0.051579 -0.230903
v -1.097547 0.064461 -0.230903
v -1.089806 0.085303 -0.230903
v -1.086992 0.100211 -0.230903
v -1.086054 0.115930 -0.230903
v -1.086054 0.484570 -0.230903
v -1.088165 0.507845 -0.230903
v -1.097547 0.536040 -0.230903
v -1.105054 0.548921 -0.230903
v -1.114437 0.560991 -0.230903
v -1.131497 0.577043 -0.230903
v -1.143972 0.585488 -0.230903
v -1.164206 0.594636 -0.230903
v -1.178709 0.598389 -0.230903
v -1.201983 0.600500 -0.230903
v -1.569790 0.600500 -0.230903
v -1.585521 0.599562 -0.230903
v -1.600463 0.596747 -0.230903
v -1.627985 0.585488 -0.230903
v -1.640565 0.577043 -0.230903
v -1.652359 0.566722 -0.230903
v -1.662807 0.555057 -0.230903
v -1.678005 0.529295 -0.230903
v -1.684417 0.507845 -0.230903
v -0.881716 0.160133 -0.230903
v -0.881716 0.600500 -0.230903
v -0.992642 0.600500 -0.230903
v -0.992642 -0.000000 -0.230903
v -0.872542 -0.000000 -0.230903
v -0.502234 0.440367 -0.230903
v -0.502234 -0.000000 -0.230903
v -0.392142 -0.000000 -0.230903
v -0.392142 0.600500 -0.230903
v -0.512242 0.600500 -0.230903
v 0.184172 0.600500 -0.230903
v -0.192299 0.600266 -0.230903
v -0.207404 0.598389 -0.230903
v -0.241924 0.585488 -0.230903
v -0.254434 0.577043 -0.230903
v -0.271665 0.560991 -0.230903
v -0.281164 0.548921 -0.230903
v -0.291850 0.529295 -0.230903
v -0.298261 0.507845 -0.230903
v -0.300399 0.484570 -0.230903
v -0.300161 0.107969 -0.230903
v -0.298261 0.092655 -0.230903
v -0.294462 0.078153 -0.230903
v -0.281164 0.051579 -0.230903
v -0.271665 0.039509 -0.230903
v -0.260412 0.028383 -0.230903
v -0.248272 0.019000 -0.230903
v -0.228672 0.008445 -0.230903
v -0.207405 0.002111 -0.230903
v -0.192300 0.000235 -0.230903
v 0.184172 -0.000000 -0.230903
v 0.207446 0.002111 -0.230903
v 0.235641 0.011494 -0.230903
v 0.248522 0.019000 -0.230903
v 0.260592 0.028383 -0.230903
v 0.271719 0.039509 -0.230903
v 0.281101 0.051579 -0.230903
v 0.288608 0.064461 -0.230903
v 0.296349 0.085303 -0.230903
v 0.299163 0.100211 -0.230903
v 0.300102 0.115930 -0.230903
v 0.300102 0.484570 -0.230903
v 0.299163 0.500290 -0.230903
v 0.296349 0.515198 -0.230903
v 0.285089 0.542582 -0.230903
v 0.271719 0.560991 -0.230903
v 0.254659 0.577043 -0.230903
v 0.242183 0.585488 -0.230903
v 0.214799 0.596747 -0.230903
v 0.199891 0.599562 -0.230903
v -0.189473 0.115930 -0.230903
v -0.189334 0.486354 -0.230903
v 0.185104 0.490368 -0.230903
v 0.185104 0.110132 -0.230903
v 0.390177 0.484570 -0.230903
v 0.390177 0.437865 -0.230903
v 0.501103 0.437865 -0.230903
v 0.501103 0.484570 -0.230903
v 0.878599 0.489395 -0.230904
v 0.876531 0.110254 -0.230904
v 0.506008 0.110132 -0.230903
v 0.501103 0.229358 -0.230903
v 0.637049 0.229358 -0.230903
v 0.637049 0.339450 -0.230903
v 0.390177 0.339450 -0.230903
v 0.390177 0.115930 -0.230903
v 0.391127 0.100211 -0.230903
v 0.398726 0.071205 -0.230903
v 0.413923 0.045443 -0.230903
v 0.424372 0.033778 -0.230903
v 0.442356 0.019000 -0.230903
v 0.455329 0.011494 -0.230903
v 0.476267 0.003753 -0.230903
v 0.491210 0.000938 -0.230903
v 0.506941 -0.000000 -0.230903
v 0.882708 0.000235 -0.230904
v 0.898022 0.002111 -0.230904
v 0.912525 0.005864 -0.230904
v 0.932759 0.015013 -0.230904
v 0.945235 0.023457 -0.230904
v 0.956899 0.033778 -0.230904
v 0.967220 0.045443 -0.230904
v 0.979183 0.064461 -0.230904
v 0.988566 0.092655 -0.230904
v 0.990443 0.107969 -0.230904
v 0.990677 0.484570 -0.230904
v 0.988566 0.507845 -0.230904
v 0.984813 0.522348 -0.230904
v 0.971677 0.548921 -0.230904
v 0.962294 0.560991 -0.230904
v 0.951168 0.572117 -0.230904
v 0.939098 0.581500 -0.230904
v 0.926217 0.589006 -0.230904
v 0.905375 0.596747 -0.230904
v 0.890466 0.599562 -0.230904
v 0.874747 0.600500 -0.230904
v 0.506941 0.600500 -0.230903
v 0.491210 0.599562 -0.230903
v 0.469091 0.594636 -0.230903
v 0.448744 0.585488 -0.230903
v 0.436164 0.577043 -0.230903
v 0.418910 0.560991 -0.230903
v 0.405375 0.542582 -0.230903
v 0.396114 0.522348 -0.230903
v 0.392314 0.507845 -0.230903
v 1.161653 0.600500 -0.230904
v 1.029877 0.600500 -0.230904
v 1.307608 0.224354 -0.230904
v 1.307608 -0.000000 -0.230904
v 1.417700 -0.000000 -0.230904
v 1.417700 0.224354 -0.230904
v 1.695431 0.600500 -0.230904
v 1.564489 0.600500 -0.230904
v 1.362654 0.345288 -0.230904
v 2.311778 -0.000000 -0.230904
v 2.311778 0.601334 -0.230904
v 2.201686 0.601334 -0.230904
v 2.201686 0.110092 -0.230904
v 1.711278 0.110092 -0.230904
v 1.711278 -0.000000 -0.230904
v 2.512455 0.600266 -0.230904
v 2.482985 0.594636 -0.230904
v 2.462830 0.585488 -0.230904
v 2.444342 0.572117 -0.230904
v 2.433089 0.560991 -0.230904
v 2.423590 0.548921 -0.230904
v 2.415991 0.536040 -0.230904
v 2.406493 0.507845 -0.230904
v 2.404355 0.484570 -0.230904
v 2.404355 0.115930 -0.230904
v 2.405305 0.100211 -0.230904
v 2.408154 0.085303 -0.230904
v 2.415991 0.064461 -0.230904
v 2.423590 0.051579 -0.230904
v 2.433088 0.039509 -0.230904
v 2.444342 0.028383 -0.230904
v 2.456482 0.019000 -0.230904
v 2.469363 0.011494 -0.230904
v 2.490075 0.003753 -0.230904
v 2.504809 0.000938 -0.230904
v 2.520285 -0.000000 -0.230904
v 2.896887 0.000235 -0.230904
v 2.912200 0.002111 -0.230904
v 2.940395 0.011494 -0.230904
v 2.953276 0.019000 -0.230904
v 2.971077 0.033778 -0.230904
v 2.981399 0.045443 -0.230904
v 2.989843 0.057919 -0.230904
v 3.001103 0.085303 -0.230904
v 3.003917 0.100211 -0.230904
v 3.004856 0.115930 -0.230904
v 3.004621 0.492531 -0.230904
v 3.002745 0.507845 -0.230904
v 2.993362 0.536040 -0.230904
v 2.985856 0.548921 -0.230904
v 2.976473 0.560991 -0.230904
v 2.965347 0.572117 -0.230904
v 2.953276 0.581500 -0.230904
v 2.926703 0.594636 -0.230904
v 2.912200 0.598389 -0.230904
v 2.896887 0.600266 -0.230904
v 2.515837 0.112686 -0.230904
v 2.515316 0.485503 -0.230904
v 2.888926 0.490409 -0.230904
v 2.889858 0.110132 -0.230904
v 3.662904 0.599666 -0.230904
v 3.171204 0.599429 -0.230904
v 3.155867 0.597529 -0.230904
v 3.134339 0.591118 -0.230904
v 3.120971 0.584469 -0.230904
v 3.102396 0.570933 -0.230904
v 3.091137 0.559679 -0.230904
v 3.081639 0.547540 -0.230904
v 3.070953 0.527940 -0.230904
v 3.064541 0.506672 -0.230904
v 3.062641 0.491567 -0.230904
v 3.062404 0.321935 -0.230904
v 3.063354 0.306459 -0.230904
v 3.066203 0.291725 -0.230904
v 3.077601 0.264480 -0.230904
v 3.086150 0.251969 -0.230904
v 3.096599 0.240200 -0.230904
v 3.108391 0.229752 -0.230904
v 3.127556 0.217641 -0.230904
v 3.148494 0.209804 -0.230904
v 3.163437 0.206955 -0.230904
v 3.179168 0.206005 -0.230904
v 3.552812 0.206005 -0.230904
v 3.552812 -0.000000 -0.230904
v 3.662904 -0.000000 -0.230904
v 3.173694 0.486291 -0.230904
v 3.551799 0.487588 -0.230904
v 3.552812 0.321935 -0.230904
v 3.173370 0.321002 -0.230904
vn -0.0000 -0.0000 1.0000
vn -0.0000 -0.0003 1.0000
vn -0.0000 -0.0000 -1.0000
vn -0.0000 -0.0003 -1.0000
vn -0.0000 0.0003 -1.0000
vn 0.0004 -0.0661 -0.9978
vn -0.0000 -0.0001 -1.0000
vn 0.3481 0.9374 -0.0000
vn -0.9957 -0.0929 -0.0000
vn 0.4736 0.8807 -0.0000
vn -0.5296 0.8483 -0.0000
vn -0.9749 -0.2227 -0.0000
vn 0.5325 0.8464 -0.0000
vn -0.5843 0.8116 -0.0000
vn -0.9353 -0.3539 -0.0000
vn 0.5877 0.8091 -0.0000
vn -0.9087 -0.4175 -0.0000
vn -0.5320 0.8468 -0.0000
vn -0.6349 0.7726 -0.0000
vn 0.6388 0.7694 -0.0000
vn -0.8438 -0.5366 -0.0000
vn 0.5876 0.8091 -0.0000
vn -0.6811 0.7321 -0.0000
vn -0.8069 -0.5907 -0.0000
vn -0.7678 -0.6406 -0.0000
vn 0.7281 0.6854 -0.0000
vn 1.0000 -0.0001 -0.0001
vn -0.7275 -0.6861 -0.0000
vn -1.0000 -0.0000 -0.0000
vn -0.6816 0.7317 -0.0000
vn 1.0000 -0.0000 -0.0000
vn 0.6854 0.7282 -0.0000
vn -0.7655 0.6434 -0.0000
vn -0.6395 -0.7688 -0.0000
vn -0.0000 -1.0000 -0.0000
vn -0.5889 -0.8082 -0.0000
vn -0.8057 0.5924 -0.0000
vn -0.5342 -0.8453 -0.0000
vn -0.7240 0.6898 -0.0000
vn 0.8091 0.5877 -0.0000
vn -0.0000 1.0000 -0.0000
vn -0.4758 -0.8796 -0.0000
vn 0.7694 0.6387 -0.0000
vn -0.8435 0.5372 -0.0000
vn 0.8465 0.5324 -0.0000
vn -0.8056 0.5924 -0.0000
vn 0.8091 0.5876 -0.0001
vn 0.8092 0.5876 -0.0001
vn -0.8783 0.4782 -0.0000
vn 0.9996 -0.0294 -0.0000
vn -0.2855 -0.9584 -0.0000
vn -0.2856 -0.9584 -0.0000
vn 0.8464 0.5325 -0.0000
vn -0.1549 -0.9879 -0.0000
vn -1.0000 -0.0001 -0.0000
vn -0.0298 -0.9996 -0.0000
vn -0.9093 0.4162 -0.0000
vn 0.9112 0.4119 -0.0000
vn -0.9581 0.2864 -0.0000
vn -0.0023 -1.0000 -0.0000
vn -0.9754 0.2204 -0.0000
vn -0.9754 0.2205 -0.0000
vn 0.9760 0.2178 -0.0000
vn -0.9958 0.0915 -0.0000
vn 0.9959 0.0903 -0.0000
vn -0.0294 0.9996 -0.0000
vn 0.9882 0.1533 -0.0000
vn 0.0904 0.9959 -0.0000
vn 0.0903 0.9959 -0.0000
vn -0.9958 0.0914 -0.0000
vn -0.1531 0.9882 -0.0000
vn 0.9959 0.0904 -0.0000
vn 0.2180 0.9760 -0.0000
vn -0.2822 0.9593 -0.0000
vn -0.3468 0.9380 -0.0000
vn -0.5295 0.8483 -0.0000
vn -0.9958 -0.0915 -0.0000
vn 0.9959 -0.0904 -0.0000
vn -0.5842 0.8116 -0.0000
vn -0.9878 -0.1555 -0.0000
vn -0.9754 -0.2205 -0.0000
vn 0.9760 -0.2180 -0.0000
vn -0.6811 0.7322 -0.0000
vn 0.6854 0.7281 -0.0000
vn 0.9591 -0.2831 -0.0000
vn 0.9591 -0.2832 -0.0000
vn 0.8807 -0.4736 -0.0000
vn -0.8435 0.5371 -0.0000
vn -0.8436 -0.5370 -0.0000
vn 0.8465 -0.5324 -0.0001
vn 0.8807 0.4737 -0.0000
vn 0.7694 -0.6387 -0.0000
vn 1.0000 -0.0001 0.0002
vn -0.7239 -0.6899 -0.0000
vn 0.9996 -0.0295 -0.0000
vn 0.6853 -0.7282 -0.0000
vn 0.9591 0.2832 -0.0000
vn -0.6812 -0.7321 -0.0000
vn 0.6388 -0.7694 -0.0000
vn -0.9754 0.2206 -0.0000
vn 0.9760 0.2179 -0.0000
vn -0.6349 -0.7726 -0.0000
vn -0.9996 -0.0298 -0.0000
vn 0.5876 -0.8091 -0.0000
vn -0.5295 -0.8483 -0.0000
vn 0.5324 -0.8465 -0.0000
vn 0.4737 -0.8807 -0.0000
vn -0.9879 -0.1552 -0.0000
vn 0.9882 -0.1533 -0.0000
vn -0.3469 -0.9379 -0.0000
vn -0.2822 -0.9594 -0.0000
vn 0.2832 -0.9591 -0.0000
vn -0.9581 -0.2864 -0.0000
vn 0.9590 -0.2833 -0.0000
vn 0.9375 -0.3481 -0.0000
vn -0.1531 -0.9882 -0.0000
vn -0.9093 -0.4162 -0.0000
vn 0.0902 -0.9959 -0.0000
vn 0.0903 -0.9959 -0.0000
vn -0.0295 -0.9996 -0.0000
vn -0.8435 -0.5371 -0.0000
vn 0.8045 -0.5940 -0.0000
vn 0.8465 -0.5323 -0.0000
vn -0.7844 0.6203 -0.0000
vn 0.7856 0.6187 -0.0000
vn -0.9958 -0.0914 -0.0000
vn -0.7656 -0.6433 -0.0000
vn -0.9958 -0.0912 -0.0000
vn -0.8045 -0.5940 -0.0000
vn 0.9882 -0.1532 -0.0000
vn 0.7281 -0.6855 -0.0000
vn 0.9882 -0.1534 -0.0000
vn -0.6816 -0.7317 -0.0000
vn 0.6387 -0.7695 -0.0000
vn 0.6387 -0.7694 -0.0000
vn -0.6359 -0.7718 -0.0000
vn 1.0000 -0.0001 0.0001
vn -0.9360 -0.3519 -0.0000
vn -0.5861 -0.8103 -0.0000
vn 1.0000 -0.0001 -0.0000
vn -0.5319 -0.8468 -0.0000
vn -0.0299 0.9996 -0.0000
vn -0.8783 -0.4782 -0.0000
vn 0.8807 -0.4737 -0.0000
vn -0.4742 -0.8804 -0.0000
vn -0.1554 0.9879 -0.0000
vn -0.1553 0.9879 -0.0000
vn 0.1534 0.9882 -0.0000
vn -0.8435 -0.5372 -0.0000
vn 0.4119 -0.9112 -0.0000
vn 0.8465 -0.5324 -0.0000
vn 0.8091 -0.5876 -0.0000
vn -0.8057 -0.5924 -0.0000
vn 0.8091 -0.5877 -0.0000
vn -0.7656 -0.6434 -0.0000
vn 0.2831 0.9591 -0.0000
vn 0.7695 -0.6387 -0.0000
vn -0.2854 -0.9584 -0.0000
vn -0.7655 -0.6434 -0.0000
vn -0.3501 0.9367 -0.0000
vn 0.3482 0.9374 -0.0000
vn 0.7281 -0.6854 -0.0000
vn 0.2179 -0.9760 -0.0000
vn 0.6854 -0.7282 -0.0000
vn -0.1554 -0.9879 -0.0000
vn 0.1534 -0.9882 -0.0000
vn -0.6360 -0.7717 -0.0000
vn -0.0300 -0.9996 -0.0000
vn -0.5860 -0.8103 -0.0000
vn 0.0295 -0.9996 -0.0000
vn -0.5861 0.8103 -0.0000
vn -0.5318 -0.8468 -0.0000
vn 0.5328 -0.8462 -0.0000
vn 0.7281 0.6855 -0.0000
vn 0.4120 -0.9112 -0.0000
vn -0.7242 0.6896 -0.0000
vn -0.7656 0.6434 -0.0000
vn 0.2831 -0.9591 -0.0000
vn -0.2202 -0.9754 -0.0000
vn -0.2174 -0.9761 -0.0000
vn 0.2180 -0.9760 -0.0000
vn -0.1553 -0.9879 -0.0000
vn -0.1549 0.9879 -0.0000
vn -0.1532 -0.9882 -0.0000
vn -0.2199 0.9755 -0.0000
vn -0.2854 0.9584 -0.0000
vn -0.9093 0.4161 -0.0000
vn -0.0300 -0.9995 -0.0000
vn -0.4142 0.9102 -0.0000
vn -0.4758 0.8796 -0.0000
vn -0.5889 0.8082 -0.0000
vn 0.9590 0.2833 -0.0000
vn 0.9760 -0.2178 -0.0000
vn -0.7661 0.6427 -0.0000
vn -0.9581 -0.2863 -0.0000
vn -0.7275 0.6861 -0.0000
vn -0.2174 0.9761 -0.0000
vn -0.7678 0.6407 -0.0000
vn 0.7654 -0.6436 -0.0000
vn -0.9958 0.0913 -0.0000
vn 0.2832 0.9591 -0.0000
vn -0.8438 0.5366 -0.0000
vn 0.9112 -0.4121 -0.0000
vn -0.8780 0.4787 -0.0000
vn -0.3467 0.9380 -0.0000
vn -0.9087 0.4175 -0.0000
vn -0.0903 0.9959 -0.0000
vn -0.9353 0.3538 -0.0000
vn -0.8056 -0.5924 -0.0000
vn -0.9749 0.2227 -0.0000
vn -0.9957 0.0929 -0.0000
vn -0.2822 0.9594 -0.0000
vn -0.9995 0.0303 -0.0000
vn 0.6387 0.7694 -0.0000
vn -0.6813 0.7320 -0.0000
vn 0.6855 0.7281 -0.0000
vn -0.4712 0.8820 -0.0000
vn -0.5843 -0.8116 -0.0000
vn -0.7656 0.6433 0.0001
vn -0.8056 0.5924 -0.0001
vn -0.4713 -0.8820 -0.0000
vn -0.6348 0.7726 -0.0000
vn 0.6853 0.7283 -0.0000
vn 0.8807 0.4736 -0.0000
vn 0.3483 -0.9374 -0.0000
vn 0.9112 0.4120 -0.0000
vn -0.9581 0.2865 -0.0000
vn -0.9995 -0.0303 -0.0000
vn -0.0902 -0.9959 -0.0000
vn 0.9760 0.2180 -0.0000
vn -0.9879 0.1552 -0.0000
vn 0.9882 0.1534 -0.0000
vn -0.9996 -0.0299 -0.0000
vn -0.0917 0.9958 -0.0000
vn 0.4121 0.9112 -0.0000
vn -0.3500 0.9367 -0.0000
vt 0.834395 0.000000
vt 0.840764 0.000000
vt 0.866242 0.000000
vt 0.872611 0.000000
vt 0.828025 0.000000
vt 0.815287 0.000000
vt 0.885350 0.000000
vt 0.891720 0.000000
vt 0.802548 0.000000
vt 0.808917 0.000000
vt 0.898089 0.000000
vt 0.796178 0.000000
vt 0.904459 0.000000
vt 0.910828 0.000000
vt 0.789809 0.000000
vt 0.917197 0.000000
vt 0.783440 0.000000
vt 0.777070 0.000000
vt 0.923567 0.000000
vt 0.929936 0.000000
vt 0.764331 0.000000
vt 0.770701 0.000000
vt 0.757962 0.000000
vt 0.942675 0.000000
vt 0.949045 0.000000
vt 0.751592 0.000000
vt 0.955414 0.000000
vt 0.745223 0.000000
vt 0.726115 0.000000
vt 0.974522 0.000000
vt 0.980892 0.000000
vt 0.719745 0.000000
vt 0.987261 0.000000
vt 0.713376 0.000000
vt 0.707006 0.000000
vt 0.993631 0.000000
vt 1.000000 0.000000
vt 0.700637 0.000000
vt 0.095541 0.000000
vt 0.101911 0.000000
vt 0.687898 0.000000
vt 0.694268 0.000000
vt 0.178344 0.000000
vt 0.184713 0.000000
vt 0.012739 0.000000
vt 0.019108 0.000000
vt 0.000000 0.000000
vt 0.006369 0.000000
vt 0.356688 0.000000
vt 0.363057 0.000000
vt 0.369427 0.000000
vt 0.350318 0.000000
vt 0.375796 0.000000
vt 0.343949 0.000000
vt 0.681529 0.000000
vt 0.261146 0.000000
vt 0.267516 0.000000
vt 0.382166 0.000000
vt 0.388535 0.000000
vt 0.668790 0.000000
vt 0.675159 0.000000
vt 0.394904 0.000000
vt 0.662420 0.000000
vt 0.401274 0.000000
vt 0.407643 0.000000
vt 0.656051 0.000000
vt 0.643312 0.000000
vt 0.420382 0.000000
vt 0.426752 0.000000
vt 0.636943 0.000000
vt 0.433121 0.000000
vt 0.624204 0.000000
vt 0.630573 0.000000
vt 0.439490 0.000000
vt 0.617834 0.000000
vt 0.445860 0.000000
vt 0.452229 0.000000
vt 0.605096 0.000000
vt 0.611465 0.000000
vt 0.598726 0.000000
vt 0.458599 0.000000
vt 0.464968 0.000000
vt 0.592357 0.000000
vt 0.471338 0.000000
vt 0.477707 0.000000
vt 0.585987 0.000000
vt 0.579618 0.000000
vt 0.484076 0.000000
vt 0.573248 0.000000
vt 0.490446 0.000000
vt 0.496815 0.000000
vt 0.560510 0.000000
vt 0.566879 0.000000
vt 0.503185 0.000000
vt 0.509554 0.000000
vt 0.547771 0.000000
vt 0.554140 0.000000
vt 0.515924 0.000000
vt 0.541401 0.000000
vt 0.522293 0.000000
vt 0.528662 0.000000
vt 0.777778 0.000000
vt 0.888889 0.000000
vt 0.555556 0.000000
vt 0.111111 0.000000
vt 0.222222 0.000000
vt 0.333333 0.000000
vt 0.666667 0.000000
vt 0.444444 0.000000
vt 0.662651 0.000000
vt 0.024096 0.000000
vt 0.036145 0.000000
vt 0.650602 0.000000
vt 0.638554 0.000000
vt 0.048193 0.000000
vt 0.060241 0.000000
vt 0.614458 0.000000
vt 0.626506 0.000000
vt 0.072289 0.000000
vt 0.590361 0.000000
vt 0.096386 0.000000
vt 0.108434 0.000000
vt 0.578313 0.000000
vt 0.554217 0.000000
vt 0.566265 0.000000
vt 0.132530 0.000000
vt 0.144578 0.000000
vt 0.542169 0.000000
vt 0.156627 0.000000
vt 0.530120 0.000000
vt 0.518072 0.000000
vt 0.168675 0.000000
vt 0.180723 0.000000
vt 0.493976 0.000000
vt 0.506024 0.000000
vt 0.192771 0.000000
vt 0.204819 0.000000
vt 0.481928 0.000000
vt 0.433735 0.000000
vt 0.445783 0.000000
vt 0.253012 0.000000
vt 0.265060 0.000000
vt 0.409639 0.000000
vt 0.421687 0.000000
vt 0.277108 0.000000
vt 0.289157 0.000000
vt 0.397590 0.000000
vt 0.843373 0.000000
vt 0.855422 0.000000
vt 0.373494 0.000000
vt 0.385542 0.000000
vt 0.674699 0.000000
vt 0.686747 0.000000
vt 0.698795 0.000000
vt 0.301205 0.000000
vt 0.313253 0.000000
vt 0.349398 0.000000
vt 0.337349 0.000000
vt 0.361446 0.000000
vt 0.325301 0.000000
vt 0.821656 0.000000
vt 0.878981 0.000000
vt 0.738854 0.000000
vt 0.961783 0.000000
vt 0.414013 0.000000
vt 0.655629 0.000000
vt 0.006623 0.000000
vt 0.013245 0.000000
vt 0.649007 0.000000
vt 0.019868 0.000000
vt 0.026490 0.000000
vt 0.635762 0.000000
vt 0.642384 0.000000
vt 0.033113 0.000000
vt 0.629139 0.000000
vt 0.039735 0.000000
vt 0.046358 0.000000
vt 0.609272 0.000000
vt 0.059603 0.000000
vt 0.066225 0.000000
vt 0.602649 0.000000
vt 0.589404 0.000000
vt 0.596026 0.000000
vt 0.079470 0.000000
vt 0.086093 0.000000
vt 0.576159 0.000000
vt 0.092715 0.000000
vt 0.569536 0.000000
vt 0.099338 0.000000
vt 0.105960 0.000000
vt 0.556291 0.000000
vt 0.562914 0.000000
vt 0.112583 0.000000
vt 0.549669 0.000000
vt 0.119205 0.000000
vt 0.125828 0.000000
vt 0.543046 0.000000
vt 0.529801 0.000000
vt 0.139073 0.000000
vt 0.145695 0.000000
vt 0.516556 0.000000
vt 0.523179 0.000000
vt 0.152318 0.000000
vt 0.158940 0.000000
vt 0.509934 0.000000
vt 0.834437 0.000000
vt 0.841060 0.000000
vt 0.496689 0.000000
vt 0.503311 0.000000
vt 0.920530 0.000000
vt 0.927152 0.000000
vt 0.748344 0.000000
vt 0.754967 0.000000
vt 0.165563 0.000000
vt 0.172185 0.000000
vt 0.490066 0.000000
vt 0.662252 0.000000
vt 0.668874 0.000000
vt 0.178808 0.000000
vt 0.185430 0.000000
vt 0.476821 0.000000
vt 0.483444 0.000000
vt 0.192053 0.000000
vt 0.470199 0.000000
vt 0.198675 0.000000
vt 0.205298 0.000000
vt 0.450331 0.000000
vt 0.218543 0.000000
vt 0.225166 0.000000
vt 0.443709 0.000000
vt 0.430464 0.000000
vt 0.238411 0.000000
vt 0.245033 0.000000
vt 0.423841 0.000000
vt 0.417219 0.000000
vt 0.251656 0.000000
vt 0.410596 0.000000
vt 0.258278 0.000000
vt 0.403974 0.000000
vt 0.397351 0.000000
vt 0.264901 0.000000
vt 0.271523 0.000000
vt 0.390728 0.000000
vt 0.278146 0.000000
vt 0.284768 0.000000
vt 0.364238 0.000000
vt 0.370861 0.000000
vt 0.304636 0.000000
vt 0.357616 0.000000
vt 0.311258 0.000000
vt 0.317881 0.000000
vt 0.344371 0.000000
vt 0.350993 0.000000
vt 0.324503 0.000000
vt 0.331126 0.000000
vt 0.853503 0.000000
vt 0.859873 0.000000
vt 0.936306 0.000000
vt 0.968153 0.000000
vt 0.732484 0.000000
vt 0.625000 0.000000
vt 0.750000 0.000000
vt 0.875000 0.000000
vt 0.125000 0.000000
vt 0.250000 0.000000
vt 0.500000 0.000000
vt 0.375000 0.000000
vt 0.200000 0.000000
vt 0.400000 0.000000
vt 0.600000 0.000000
vt 0.800000 0.000000
vt 0.622517 0.000000
vt 0.072848 0.000000
vt 0.582781 0.000000
vt 0.536424 0.000000
vt 0.463576 0.000000
vt 0.231788 0.000000
vt 0.437086 0.000000
vt 0.377483 0.000000
vt 0.384106 0.000000
vt 0.291391 0.000000
vt 0.337748 0.000000
vt 0.509434 0.000000
vt 0.745283 0.000000
vt 0.679245 0.000000
vt 0.009434 0.000000
vt 0.028302 0.000000
vt 0.037736 0.000000
vt 0.047170 0.000000
vt 0.669811 0.000000
vt 0.075472 0.000000
vt 0.084906 0.000000
vt 0.094340 0.000000
vt 0.103774 0.000000
vt 0.122642 0.000000
vt 0.132075 0.000000
vt 0.660377 0.000000
vt 0.141509 0.000000
vt 0.160377 0.000000
vt 0.169811 0.000000
vt 0.179245 0.000000
vt 0.650943 0.000000
vt 0.198113 0.000000
vt 0.207547 0.000000
vt 0.226415 0.000000
vt 0.641509 0.000000
vt 0.632075 0.000000
vt 0.235849 0.000000
vt 0.764151 0.000000
vt 0.773585 0.000000
vt 0.518868 0.000000
vt 0.528302 0.000000
vt 0.245283 0.000000
vt 0.886792 0.000000
vt 0.490566 0.000000
vt 0.896226 0.000000
vt 0.254717 0.000000
vt 0.264151 0.000000
vt 0.273585 0.000000
vt 0.283019 0.000000
vt 0.301887 0.000000
vt 0.311321 0.000000
vt 0.330189 0.000000
vt 0.339623 0.000000
vt 0.349057 0.000000
vt 0.367925 0.000000
vt 0.377358 0.000000
vt 0.386792 0.000000
vt 0.396226 0.000000
vt 0.405660 0.000000
vt 0.424528 0.000000
vt 0.433962 0.000000
vt 0.443396 0.000000
vt 0.452830 0.000000
vt 0.462264 0.000000
vt 0.471698 0.000000
vt 0.337580 0.000000
vt 0.120482 0.000000
vt 0.649682 0.000000
vt 0.535032 0.000000
vt 0.132450 0.000000
vt 0.615894 0.000000
vt 0.741722 0.000000
vt 0.456954 0.000000
vt 0.211921 0.000000
vt 0.298013 0.000000
vt 0.056604 0.000000
vt 0.066038 0.000000
vt 0.150943 0.000000
vt 0.188679 0.000000
vt 0.216981 0.000000
vt 0.292453 0.000000
vt 0.320755 0.000000
vt 0.358491 0.000000
vt 0.481132 0.000000
vt 0.847134 0.000000
vt 0.012048 0.000000
s 1
usemtl Material.003
f 42/1/1 43/2/1 44/3/1
f 42/1/1 44/3/1 45/4/1
f 41/5/1 42/1/1 45/4/1
f 41/6/1 45/7/1 46/8/1
f 40/9/1 41/10/1 46/11/1
f 40/12/1 46/13/1 47/14/1
f 39/15/1 40/12/1 47/14/1
f 39/15/1 47/14/1 48/16/1
f 38/17/1 39/15/1 48/16/1
f 38/18/1 48/19/1 49/20/1
f 37/21/1 38/22/1 49/20/1
f 37/23/1 49/24/1 50/25/1
f 37/26/1 50/25/1 51/27/1
f 36/28/1 37/26/1 51/27/1
f 36/29/1 51/30/1 52/31/1
f 36/32/1 52/31/1 53/33/1
f 35/34/1 36/32/1 53/33/1
f 35/35/1 53/36/1 1/37/1
f 34/38/1 35/35/1 1/37/1
f 34/38/1 1/37/1 4/39/1
f 5/40/1 34/38/1 4/39/1
f 33/41/1 34/42/1 5/43/1
f 33/41/1 5/43/1 6/44/1
f 3/45/1 4/46/1 1/47/1
f 3/45/1 1/47/1 2/48/1
f 9/49/1 10/50/1 11/51/1
f 9/49/1 11/51/1 8/52/1
f 8/52/1 11/51/1 12/53/1
f 7/54/1 8/52/1 12/53/1
f 32/55/1 33/41/1 6/44/1
f 32/55/1 6/56/1 7/57/1
f 32/55/1 7/57/1 12/58/1
f 32/55/1 12/58/1 13/59/1
f 31/60/1 32/61/1 13/62/1
f 31/63/1 13/64/1 14/65/1
f 30/66/1 31/63/1 14/65/1
f 30/67/1 14/68/1 15/69/1
f 29/70/1 30/67/1 15/69/1
f 29/70/1 15/69/1 16/71/1
f 28/72/1 29/73/1 16/74/1
f 28/75/1 16/76/1 17/77/1
f 27/78/1 28/79/1 17/77/1
f 27/80/1 17/81/1 18/82/1
f 27/83/1 18/84/1 19/85/1
f 26/86/1 27/83/1 19/85/1
f 25/87/1 26/86/1 19/88/1
f 25/89/1 19/90/1 20/91/1
f 24/92/1 25/93/1 20/94/1
f 24/92/1 20/94/1 21/95/1
f 23/96/1 24/97/1 21/98/1
f 23/99/1 21/100/1 22/101/1
f 61/102/1 62/103/1 63/37/1
f 61/102/1 63/37/1 59/104/1
f 59/104/1 63/37/1 54/47/1
f 54/47/1 55/105/1 56/106/1
f 54/47/1 56/106/1 57/107/1
f 61/102/1 59/104/1 60/108/1
f 58/109/1 59/104/1 54/47/1
f 58/109/1 54/47/1 57/107/1
f 64/110/1 65/111/1 66/112/1
f 90/113/1 64/110/1 66/112/1
f 90/114/1 66/115/1 67/116/1
f 89/117/1 90/118/1 67/119/1
f 89/120/1 67/121/1 68/122/1
f 88/123/1 89/120/1 68/122/1
f 87/124/1 88/125/1 68/126/1
f 87/124/1 68/126/1 69/127/1
f 87/128/1 69/127/1 70/129/1
f 86/130/1 87/128/1 70/129/1
f 86/131/1 70/132/1 71/133/1
f 85/134/1 86/135/1 71/136/1
f 85/134/1 71/136/1 72/137/1
f 84/138/1 85/134/1 72/137/1
f 83/139/1 84/140/1 72/141/1
f 83/139/1 72/141/1 73/142/1
f 82/143/1 83/144/1 73/145/1
f 82/143/1 73/145/1 74/146/1
f 81/147/1 82/143/1 74/146/1
f 81/147/1 74/146/1 93/148/2
f 94/149/1 81/147/1 93/148/2
f 80/150/1 81/151/1 94/37/1
f 80/150/1 94/37/1 91/152/1
f 92/153/1 93/154/2 74/155/1
f 92/153/1 74/155/1 75/156/1
f 80/150/1 91/152/1 78/157/1
f 78/157/1 91/152/1 92/153/1
f 78/157/1 92/153/1 77/158/1
f 77/158/1 92/153/1 75/156/1
f 80/150/1 78/157/1 79/159/1
f 76/160/1 77/158/1 75/156/1
f 135/1/1 136/2/1 137/3/1
f 135/1/1 137/3/1 138/4/1
f 134/161/1 135/5/1 138/162/1
f 134/161/1 138/162/1 139/7/1
f 134/12/1 139/13/1 140/14/1
f 133/15/1 134/12/1 140/14/1
f 133/15/1 140/14/1 141/16/1
f 133/18/1 141/19/1 142/20/1
f 132/22/1 133/18/1 142/20/1
f 131/23/1 132/21/1 142/24/1
f 131/23/1 142/24/1 143/25/1
f 130/26/1 131/23/1 143/25/1
f 130/26/1 143/25/1 144/27/1
f 129/163/1 130/28/1 144/164/1
f 129/29/1 144/30/1 145/31/1
f 129/32/1 145/31/1 146/33/1
f 128/34/1 129/32/1 146/33/1
f 128/35/1 146/36/1 95/37/1
f 127/38/1 128/35/1 95/37/1
f 127/38/1 95/37/1 98/39/3
f 99/40/1 127/38/1 98/39/3
f 126/41/1 127/42/1 99/43/1
f 126/41/1 99/43/1 100/44/1
f 97/45/1 98/46/3 95/47/1
f 97/45/1 95/47/1 96/48/1
f 103/49/1 104/50/1 105/51/1
f 103/49/1 105/51/1 102/52/1
f 102/52/1 105/51/1 106/53/1
f 101/54/1 102/52/1 106/53/1
f 126/55/1 100/56/1 101/57/1
f 126/55/1 101/57/1 106/58/1
f 126/55/1 106/58/1 107/59/1
f 125/61/1 126/55/1 107/59/1
f 124/63/1 125/60/1 107/64/1
f 124/63/1 107/64/1 108/65/1
f 124/66/1 108/65/1 109/165/1
f 123/70/1 124/67/1 109/69/1
f 123/73/1 109/71/1 110/74/1
f 122/72/1 123/73/1 110/74/1
f 122/75/1 110/76/1 111/77/1
f 121/79/1 122/75/1 111/77/1
f 121/80/1 111/81/1 112/82/1
f 120/83/1 121/80/1 112/82/1
f 120/83/1 112/82/1 113/84/1
f 120/86/1 113/85/1 114/88/1
f 119/87/1 120/86/1 114/88/1
f 118/92/1 119/93/1 114/94/1
f 118/92/1 114/94/1 115/95/1
f 118/96/1 115/98/1 116/100/1
f 117/99/1 118/96/1 116/100/1
f 154/102/1 155/103/1 156/37/1
f 154/102/1 156/37/1 152/104/1
f 152/104/1 156/37/1 147/47/1
f 147/47/1 148/105/1 149/106/1
f 147/47/1 149/106/1 150/107/1
f 154/102/1 152/104/1 153/108/1
f 151/109/1 152/104/1 147/47/1
f 151/109/1 147/47/1 150/107/1
f 157/166/1 158/167/1 159/168/1
f 199/169/1 157/166/1 159/170/1
f 199/169/1 159/170/1 160/171/1
f 198/172/1 199/173/1 160/174/1
f 197/175/1 198/172/1 160/176/1
f 197/175/1 160/176/1 161/177/1
f 197/178/1 161/179/1 162/180/1
f 196/181/1 197/178/1 162/180/1
f 195/182/1 196/183/1 162/184/1
f 195/182/1 162/184/1 163/185/1
f 195/186/1 163/185/1 164/187/1
f 194/188/1 195/186/1 164/189/1
f 194/188/1 164/189/1 165/190/1
f 193/191/1 194/192/1 165/193/1
f 193/194/1 165/195/1 166/196/1
f 192/197/1 193/194/1 166/196/1
f 192/198/1 166/199/1 167/200/1
f 191/201/1 192/202/1 167/203/1
f 191/201/1 167/203/1 168/204/1
f 190/205/1 191/201/1 168/204/1
f 190/205/1 168/204/1 202/206/1
f 203/207/1 190/205/1 202/206/1
f 189/208/1 190/209/1 203/210/1
f 189/208/1 203/210/1 200/211/1
f 201/212/1 202/213/1 168/214/1
f 201/212/1 168/214/1 169/215/1
f 189/216/1 200/217/1 201/218/1
f 189/216/1 201/218/1 169/219/1
f 189/216/1 169/219/1 170/220/1
f 188/221/1 189/222/1 170/223/1
f 187/224/1 188/221/1 170/225/1
f 187/224/1 170/225/1 171/226/1
f 187/227/1 171/228/1 172/229/1
f 186/230/1 187/227/1 172/229/1
f 186/231/1 172/232/1 173/233/1
f 185/234/1 186/231/1 173/233/1
f 184/235/1 185/234/1 173/236/1
f 184/237/1 173/236/1 174/238/1
f 183/239/1 184/237/1 174/238/1
f 183/240/1 174/241/1 175/242/1
f 182/243/1 183/240/1 175/244/1
f 182/243/1 175/244/1 176/245/1
f 181/246/1 182/247/1 176/248/1
f 180/249/1 181/246/1 176/250/1
f 180/249/1 176/250/1 177/251/1
f 179/252/1 180/253/1 177/254/1
f 179/252/1 177/254/1 178/255/1
f 245/2/1 246/256/1 247/257/1
f 245/1/1 247/3/1 248/4/1
f 244/5/1 245/1/1 248/4/1
f 243/6/1 244/161/1 248/7/1
f 243/6/1 248/7/1 249/8/1
f 242/12/1 243/9/1 249/13/1
f 242/15/1 249/14/1 250/16/1
f 241/17/1 242/15/1 250/16/1
f 241/17/1 250/16/1 251/19/1
f 240/22/1 241/18/1 251/20/1
f 240/21/1 251/258/1 252/24/1
f 239/26/1 240/23/1 252/25/1
f 239/28/1 252/27/1 253/164/1
f 238/163/1 239/28/1 253/164/1
f 238/163/1 253/164/1 254/259/1
f 237/260/1 238/163/1 254/259/1
f 237/34/1 254/33/1 255/36/1
f 236/35/1 237/34/1 255/36/1
f 235/38/1 236/35/1 255/37/1
f 235/38/1 255/37/1 206/39/1
f 207/40/1 235/38/1 206/39/1
f 234/41/1 235/42/1 207/43/1
f 234/41/1 207/43/1 208/44/1
f 205/45/1 206/46/1 255/47/1
f 205/45/1 255/47/1 204/48/1
f 211/49/1 212/50/1 213/51/1
f 211/49/1 213/51/1 210/52/1
f 210/52/1 213/51/1 214/53/1
f 209/54/1 210/52/1 214/53/1
f 233/55/1 234/41/1 208/44/1
f 233/55/1 208/56/1 209/57/1
f 233/55/1 209/57/1 214/58/1
f 233/61/1 214/59/1 215/62/1
f 233/60/1 215/62/1 216/64/1
f 232/63/1 233/60/1 216/64/1
f 231/66/1 232/63/1 216/65/1
f 230/70/1 231/67/1 216/69/1
f 230/70/1 216/69/1 217/71/1
f 229/75/1 230/72/1 217/76/1
f 229/75/1 217/76/1 218/77/1
f 228/78/1 229/79/1 218/77/1
f 228/78/1 218/77/1 219/81/1
f 227/80/1 228/78/1 219/81/1
f 227/83/1 219/84/1 220/85/1
f 226/86/1 227/83/1 220/85/1
f 226/89/1 220/90/1 221/91/1
f 225/92/1 226/93/1 221/94/1
f 225/97/1 221/95/1 222/98/1
f 224/99/1 225/96/1 222/100/1
f 224/99/1 222/100/1 223/101/1
f 261/261/1 262/262/1 263/263/1
f 261/261/1 263/263/1 264/37/1
f 264/37/1 256/47/1 257/264/1
f 264/37/1 257/264/1 258/265/1
f 261/261/1 264/37/1 258/265/1
f 260/266/1 261/261/1 258/265/1
f 260/266/1 258/265/1 259/267/1
f 265/47/1 266/268/1 267/269/1
f 265/47/1 267/269/1 268/270/1
f 265/47/1 268/270/1 269/271/1
f 265/47/1 269/271/1 270/37/1
f 312/166/1 271/167/1 272/168/1
f 312/169/1 272/170/1 273/171/1
f 311/173/1 312/169/1 273/171/1
f 310/175/1 311/172/1 273/176/1
f 310/175/1 273/176/1 274/177/1
f 309/272/1 310/175/1 274/177/1
f 308/181/1 309/178/1 274/180/1
f 308/181/1 274/180/1 275/273/1
f 308/182/1 275/184/1 276/185/1
f 307/274/1 308/182/1 276/185/1
f 307/186/1 276/185/1 277/187/1
f 306/188/1 307/186/1 277/189/1
f 306/192/1 277/190/1 278/193/1
f 305/191/1 306/192/1 278/193/1
f 305/194/1 278/195/1 279/196/1
f 304/198/1 305/275/1 279/199/1
f 304/198/1 279/199/1 280/200/1
f 304/201/1 280/203/1 281/204/1
f 303/205/1 304/201/1 281/204/1
f 303/205/1 281/204/1 315/206/2
f 316/207/1 303/205/1 315/206/2
f 302/208/1 303/209/1 316/210/1
f 302/208/1 316/210/1 313/211/1
f 314/212/1 315/213/2 281/214/1
f 314/212/1 281/214/1 282/215/1
f 301/216/1 302/208/1 313/211/1
f 301/216/1 313/217/1 314/218/1
f 301/216/1 314/218/1 282/219/1
f 301/222/1 282/220/1 283/223/1
f 300/221/1 301/222/1 283/223/1
f 300/224/1 283/225/1 284/226/1
f 299/276/1 300/224/1 284/226/1
f 299/230/1 284/229/1 285/277/1
f 298/278/1 299/230/1 285/277/1
f 298/231/1 285/232/1 286/233/1
f 297/235/1 298/234/1 286/236/1
f 297/237/1 286/236/1 287/238/1
f 296/239/1 297/237/1 287/238/1
f 296/240/1 287/241/1 288/242/1
f 295/243/1 296/240/1 288/244/1
f 295/243/1 288/244/1 289/245/1
f 294/279/1 295/280/1 289/281/1
f 293/249/1 294/246/1 289/250/1
f 293/249/1 289/250/1 290/251/1
f 293/252/1 290/254/1 291/255/1
f 292/282/1 293/252/1 291/255/1
f 343/283/1 317/47/1 345/284/1
f 345/285/1 317/47/1 318/286/1
f 345/285/1 318/287/1 319/288/1
f 345/285/1 319/288/1 320/289/1
f 345/290/1 320/291/1 321/292/1
f 345/290/1 321/293/1 322/294/1
f 345/290/1 322/295/1 323/296/1
f 345/297/1 323/296/1 324/298/1
f 345/297/1 324/299/1 325/300/1
f 345/297/1 325/300/1 326/301/1
f 345/302/1 326/303/1 327/304/1
f 345/302/1 327/305/1 344/306/1
f 344/307/1 327/305/1 328/308/1
f 343/283/1 345/309/1 346/310/1
f 347/311/1 344/312/1 328/308/1
f 347/311/1 328/308/1 329/313/1
f 343/283/1 346/314/1 341/315/1
f 341/315/1 346/314/1 347/316/1
f 341/315/1 347/316/1 329/317/1
f 341/315/1 329/317/1 330/318/1
f 341/315/1 330/319/1 331/320/1
f 341/315/1 331/321/1 332/322/1
f 341/315/1 332/323/1 333/324/1
f 341/315/1 333/324/1 334/325/1
f 341/315/1 334/326/1 335/327/1
f 341/315/1 335/327/1 336/328/1
f 341/315/1 336/329/1 337/330/1
f 341/315/1 337/331/1 338/332/1
f 341/315/1 338/333/1 339/334/1
f 341/315/1 339/335/1 340/336/1
f 343/283/1 341/315/1 342/266/1
f 389/2/3 391/257/3 390/256/3
f 388/1/3 391/3/3 389/2/3
f 388/5/3 392/162/3 391/4/3
f 388/161/3 393/7/3 392/162/3
f 387/6/3 393/7/3 388/161/3
f 386/12/3 393/13/3 387/9/3
f 386/12/3 394/14/3 393/13/3
f 386/17/3 395/19/3 394/16/3
f 385/18/3 395/19/3 386/17/3
f 384/21/3 395/20/3 385/22/3
f 384/21/3 396/24/3 395/258/3
f 384/23/3 397/25/3 396/24/3
f 383/26/3 397/25/3 384/23/3
f 382/28/3 397/27/3 383/26/3
f 382/28/3 398/164/3 397/27/3
f 382/32/3 399/33/3 398/31/3
f 381/34/3 399/33/3 382/32/3
f 381/35/3 348/37/3 399/36/3
f 380/38/3 348/37/3 381/35/3
f 380/38/3 351/39/3 348/37/3
f 352/40/3 351/39/3 380/38/3
f 379/41/3 352/43/3 380/42/3
f 379/41/3 353/44/3 352/43/3
f 350/45/3 348/47/3 351/46/3
f 350/45/3 349/48/3 348/47/3
f 356/49/3 358/51/3 357/50/3
f 356/49/3 355/52/3 358/51/3
f 355/52/3 359/53/3 358/51/3
f 354/54/3 359/53/3 355/52/3
f 354/337/3 360/58/3 359/53/3
f 379/55/3 354/57/3 353/56/3
f 379/55/3 360/58/3 354/57/3
f 378/61/3 360/59/3 379/55/3
f 378/60/3 361/64/3 360/62/3
f 377/63/3 361/64/3 378/60/3
f 377/66/3 362/165/3 361/65/3
f 376/73/3 362/71/3 377/70/3
f 376/73/3 363/74/3 362/71/3
f 376/72/3 364/76/3 363/74/3
f 375/75/3 364/76/3 376/72/3
f 374/80/3 364/81/3 375/78/3
f 374/80/3 365/82/3 364/81/3
f 374/83/3 366/85/3 365/84/3
f 373/86/3 366/85/3 374/83/3
f 372/89/3 366/90/3 373/87/3
f 372/89/3 367/91/3 366/90/3
f 371/97/3 367/95/3 372/92/3
f 371/97/3 368/98/3 367/95/3
f 370/99/3 368/100/3 371/96/3
f 370/99/3 369/101/3 368/100/3
f 407/102/3 409/37/3 408/103/3
f 407/102/3 405/104/3 409/37/3
f 405/104/3 400/47/3 409/37/3
f 400/47/3 402/106/3 401/105/3
f 400/47/3 403/107/3 402/106/3
f 407/102/3 406/108/3 405/104/3
f 404/109/3 400/47/3 405/104/3
f 404/109/3 403/107/3 400/47/3
f 435/113/3 411/112/3 410/110/3
f 435/113/3 412/115/3 411/112/3
f 434/118/3 412/116/3 435/114/3
f 434/118/3 413/119/3 412/116/3
f 434/120/3 414/122/3 413/121/3
f 433/123/3 414/122/3 434/120/3
f 433/125/3 415/126/3 414/338/3
f 432/124/3 415/126/3 433/125/3
f 432/128/3 416/129/3 415/127/3
f 431/130/3 416/129/3 432/128/3
f 430/131/3 416/129/3 431/130/3
f 430/135/3 417/136/3 416/133/3
f 430/134/3 418/137/3 417/136/3
f 429/138/3 418/137/3 430/134/3
f 428/139/3 418/141/3 429/140/3
f 428/139/3 419/142/3 418/141/3
f 428/143/3 420/146/3 419/145/3
f 427/147/3 420/146/3 428/143/3
f 427/147/3 438/148/3 420/146/3
f 439/149/3 438/148/3 427/147/3
f 426/150/3 439/37/3 427/151/3
f 426/150/3 436/152/3 439/37/3
f 437/153/3 420/155/3 438/154/3
f 437/153/3 421/156/3 420/155/3
f 426/150/3 424/157/3 436/152/3
f 424/157/3 437/153/3 436/152/3
f 424/157/3 423/158/3 437/153/3
f 423/158/3 421/156/3 437/153/3
f 426/150/3 425/159/3 424/157/3
f 422/160/3 421/156/3 423/158/3
f 482/2/3 484/257/3 483/256/3
f 481/1/3 484/3/3 482/2/3
f 481/1/3 485/4/3 484/3/3
f 480/161/3 485/162/3 481/5/3
f 480/6/3 486/8/3 485/7/3
f 479/12/3 486/13/3 480/9/3
f 479/12/3 487/14/3 486/13/3
f 478/17/3 487/16/3 479/15/3
f 478/18/3 488/20/3 487/19/3
f 477/22/3 488/20/3 478/18/3
f 477/21/3 489/258/3 488/20/3
f 476/26/3 489/25/3 477/23/3
f 476/26/3 490/27/3 489/25/3
f 475/28/3 490/27/3 476/26/3
f 475/29/3 491/31/3 490/30/3
f 474/32/3 491/31/3 475/29/3
f 474/35/3 440/37/3 491/36/3
f 473/38/3 440/37/3 474/35/3
f 473/38/3 443/39/3 440/37/3
f 444/40/4 443/39/3 473/38/3
f 472/41/3 444/43/4 473/42/3
f 472/41/3 445/44/3 444/43/4
f 442/45/3 440/47/3 443/46/3
f 442/45/3 441/48/3 440/47/3
f 448/49/3 450/51/3 449/50/3
f 448/49/3 447/52/3 450/51/3
f 447/52/3 451/53/3 450/51/3
f 446/54/3 451/53/3 447/52/3
f 471/55/3 445/44/3 472/41/3
f 471/55/3 446/57/3 445/56/3
f 471/55/3 451/58/3 446/57/3
f 471/55/3 452/59/3 451/58/3
f 470/60/3 452/62/3 471/61/3
f 470/63/3 453/65/3 452/64/3
f 470/66/3 454/165/3 453/65/3
f 469/67/3 454/68/3 470/339/3
f 468/70/3 454/69/3 469/67/3
f 468/70/3 455/71/3 454/69/3
f 467/72/3 455/74/3 468/73/3
f 467/75/3 456/77/3 455/76/3
f 466/79/3 456/77/3 467/75/3
f 466/80/3 457/82/3 456/81/3
f 465/83/3 457/82/3 466/80/3
f 465/83/3 458/85/3 457/84/3
f 465/89/3 459/91/3 458/90/3
f 464/93/3 459/91/3 465/89/3
f 464/92/3 460/95/3 459/94/3
f 463/97/3 460/95/3 464/92/3
f 463/99/3 461/101/3 460/100/3
f 462/340/3 461/101/3 463/99/3
f 499/102/3 501/37/3 500/103/3
f 499/102/3 497/104/3 501/37/3
f 497/104/3 492/47/3 501/37/3
f 492/47/3 494/106/3 493/105/3
f 492/47/3 495/107/3 494/106/3
f 499/102/3 498/108/3 497/104/3
f 496/109/3 492/47/3 497/104/3
f 496/109/3 495/107/3 492/47/3
f 502/166/3 504/170/3 503/168/3
f 541/169/3 504/170/3 502/166/3
f 540/173/3 504/171/3 541/169/3
f 540/175/3 505/177/3 504/176/3
f 539/272/3 505/177/3 540/175/3
f 539/178/3 506/180/3 505/179/3
f 538/183/3 506/273/3 539/181/3
f 538/182/3 507/185/3 506/184/3
f 537/274/3 507/185/3 538/182/3
f 537/188/3 508/190/3 507/189/3
f 536/192/3 508/190/3 537/188/3
f 536/192/3 509/193/3 508/190/3
f 535/197/3 509/196/3 536/194/3
f 535/275/3 510/199/3 509/341/3
f 534/201/3 510/203/3 535/202/3
f 534/201/3 511/204/3 510/203/3
f 533/205/3 511/204/3 534/201/3
f 533/205/3 543/206/3 511/204/3
f 544/207/3 543/206/3 533/205/3
f 532/208/3 544/210/3 533/209/3
f 532/208/3 545/211/3 544/210/3
f 542/212/3 511/214/3 543/213/3
f 542/212/3 512/215/3 511/214/3
f 531/216/3 545/211/3 532/208/3
f 531/216/3 542/218/3 545/217/3
f 531/216/3 512/219/3 542/218/3
f 531/216/3 513/220/3 512/219/3
f 530/224/3 513/225/3 531/221/3
f 530/224/3 514/226/3 513/225/3
f 529/276/3 514/226/3 530/224/3
f 529/227/3 515/229/3 514/228/3
f 528/230/3 515/229/3 529/227/3
f 527/231/3 515/232/3 528/278/3
f 527/231/3 516/233/3 515/232/3
f 526/237/3 516/236/3 527/235/3
f 526/237/3 517/238/3 516/236/3
f 525/239/3 517/238/3 526/237/3
f 525/239/3 518/241/3 517/238/3
f 525/240/3 519/244/3 518/242/3
f 524/243/3 519/244/3 525/240/3
f 523/246/3 519/248/3 524/247/3
f 523/246/3 520/250/3 519/248/3
f 523/249/3 521/251/3 520/250/3
f 522/252/3 521/254/3 523/253/3
f 587/2/3 589/257/3 588/256/3
f 586/1/3 589/3/3 587/2/3
f 586/5/3 590/162/3 589/4/3
f 585/161/3 590/162/3 586/5/3
f 584/6/3 590/7/3 585/161/3
f 584/6/3 591/8/3 590/7/3
f 584/12/3 592/14/3 591/13/3
f 583/15/3 592/14/3 584/12/3
f 582/18/3 592/19/3 583/17/3
f 582/18/3 593/20/3 592/19/3
f 581/22/3 593/20/3 582/18/3
f 581/23/3 594/25/3 593/24/3
f 580/26/3 594/25/3 581/23/3
f 580/28/3 595/164/3 594/27/3
f 579/163/3 595/164/3 580/28/3
f 579/29/3 596/31/3 595/30/3
f 578/34/3 596/33/3 579/32/3
f 578/35/3 546/37/5 596/36/3
f 577/38/3 546/37/5 578/35/3
f 577/38/3 549/39/6 546/37/5
f 550/40/7 549/39/6 577/38/3
f 576/41/3 550/43/7 577/42/3
f 576/41/3 551/44/7 550/43/7
f 548/45/3 546/47/5 549/46/6
f 548/45/3 547/48/3 546/47/5
f 554/49/3 556/51/3 555/50/3
f 554/49/3 553/52/3 556/51/3
f 553/52/3 557/53/3 556/51/3
f 552/54/3 557/53/3 553/52/3
f 576/55/3 552/57/3 551/56/7
f 576/55/3 557/58/3 552/57/3
f 576/55/3 558/59/3 557/58/3
f 575/61/3 558/59/3 576/55/3
f 575/60/3 559/64/3 558/62/3
f 574/66/3 559/65/3 575/63/3
f 574/70/3 560/71/3 559/69/3
f 573/73/3 560/71/3 574/70/3
f 572/75/3 560/76/3 573/72/3
f 572/75/3 561/77/3 560/76/3
f 571/78/3 561/77/3 572/79/3
f 571/80/3 562/82/3 561/81/3
f 570/83/3 562/82/3 571/80/3
f 570/83/3 563/85/3 562/84/3
f 569/87/3 563/88/3 570/86/3
f 569/93/3 564/94/3 563/91/3
f 568/92/3 564/94/3 569/93/3
f 568/97/3 565/98/3 564/95/3
f 567/99/3 565/100/3 568/96/3
f 567/99/3 566/101/3 565/100/3
f 602/261/3 604/263/3 603/262/3
f 602/261/3 605/37/3 604/263/3
f 605/37/3 598/264/3 597/47/3
f 605/37/3 599/265/3 598/264/3
f 602/261/3 599/265/3 605/37/3
f 601/266/3 599/265/3 602/261/3
f 601/266/3 600/267/3 599/265/3
f 606/47/3 608/269/3 607/268/3
f 606/47/3 609/270/3 608/269/3
f 606/47/3 610/271/3 609/270/3
f 606/47/3 611/37/3 610/271/3
f 652/169/3 613/171/3 612/170/3
f 651/173/3 613/171/3 652/169/3
f 650/175/3 613/176/3 651/172/3
f 650/175/3 614/177/3 613/176/3
f 649/178/3 614/179/3 650/342/3
f 649/181/3 615/273/3 614/180/3
f 648/183/3 615/273/3 649/181/3
f 647/186/3 615/185/3 648/274/3
f 647/186/3 616/187/3 615/185/3
f 647/186/3 617/189/3 616/187/3
f 646/188/3 617/189/3 647/186/3
f 646/192/3 618/193/3 617/190/3
f 645/194/3 618/195/3 646/191/3
f 645/275/3 619/199/3 618/341/3
f 644/198/3 619/199/3 645/275/3
f 644/201/3 620/204/3 619/203/3
f 643/205/3 620/204/3 644/201/3
f 643/205/3 654/206/3 620/204/3
f 655/207/3 654/206/3 643/205/3
f 642/208/3 655/210/3 643/209/3
f 642/208/3 656/211/3 655/210/3
f 653/212/3 620/214/3 654/213/3
f 653/212/3 621/215/3 620/214/3
f 641/216/3 656/211/3 642/208/3
f 653/343/3 622/219/3 621/215/3
f 641/216/3 653/218/3 656/217/3
f 641/216/3 622/219/3 653/218/3
f 640/221/3 622/223/3 641/222/3
f 640/221/3 623/225/3 622/223/3
f 639/344/3 623/345/3 640/276/3
f 639/344/3 624/228/3 623/345/3
f 639/230/3 625/277/3 624/229/3
f 638/278/3 625/277/3 639/230/3
f 638/231/3 626/233/3 625/232/3
f 637/234/3 626/233/3 638/231/3
f 637/234/3 627/236/3 626/233/3
f 636/239/3 627/238/3 637/237/3
f 636/239/3 628/241/3 627/238/3
f 636/240/3 629/244/3 628/242/3
f 635/243/3 629/244/3 636/240/3
f 635/247/3 630/248/3 629/346/3
f 634/246/3 630/248/3 635/247/3
f 634/249/3 631/251/3 630/250/3
f 633/253/3 631/251/3 634/249/3
f 633/252/3 632/255/3 631/254/3
f 681/283/3 683/284/3 657/47/3
f 683/285/3 658/286/3 657/47/3
f 683/285/3 659/288/3 658/287/3
f 683/290/3 660/347/3 659/289/3
f 683/290/3 661/291/3 660/348/3
f 683/290/3 662/294/3 661/293/3
f 683/290/3 663/296/3 662/295/3
f 683/297/3 664/298/3 663/296/3
f 683/297/3 665/299/3 664/349/3
f 683/297/3 666/350/3 665/301/3
f 683/302/3 667/305/3 666/351/3
f 683/302/3 682/306/3 667/305/3
f 681/283/3 684/310/3 683/309/3
f 685/311/3 667/308/3 682/312/3
f 685/311/3 668/313/3 667/308/3
f 685/37/3 669/317/3 668/313/3
f 681/283/3 679/315/3 684/314/3
f 679/315/3 685/316/3 684/314/3
f 679/315/3 669/317/3 685/316/3
f 679/315/3 670/320/3 669/319/3
f 679/315/3 671/321/3 670/352/3
f 679/315/3 672/323/3 671/353/3
f 679/315/3 673/354/3 672/325/3
f 679/315/3 674/327/3 673/326/3
f 679/315/3 675/329/3 674/328/3
f 679/315/3 676/332/3 675/331/3
f 679/315/3 677/334/3 676/333/3
f 679/315/3 678/336/3 677/335/3
f 681/283/3 680/266/3 679/315/3
f 197/272/8 539/272/8 540/175/8
f 330/318/9 329/317/9 669/318/9
f 40/12/10 386/12/10 387/9/10
f 47/14/11 46/13/11 393/13/11 394/14/11
f 331/320/12 330/319/12 669/319/12 670/320/12
f 40/12/13 39/15/13 386/12/13
f 48/16/14 47/14/14 394/16/14
f 331/352/15 670/352/15 671/321/15
f 39/15/16 38/17/16 386/15/16
f 332/322/17 331/321/17 671/322/17
f 162/180/18 161/179/18 505/179/18 506/180/18
f 197/178/13 196/181/13 539/178/13
f 48/16/19 394/16/19 395/19/19
f 38/18/20 385/18/20 386/17/20
f 332/353/21 671/353/21 672/323/21
f 196/183/22 538/183/22 539/181/22
f 49/20/23 48/19/23 395/20/23
f 333/324/24 332/323/24 672/324/24
f 334/325/25 333/324/25 672/325/25
f 38/22/26 37/21/26 384/21/26 385/22/26
f 235/42/27 234/41/27 576/41/27 577/42/27
f 196/183/20 195/182/20 538/183/20
f 334/325/28 672/325/28 673/354/28
f 208/44/29 207/43/29 550/43/29 551/44/29
f 163/185/30 162/184/30 506/184/30 507/185/30
f 206/46/31 205/45/31 548/45/31 549/46/31
f 195/274/32 537/274/32 538/182/32
f 49/258/33 395/258/33 396/24/33
f 335/327/34 334/326/34 673/326/34 674/327/34
f 205/45/35 204/48/35 547/48/35 548/45/35
f 204/48/29 255/47/29 546/47/29 547/48/29
f 336/328/36 335/327/36 674/328/36
f 212/50/31 211/49/31 554/49/31 555/50/31
f 50/25/37 49/24/37 396/24/37 397/25/37
f 336/328/38 674/328/38 675/329/38
f 164/187/39 163/185/39 507/187/39
f 37/26/40 383/26/40 384/23/40
f 213/51/41 212/50/41 555/50/41 556/51/41
f 211/49/35 210/52/35 553/52/35 554/49/35
f 337/330/42 336/329/42 675/330/42
f 195/186/43 194/188/43 537/186/43
f 51/27/44 50/25/44 397/27/44
f 37/26/45 36/28/45 382/28/45 383/26/45
f 214/53/29 213/51/29 556/51/29 557/53/29
f 210/52/31 209/54/31 552/54/31 553/52/31
f 165/190/46 164/189/46 507/189/46 508/190/46
f 194/192/47 536/192/47 537/188/48
f 51/27/49 397/27/49 398/164/49
f 234/41/50 233/55/50 576/41/50
f 338/332/51 337/331/51 675/331/52 676/332/52
f 81/151/31 80/150/31 426/150/31 427/151/31
f 165/190/44 508/190/44 509/193/44
f 194/192/53 193/191/53 536/192/53
f 339/334/54 338/333/54 676/333/54 677/334/54
f 91/152/55 94/37/55 439/37/55 436/152/55
f 93/154/31 92/153/31 437/153/31 438/154/31
f 340/336/56 339/335/56 677/335/56 678/336/56
f 75/156/29 74/155/29 420/155/29 421/156/29
f 343/283/35 342/266/35 680/266/35 681/283/35
f 342/266/29 341/315/29 679/315/29 680/266/29
f 166/196/57 165/195/57 509/196/57
f 193/194/58 192/197/58 535/197/58 536/194/58
f 52/31/59 51/30/59 398/31/59
f 341/355/60 340/336/60 678/336/60 679/355/60
f 92/153/41 91/152/41 436/152/41 437/153/41
f 78/157/35 77/158/35 423/158/35 424/157/35
f 53/33/61 52/31/62 398/31/62 399/33/62
f 36/32/63 35/34/63 381/34/63 382/32/63
f 80/150/35 79/159/35 425/159/35 426/150/35
f 79/159/29 78/157/29 424/157/29 425/159/29
f 166/341/59 509/341/59 510/199/59
f 77/158/31 76/160/31 422/160/31 423/158/31
f 76/160/35 75/156/35 421/156/35 422/160/35
f 167/200/62 166/199/62 510/200/62
f 137/256/41 136/356/41 482/356/41 483/256/41
f 1/37/64 53/36/64 399/36/64 348/37/64
f 35/35/65 34/38/65 380/38/65 381/35/65
f 137/256/66 483/256/66 484/257/66
f 192/202/67 191/201/67 534/201/67 535/202/67
f 136/2/68 135/1/69 481/1/68 482/2/68
f 168/204/70 167/203/70 510/203/70 511/204/70
f 138/4/71 137/3/71 484/3/71 485/4/71
f 191/201/72 190/205/72 533/205/72 534/201/72
f 135/5/73 134/161/73 480/161/73 481/5/73
f 5/40/35 4/39/35 351/39/35 352/40/35
f 139/7/74 138/162/74 485/7/74
f 203/207/35 202/206/35 543/206/35 544/207/35
f 139/7/75 485/7/75 486/8/75
f 134/12/10 479/12/10 480/9/10
f 209/57/41 208/56/41 551/56/41 552/57/41
f 140/14/76 139/13/76 486/13/76 487/14/76
f 214/58/77 557/58/77 558/59/77
f 134/12/13 133/15/13 479/12/13
f 233/61/78 575/61/78 576/55/78
f 141/16/79 140/14/79 487/16/79
f 215/62/80 214/59/80 558/62/80
f 133/17/16 478/17/16 479/15/16
f 216/64/81 215/62/81 558/62/81 559/64/81
f 233/60/82 232/63/82 575/60/82
f 142/20/83 141/19/83 487/19/83 488/20/83
f 133/18/84 132/22/32 477/22/84 478/18/84
f 232/63/85 231/66/85 574/66/86 575/63/86
f 142/20/39 488/20/39 489/258/39
f 132/21/43 131/23/43 477/21/43
f 143/25/46 142/24/46 489/25/46
f 131/23/40 130/26/40 476/26/40 477/23/40
f 231/67/87 230/70/87 574/67/87
f 34/42/31 33/41/31 379/41/31 380/42/31
f 144/27/88 143/25/88 489/25/88 490/27/88
f 217/71/89 216/69/89 559/69/89 560/71/89
f 130/28/53 475/28/53 476/26/53
f 230/73/90 573/73/90 574/70/90
f 6/44/29 5/43/29 352/43/29 353/44/29
f 4/46/31 3/45/31 350/45/31 351/46/31
f 130/28/91 129/163/91 475/28/91
f 3/45/35 2/48/35 349/48/35 350/45/35
f 190/209/31 189/208/31 532/208/31 533/209/31
f 2/48/29 1/47/29 348/47/29 349/48/29
f 10/50/31 9/49/31 356/49/31 357/50/31
f 200/211/29 203/210/29 544/210/29 545/211/29
f 11/51/41 10/50/41 357/50/41 358/51/41
f 230/72/92 229/75/92 572/75/92 573/72/92
f 202/213/93 201/212/93 542/212/93 543/213/93
f 9/49/35 8/52/35 355/52/35 356/49/35
f 218/77/94 217/76/94 560/76/94 561/77/94
f 169/215/29 168/214/29 511/214/29 512/215/29
f 12/53/29 11/51/29 358/51/29 359/53/29
f 189/216/95 531/216/95 532/208/95
f 8/52/31 7/54/31 354/54/31 355/52/31
f 229/79/96 228/78/96 571/78/96 572/79/96
f 145/31/59 144/30/59 490/30/59 491/31/59
f 33/41/50 32/55/50 379/41/50
f 129/32/97 474/32/97 475/29/97
f 219/81/98 218/77/98 561/81/98
f 228/78/99 227/80/99 571/78/99
f 146/33/100 145/31/100 491/33/100
f 129/32/101 128/34/101 474/32/101
f 219/81/102 561/81/102 562/82/102
f 12/53/103 359/53/103 360/58/103
f 227/83/104 570/83/104 571/80/104
f 95/37/70 146/36/70 491/36/70 440/37/70
f 220/85/105 219/84/105 562/84/105 563/85/105
f 128/35/65 127/38/65 473/38/65 474/35/65
f 227/83/106 226/86/106 570/83/106
f 314/218/41 313/217/41 656/217/41 653/218/41
f 226/87/107 569/87/107 570/86/107
f 283/223/108 282/220/108 622/223/108
f 301/222/109 300/221/109 640/221/109 641/222/109
f 221/91/110 220/90/110 563/91/110
f 99/40/35 98/39/35 443/39/35 444/40/35
f 283/223/81 622/223/81 623/225/81
f 221/91/111 563/91/111 564/94/111
f 226/93/112 225/92/112 568/92/112 569/93/112
f 284/226/113 283/225/113 623/226/113
f 300/224/114 299/276/114 640/224/114
f 299/344/115 639/344/115 640/276/115
f 222/98/116 221/95/116 564/95/116 565/98/116
f 284/345/117 623/345/117 624/228/117
f 225/96/118 224/99/118 567/99/119 568/96/119
f 223/101/120 222/100/120 565/100/120 566/101/120
f 224/340/35 223/101/35 566/101/35 567/340/35
f 285/277/121 284/229/121 624/229/121 625/277/121
f 262/262/122 261/261/122 602/261/122 603/262/122
f 299/230/123 298/278/123 638/278/123 639/230/123
f 263/263/41 262/262/41 603/262/41 604/263/41
f 201/218/41 200/217/41 545/217/41 542/218/41
f 264/37/124 263/263/124 604/263/124 605/37/124
f 256/47/125 264/37/125 605/37/125 597/47/125
f 7/57/41 6/56/41 353/56/41 354/57/41
f 170/220/126 169/219/126 512/219/126 513/220/126
f 257/264/41 256/47/41 597/47/41 598/264/41
f 286/233/127 285/232/127 625/232/127 626/233/127
f 13/59/128 12/58/128 360/59/128
f 298/234/92 637/234/92 638/231/92
f 258/265/129 257/264/129 598/264/129 599/265/129
f 32/61/78 378/61/78 379/55/78
f 261/261/31 260/266/31 601/266/31 602/261/31
f 189/222/130 188/221/130 531/222/130
f 286/233/94 626/233/94 627/236/94
f 298/234/131 297/235/131 637/234/131
f 260/266/35 259/267/35 600/267/35 601/266/35
f 32/61/132 31/60/132 378/61/132
f 259/267/29 258/265/29 599/265/29 600/267/29
f 266/268/31 265/47/31 606/47/31 607/268/31
f 188/221/82 187/224/82 530/224/82 531/221/82
f 13/62/81 360/62/81 361/64/81
f 267/269/41 266/268/41 607/268/41 608/269/41
f 31/63/82 377/63/82 378/60/82
f 287/238/133 286/236/133 627/238/133
f 171/226/113 170/225/113 513/225/113 514/226/113
f 297/237/134 296/239/135 636/239/135 637/237/134
f 268/270/29 267/269/29 608/269/29 609/270/29
f 187/276/114 529/276/114 530/224/114
f 14/65/113 13/64/113 361/65/113
f 269/271/41 268/270/41 609/270/41 610/271/41
f 31/63/85 30/66/85 377/63/85
f 287/238/136 627/238/136 628/241/136
f 265/47/35 270/37/35 611/37/35 606/47/35
f 270/37/29 269/271/29 610/271/29 611/37/29
f 127/42/137 126/41/137 472/41/137 473/42/137
f 14/65/138 361/65/138 362/165/138
f 288/242/139 287/241/139 628/242/139
f 271/167/41 312/47/41 652/47/41 612/167/41
f 100/44/29 99/43/29 444/43/29 445/44/29
f 98/46/140 97/45/140 442/45/140 443/46/140
f 288/242/141 628/242/141 629/244/141
f 272/168/142 271/167/142 612/168/142
f 296/240/106 295/243/106 635/243/106 636/240/106
f 97/45/35 96/48/35 441/48/35 442/45/35
f 96/48/29 95/47/29 440/47/29 441/48/29
f 172/229/143 171/228/143 514/228/143 515/229/143
f 104/50/31 103/49/31 448/49/31 449/50/31
f 187/227/144 186/230/144 528/230/144 529/227/144
f 289/245/145 288/244/145 629/245/145
f 15/69/143 14/68/143 362/69/143
f 105/51/41 104/50/41 449/50/41 450/51/41
f 30/67/144 29/70/144 377/67/144
f 273/171/146 272/170/146 612/170/147 613/171/147
f 103/49/35 102/52/35 447/52/35 448/49/35
f 312/169/148 311/173/148 651/173/148 652/169/148
f 16/71/149 15/69/149 362/71/149
f 295/280/150 294/279/150 635/280/150
f 106/53/29 105/51/29 450/51/29 451/53/29
f 29/73/151 376/73/151 377/70/151
f 102/52/31 101/54/31 446/54/31 447/52/31
f 186/231/152 527/231/152 528/278/152
f 126/55/50 471/55/50 472/41/50
f 16/71/153 362/71/153 363/74/153
f 29/73/154 28/72/154 376/73/154
f 173/233/155 172/232/155 515/232/155 516/233/155
f 311/172/156 310/175/156 650/175/156 651/172/156
f 186/231/157 185/234/157 527/231/157
f 289/346/158 629/346/158 630/248/158
f 16/74/159 363/74/159 364/76/159
f 294/246/112 634/246/112 635/247/112
f 28/75/92 375/75/92 376/72/92
f 274/177/160 273/176/160 613/176/160 614/177/160
f 310/175/161 309/272/161 650/175/161
f 185/234/162 184/235/162 527/234/162
f 17/77/94 16/76/94 364/77/94
f 294/246/163 293/249/163 634/246/163
f 184/237/164 526/237/164 527/235/164
f 28/79/164 27/78/164 375/79/164
f 290/251/165 289/250/165 630/250/165 631/251/165
f 174/238/133 173/236/133 516/236/133 517/238/133
f 293/253/166 633/253/166 634/249/166
f 184/237/135 183/239/135 525/239/135 526/237/135
f 309/178/10 649/178/10 650/342/10
f 27/80/99 374/80/99 375/78/99
f 174/238/167 517/238/167 518/241/167
f 18/82/102 17/81/102 364/81/102 365/82/102
f 309/178/13 308/181/13 649/178/13
f 291/255/168 290/254/168 631/254/168 632/255/168
f 175/242/169 174/241/169 518/242/169
f 293/252/170 292/282/170 633/252/170
f 292/282/35 291/255/35 632/255/35 633/282/35
f 275/273/171 274/180/171 614/180/171 615/273/171
f 175/242/172 518/242/172 519/244/172
f 317/47/31 343/283/31 681/283/31 657/47/31
f 308/183/16 648/183/22 649/181/16
f 183/240/106 182/243/106 524/243/106 525/240/106
f 19/85/105 18/84/105 365/84/105 366/85/105
f 27/83/173 26/86/173 373/86/173 374/83/173
f 176/245/145 175/244/145 519/245/145
f 26/86/107 25/87/107 373/86/107
f 276/185/30 275/184/30 615/185/30
f 308/182/84 307/274/84 648/182/84
f 307/186/174 647/186/174 648/274/174
f 25/89/175 372/89/175 373/87/175
f 277/187/176 276/185/176 615/185/176 616/187/176
f 20/91/110 19/90/110 366/90/110 367/91/110
f 277/187/177 616/187/177 617/189/177
f 307/186/43 306/188/43 646/188/43 647/186/43
f 182/247/112 181/246/112 523/246/112 524/247/112
f 318/286/41 317/47/41 657/47/41 658/286/41
f 25/93/178 24/92/178 372/93/178
f 176/248/179 519/248/179 520/250/179
f 181/246/163 180/249/163 523/246/163
f 21/95/180 20/94/180 367/95/180
f 24/97/181 371/97/181 372/92/181
f 278/193/44 277/190/44 617/190/44 618/193/44
f 177/251/182 176/250/182 520/250/182 521/251/182
f 319/288/183 318/287/183 658/287/183 659/288/183
f 306/192/45 305/191/45 646/192/45
f 21/95/184 367/95/184 368/98/184
f 320/289/185 319/288/185 659/289/185
f 24/97/166 23/96/166 371/97/166
f 305/194/91 645/194/91 646/191/91
f 180/253/118 179/252/118 522/252/118 523/253/119
f 320/289/186 659/289/186 660/347/186
f 101/57/41 100/56/41 445/56/41 446/57/41
f 23/99/118 370/99/118 371/96/118
f 279/196/187 278/195/187 618/196/187
f 178/255/188 177/254/188 521/255/188
f 107/59/126 106/58/126 451/58/126 452/59/126
f 179/282/35 178/255/35 521/255/35 522/282/35
f 22/101/120 21/100/120 368/100/120 369/101/120
f 320/348/189 660/348/189 661/291/189
f 126/55/78 125/61/78 471/55/78
f 23/340/35 22/101/35 369/101/35 370/340/35
f 321/292/190 320/291/190 661/292/190
f 246/256/41 245/356/41 587/356/41 588/256/41
f 62/103/31 61/102/31 407/102/31 408/103/31
f 125/60/132 470/60/132 471/61/132
f 247/257/66 246/256/66 588/256/66 589/257/66
f 63/37/41 62/103/41 408/103/41 409/37/41
f 279/341/59 618/341/59 619/199/59
f 322/294/191 321/293/191 661/293/191 662/294/191
f 305/275/192 304/198/192 644/198/192 645/275/192
f 245/1/68 586/1/68 587/2/68
f 125/60/193 124/63/193 470/60/193
f 54/47/194 63/37/194 409/37/194 400/47/194
f 280/200/62 279/199/62 619/200/62
f 55/105/31 54/47/31 400/47/31 401/105/31
f 248/4/71 247/3/71 589/4/71
f 108/65/195 107/64/195 452/64/195 453/65/195
f 245/1/148 244/5/148 586/1/148
f 56/106/41 55/105/41 401/105/41 402/106/41
f 323/296/196 322/295/196 662/295/196 663/296/196
f 57/107/29 56/106/29 402/106/29 403/107/29
f 248/4/197 589/4/197 590/162/197
f 61/102/35 60/108/35 406/108/35 407/102/35
f 109/165/138 108/65/138 453/65/138 454/165/138
f 244/161/73 585/161/73 586/5/73
f 60/108/29 59/104/29 405/104/29 406/108/29
f 324/298/198 323/296/198 663/296/198 664/298/198
f 59/104/199 58/109/199 404/109/199 405/104/199
f 281/204/70 280/203/70 619/203/70 620/204/200
f 304/201/65 303/205/65 643/205/65 644/201/65
f 58/109/35 57/107/35 403/107/35 404/109/35
f 244/161/201 243/6/156 584/6/201 585/161/201
f 324/349/202 664/349/202 665/299/202
f 124/67/203 469/67/203 470/339/203
f 65/357/41 64/47/41 410/47/41 411/357/41
f 325/300/204 324/299/204 665/300/204
f 249/8/205 248/7/205 590/7/205 591/8/205
f 326/301/206 325/300/206 665/301/206
f 124/67/87 123/70/87 468/70/87 469/67/87
f 66/112/207 65/111/207 411/112/207
f 326/301/208 665/301/208 666/350/208
f 64/110/69 90/113/69 435/113/69 410/110/69
f 109/69/121 454/69/121 455/71/121
f 316/207/35 315/206/35 654/206/35 655/207/35
f 66/112/71 411/112/71 412/115/71
f 110/74/209 109/71/209 455/74/209
f 243/9/10 242/12/10 584/9/10
f 327/304/210 326/303/210 666/304/210
f 123/73/154 122/72/154 467/72/154 468/73/154
f 67/116/197 66/115/197 412/116/197
f 249/13/76 591/13/76 592/14/76
f 90/118/73 434/118/73 435/114/73
f 242/15/13 583/15/13 584/12/13
f 327/351/211 666/351/211 667/305/211
f 345/302/35 344/306/35 682/306/35 683/302/35
f 67/116/212 412/116/212 413/119/212
f 250/16/79 249/14/79 592/16/79
f 90/118/156 89/117/156 434/118/156
f 111/77/94 110/76/94 455/76/94 456/77/94
f 242/15/16 241/17/16 583/15/16
f 122/75/131 121/79/131 466/79/131 467/75/131
f 328/308/213 327/305/213 667/308/213
f 251/19/19 250/16/19 592/19/19
f 241/18/214 582/18/214 583/17/214
f 251/19/215 592/19/215 593/20/215
f 241/18/216 240/22/216 581/22/216 582/18/216
f 112/82/102 111/81/102 456/81/102 457/82/102
f 68/122/217 67/121/217 413/121/217 414/122/217
f 121/80/104 120/83/104 465/83/104 466/80/104
f 89/120/10 88/123/10 433/123/10 434/120/10
f 113/84/218 112/82/218 457/84/218
f 252/24/219 251/258/219 593/24/219
f 113/84/105 457/84/105 458/85/105
f 68/338/79 414/338/79 415/126/79
f 252/24/220 593/24/220 594/25/220
f 88/125/22 87/124/22 432/124/22 433/125/22
f 114/88/221 113/85/221 458/88/221
f 240/23/40 239/26/40 580/26/40 581/23/40
f 120/86/107 119/87/107 465/86/107
f 69/127/222 68/126/222 415/127/222
f 70/129/83 69/127/83 415/127/83 416/129/83
f 253/164/49 252/27/49 594/27/49 595/164/49
f 87/128/223 86/130/223 431/130/223 432/128/223
f 114/90/110 458/90/110 459/91/110
f 239/28/224 238/163/224 579/163/224 580/28/224
f 119/93/225 464/93/225 465/89/225
f 86/131/26 430/131/26 431/130/26
f 346/310/29 345/309/29 683/309/29 684/310/29
f 254/259/187 253/164/187 595/259/187
f 344/312/31 347/311/31 685/311/31 682/312/31
f 238/163/226 237/260/226 579/163/226
f 119/93/178 118/92/178 464/93/178
f 71/133/177 70/132/177 416/133/177
f 329/313/29 328/308/29 667/308/29 668/313/29
f 115/95/180 114/94/180 459/94/180 460/95/180
f 303/209/31 302/208/31 642/208/31 643/209/31
f 118/97/163 463/97/163 464/92/163
f 71/133/46 416/133/46 417/136/46
f 254/30/227 595/30/227 596/31/227
f 86/135/40 85/134/40 430/135/40
f 313/211/29 316/210/29 655/210/29 656/211/29
f 329/313/228 668/313/228 669/317/228
f 315/213/31 314/212/31 653/212/31 654/213/31
f 72/137/88 71/136/88 417/136/88 418/137/88
f 85/134/53 84/138/53 429/138/53 430/134/53
f 282/215/29 281/214/29 620/214/29 621/215/29
f 116/100/229 115/98/229 460/100/229
f 237/34/230 578/34/230 579/32/230
f 302/208/95 301/216/95 641/216/95 642/208/95
f 118/96/119 117/99/119 463/96/119
f 255/36/231 254/33/231 596/36/231
f 116/100/120 460/100/120 461/101/120
f 237/34/232 236/35/232 578/34/232
f 117/340/170 462/340/170 463/99/170
f 117/340/35 116/101/35 461/101/35 462/340/35
f 155/103/31 154/102/31 499/102/31 500/103/31
f 255/36/64 596/36/64 546/37/64
f 282/215/233 621/215/233 622/219/233
f 236/35/65 235/38/72 577/38/72 578/35/72
f 156/37/41 155/103/41 500/103/41 501/37/41
f 147/47/194 156/37/194 501/37/194 492/47/194
f 148/105/31 147/47/31 492/47/31 493/105/31
f 84/140/97 83/139/97 428/139/97 429/140/97
f 149/106/41 148/105/41 493/105/41 494/106/41
f 150/107/29 149/106/29 494/106/29 495/107/29
f 73/142/62 72/141/62 418/141/62 419/142/62
f 154/102/35 153/108/35 498/108/35 499/102/35
f 44/256/41 43/356/41 389/356/41 390/256/41
f 153/108/29 152/104/29 497/104/29 498/108/29
f 152/104/199 151/109/199 496/109/199 497/104/199
f 44/256/66 390/256/66 391/257/66
f 207/40/35 206/39/35 549/39/35 550/40/35
f 151/109/35 150/107/35 495/107/35 496/109/35
f 83/144/232 82/143/232 428/144/232
f 43/2/68 42/1/68 388/1/68 389/2/68
f 158/167/41 157/47/41 502/47/41 503/167/41
f 74/146/64 73/145/64 419/145/64 420/146/64
f 45/4/71 44/3/71 391/4/71
f 82/143/72 81/147/72 427/147/72 428/143/72
f 159/168/142 158/167/142 503/168/142
f 42/1/148 41/5/148 388/1/148
f 159/168/234 503/168/234 504/170/234
f 157/166/68 199/169/68 541/169/68 502/166/68
f 45/4/197 391/4/197 392/162/197
f 160/171/147 159/170/147 504/171/147
f 199/173/148 540/173/148 541/169/148
f 45/162/74 392/162/74 393/7/74
f 41/6/156 387/6/156 388/161/156
f 199/173/73 198/172/73 540/173/73
f 46/8/205 45/7/205 393/8/205
f 94/149/35 93/148/35 438/148/35 439/149/35
f 198/172/201 197/175/201 540/172/201
f 41/10/235 40/9/235 387/10/235
f 347/316/41 346/314/41 684/314/41 685/316/41
f 161/177/236 160/176/236 504/176/236 505/177/160
