# Blender 4.5.3 LTS
# www.blender.org
mtllib poly00372.mtl
o Text.001
v -3.769956 0.484570 0.000002
v -3.769956 0.437865 0.000002
v -3.659031 0.437865 0.000002
v -3.658990 0.485503 0.000002
v -3.279590 0.485503 0.000002
v -3.281534 0.111105 0.000002
v -3.658381 0.112686 0.000002
v -3.659031 0.229358 0.000002
v -3.523084 0.229358 0.000002
v -3.523084 0.339450 0.000002
v -3.769956 0.339450 0.000002
v -3.767819 0.092655 0.000002
v -3.746210 0.045443 0.000002
v -3.711390 0.015013 0.000002
v -3.653193 0.000000 0.000002
v -3.277425 0.000235 0.000002
v -3.214899 0.023457 0.000002
v -3.188456 0.051579 0.000002
v -3.170394 0.100211 0.000002
v -3.171568 0.507845 0.000002
v -3.192913 0.555057 0.000002
v -3.233917 0.589006 0.000002
v -3.269667 0.599562 0.000002
v -3.661156 0.600266 0.000002
v -3.698021 0.592056 0.000002
v -3.729962 0.572117 0.000002
v -3.758321 0.536040 0.000002
v -2.965119 0.160133 0.000002
v -2.965119 0.600500 0.000002
v -3.076045 0.600500 0.000002
v -3.076045 0.000000 0.000002
v -2.955945 0.000000 0.000002
v -2.585636 0.440367 0.000002
v -2.585636 0.000000 0.000002
v -2.475545 0.000000 0.000002
v -2.475545 0.600500 0.000002
v -2.595645 0.600500 0.000002
v -1.895895 0.600500 0.000002
v -2.287002 0.598389 0.000002
v -2.351732 0.560991 0.000002
v -2.371917 0.529295 0.000002
v -2.380466 0.484570 0.000002
v -2.380466 0.000000 0.000002
v -2.269540 0.000000 0.000002
v -2.269540 0.201835 0.000002
v -1.890057 0.201835 0.000002
v -1.890057 0.000000 0.000002
v -1.779965 0.000000 0.000002
v -1.779965 0.484570 0.000002
v -1.791459 0.536040 0.000002
v -1.819474 0.572117 0.000002
v -1.858117 0.594636 0.000002
v -1.890057 0.311927 0.000002
v -2.269540 0.311927 0.000002
v -2.269377 0.486354 0.000002
v -1.890098 0.485503 0.000002
v -1.686554 0.437865 0.000002
v -1.575628 0.437865 0.000002
v -1.575628 0.484570 0.000002
v -1.196187 0.485503 0.000002
v -1.201983 0.110092 0.000002
v -1.575586 0.114997 0.000002
v -1.575628 0.229358 0.000002
v -1.439681 0.229358 0.000002
v -1.439681 0.339450 0.000002
v -1.686554 0.339450 0.000002
v -1.686316 0.107969 0.000002
v -1.662807 0.045443 0.000002
v -1.627988 0.015013 0.000002
v -1.593093 0.002111 0.000002
v -1.194022 0.000235 0.000002
v -1.143972 0.015013 0.000002
v -1.114436 0.039509 0.000002
v -1.091917 0.078153 0.000002
v -1.086054 0.484570 0.000002
v -1.101066 0.542582 0.000002
v -1.157258 0.592056 0.000002
v -1.201983 0.600500 0.000002
v -1.577754 0.600266 0.000002
v -1.621400 0.589006 0.000002
v -1.657820 0.560991 0.000002
v -1.682754 0.515198 0.000002
v -0.881716 0.160133 0.000001
v -0.881716 0.600500 0.000001
v -0.992642 0.600500 0.000002
v -0.992642 0.000000 0.000002
v -0.872542 0.000000 0.000001
v -0.502234 0.440367 0.000001
v -0.502234 0.000000 0.000001
v -0.392142 0.000000 0.000001
v -0.392142 0.600500 0.000001
v -0.512242 0.600500 0.000001
v -0.184469 0.600500 0.000001
v -0.221768 0.594636 0.000001
v -0.266204 0.566722 0.000001
v -0.299449 0.500290 0.000001
v -0.298261 0.092655 0.000001
v -0.281164 0.051579 0.000001
v -0.248272 0.019000 0.000001
v -0.184469 0.000000 0.000001
v 0.184172 0.000000 0.000001
v 0.235641 0.011494 0.000001
v 0.271719 0.039509 0.000001
v 0.299867 0.107969 0.000001
v 0.296349 0.515198 0.000001
v 0.276645 0.555057 0.000001
v 0.235641 0.589006 0.000001
v 0.199891 0.599562 0.000001
v 0.184172 0.110092 0.000001
v -0.189438 0.114997 0.000001
v -0.189473 0.484570 0.000001
v 0.184172 0.490409 0.000001
v 0.390177 0.437865 0.000001
v 0.501103 0.437865 0.000001
v 0.501467 0.487125 0.000001
v 0.877301 0.490044 0.000001
v 0.880585 0.115930 0.000001
v 0.502562 0.111551 0.000001
v 0.501103 0.229358 0.000001
v 0.637049 0.229358 0.000001
v 0.637049 0.339450 0.000001
v 0.390177 0.339450 0.000001
v 0.390414 0.107969 0.000001
v 0.398726 0.071205 0.000001
v 0.424372 0.033778 0.000001
v 0.476267 0.003753 0.000001
v 0.874747 0.000000 0.000001
v 0.926217 0.011494 0.000001
v 0.962294 0.039509 0.000001
v 0.990677 0.115930 0.000001
v 0.986924 0.515198 0.000001
v 0.951168 0.572117 0.000001
v 0.898022 0.598389 0.000001
v 0.476267 0.596747 0.000001
v 0.424372 0.566722 0.000001
v 0.393976 0.515198 0.000001
v 1.161653 0.600500 0.000001
v 1.029877 0.600500 0.000001
v 1.307608 0.224354 0.000001
v 1.307608 0.000000 0.000001
v 1.417700 0.000000 0.000001
v 1.417700 0.224354 0.000001
v 1.695431 0.600500 0.000001
v 1.564489 0.600500 0.000001
v 1.362654 0.345288 0.000001
v 2.311778 0.000000 0.000000
v 2.311778 0.601334 -0.000000
v 2.201686 0.601334 -0.000000
v 2.201686 0.110092 -0.000000
v 1.711278 0.110092 0.000001
v 1.711278 0.000000 0.000001
v 2.520285 0.600500 -0.000000
v 2.450320 0.577043 -0.000000
v 2.408155 0.515198 -0.000000
v 2.404593 0.107969 -0.000000
v 2.412904 0.071205 -0.000000
v 2.456482 0.019000 -0.000000
v 2.520285 0.000000 0.000000
v 2.888926 0.000000 0.000000
v 2.940395 0.011494 -0.000000
v 2.993362 0.064461 -0.000000
v 3.003917 0.100211 -0.000000
v 3.004621 0.492531 -0.000000
v 2.996411 0.529295 -0.000000
v 2.946937 0.585488 -0.000000
v 2.896887 0.600266 -0.000000
v 2.888926 0.110092 -0.000000
v 2.520285 0.110092 -0.000000
v 2.518096 0.490044 -0.000000
v 2.891480 0.490044 -0.000000
v 3.662904 0.599666 -0.000000
v 3.155867 0.597529 -0.000000
v 3.102396 0.570933 -0.000000
v 3.074040 0.534659 -0.000000
v 3.062404 0.483736 -0.000000
v 3.066203 0.291725 -0.000000
v 3.108391 0.229752 -0.000000
v 3.148494 0.209804 -0.000000
v 3.552812 0.206005 -0.000000
v 3.552812 0.000000 0.000000
v 3.662904 0.000000 0.000000
v 3.179168 0.489575 -0.000000
v 3.551353 0.488115 -0.000000
v 3.551799 0.318083 -0.000000
v 3.173370 0.321002 -0.000000
v -3.769956 0.484570 -0.230902
v -3.769956 0.437865 -0.230902
v -3.659031 0.437865 -0.230902
v -3.658990 0.485503 -0.230902
v -3.279590 0.485503 -0.230902
v -3.282831 0.110457 -0.230902
v -3.657043 0.111105 -0.230902
v -3.659031 0.229358 -0.230902
v -3.523084 0.229358 -0.230902
v -3.523084 0.339450 -0.230902
v -3.769956 0.339450 -0.230902
v -3.769006 0.100211 -0.230902
v -3.746210 0.045443 -0.230902
v -3.698023 0.008445 -0.230902
v -3.653193 -0.000000 -0.230902
v -3.285386 -0.000000 -0.230902
v -3.214899 0.023457 -0.230902
v -3.171567 0.092655 -0.230902
v -3.169456 0.484570 -0.230902
v -3.188456 0.548921 -0.230902
v -3.221036 0.581500 -0.230902
v -3.285386 0.600500 -0.230902
v -3.653193 0.600500 -0.230902
v -3.704803 0.589006 -0.230902
v -3.754759 0.542582 -0.230902
v -2.965119 0.160133 -0.230902
v -2.965119 0.600500 -0.230902
v -3.076045 0.600500 -0.230902
v -3.076045 -0.000000 -0.230902
v -2.955945 -0.000000 -0.230902
v -2.585636 0.440367 -0.230902
v -2.585636 -0.000000 -0.230902
v -2.475545 -0.000000 -0.230902
v -2.475545 0.600500 -0.230902
v -2.595645 0.600500 -0.230902
v -2.271665 0.600266 -0.230903
v -2.315312 0.589006 -0.230903
v -2.351732 0.560991 -0.230903
v -2.371917 0.529295 -0.230903
v -2.380466 0.484570 -0.230902
v -2.380466 -0.000000 -0.230902
v -2.269540 -0.000000 -0.230903
v -2.269540 0.201835 -0.230903
v -1.890057 0.201835 -0.230903
v -1.890057 -0.000000 -0.230903
v -1.779965 -0.000000 -0.230903
v -1.779965 0.484570 -0.230903
v -1.803423 0.555057 -0.230903
v -1.872620 0.598389 -0.230903
v -1.890057 0.311927 -0.230903
v -2.269540 0.311927 -0.230903
v -2.269377 0.486354 -0.230903
v -1.890219 0.486354 -0.230903
v -1.686554 0.484570 -0.230903
v -1.686554 0.437865 -0.230903
v -1.575628 0.437865 -0.230903
v -1.575588 0.485503 -0.230903
v -1.196309 0.486354 -0.230903
v -1.201983 0.110092 -0.230903
v -1.575586 0.114997 -0.230903
v -1.575628 0.229358 -0.230903
v -1.439681 0.229358 -0.230903
v -1.439681 0.339450 -0.230903
v -1.686554 0.339450 -0.230903
v -1.686554 0.115930 -0.230903
v -1.680617 0.078153 -0.230903
v -1.662807 0.045443 -0.230903
v -1.627988 0.015013 -0.230903
v -1.585523 0.000938 -0.230903
v -1.186264 0.000938 -0.230903
v -1.143972 0.015013 -0.230903
v -1.114436 0.039509 -0.230903
v -1.089806 0.085303 -0.230903
v -1.088165 0.507845 -0.230903
v -1.105054 0.548921 -0.230903
v -1.164206 0.594636 -0.230903
v -1.201983 0.600500 -0.230903
v -1.600463 0.596747 -0.230903
v -1.652359 0.566722 -0.230903
v -1.678005 0.529295 -0.230903
v -0.881716 0.160133 -0.230903
v -0.881716 0.600500 -0.230903
v -0.992642 0.600500 -0.230903
v -0.992642 -0.000000 -0.230903
v -0.872542 -0.000000 -0.230903
v -0.502234 0.440367 -0.230903
v -0.502234 -0.000000 -0.230903
v -0.392142 -0.000000 -0.230903
v -0.392142 0.600500 -0.230903
v -0.512242 0.600500 -0.230903
v 0.184172 0.600500 -0.230903
v -0.192299 0.600266 -0.230903
v -0.241924 0.585488 -0.230903
v -0.271665 0.560991 -0.230903
v -0.298261 0.507845 -0.230903
v -0.298261 0.092655 -0.230903
v -0.281164 0.051579 -0.230903
v -0.248272 0.019000 -0.230903
v -0.207405 0.002111 -0.230903
v 0.184172 -0.000000 -0.230903
v 0.235641 0.011494 -0.230903
v 0.271719 0.039509 -0.230903
v 0.296349 0.085303 -0.230903
v 0.296349 0.515198 -0.230903
v 0.271719 0.560991 -0.230903
v 0.242183 0.585488 -0.230903
v -0.189473 0.115930 -0.230903
v -0.189334 0.486354 -0.230903
v 0.185104 0.490368 -0.230903
v 0.185104 0.110132 -0.230903
v 0.390177 0.484570 -0.230903
v 0.390177 0.437865 -0.230903
v 0.501103 0.437865 -0.230903
v 0.501103 0.484570 -0.230903
v 0.878599 0.489395 -0.230904
v 0.876531 0.110254 -0.230904
v 0.506008 0.110132 -0.230903
v 0.501103 0.229358 -0.230903
v 0.637049 0.229358 -0.230903
v 0.637049 0.339450 -0.230903
v 0.390177 0.339450 -0.230903
v 0.390177 0.115930 -0.230903
v 0.398726 0.071205 -0.230903
v 0.424372 0.033778 -0.230903
v 0.455329 0.011494 -0.230903
v 0.491210 0.000938 -0.230903
v 0.882708 0.000235 -0.230904
v 0.932759 0.015013 -0.230904
v 0.967220 0.045443 -0.230904
v 0.988566 0.092655 -0.230904
v 0.988566 0.507845 -0.230904
v 0.962294 0.560991 -0.230904
v 0.926217 0.589006 -0.230904
v 0.890466 0.599562 -0.230904
v 0.506941 0.600500 -0.230903
v 0.448744 0.585488 -0.230903
v 0.405375 0.542582 -0.230903
v 1.161653 0.600500 -0.230904
v 1.029877 0.600500 -0.230904
v 1.307608 0.224354 -0.230904
v 1.307608 -0.000000 -0.230904
v 1.417700 -0.000000 -0.230904
v 1.417700 0.224354 -0.230904
v 1.695431 0.600500 -0.230904
v 1.564489 0.600500 -0.230904
v 1.362654 0.345288 -0.230904
v 2.311778 -0.000000 -0.230904
v 2.311778 0.601334 -0.230904
v 2.201686 0.601334 -0.230904
v 2.201686 0.110092 -0.230904
v 1.711278 0.110092 -0.230904
v 1.711278 -0.000000 -0.230904
v 2.512455 0.600266 -0.230904
v 2.462830 0.585488 -0.230904
v 2.433089 0.560991 -0.230904
v 2.406493 0.507845 -0.230904
v 2.408154 0.085303 -0.230904
v 2.433088 0.039509 -0.230904
v 2.469363 0.011494 -0.230904
v 2.520285 -0.000000 -0.230904
v 2.896887 0.000235 -0.230904
v 2.940395 0.011494 -0.230904
v 2.971077 0.033778 -0.230904
v 3.001103 0.085303 -0.230904
v 3.004621 0.492531 -0.230904
v 2.993362 0.536040 -0.230904
v 2.953276 0.581500 -0.230904
v 2.896887 0.600266 -0.230904
v 2.515837 0.112686 -0.230904
v 2.515316 0.485503 -0.230904
v 2.888926 0.490409 -0.230904
v 2.889858 0.110132 -0.230904
v 3.662904 0.599666 -0.230904
v 3.155867 0.597529 -0.230904
v 3.120971 0.584469 -0.230904
v 3.091137 0.559679 -0.230904
v 3.070953 0.527940 -0.230904
v 3.062641 0.491567 -0.230904
v 3.063354 0.306459 -0.230904
v 3.077601 0.264480 -0.230904
v 3.108391 0.229752 -0.230904
v 3.148494 0.209804 -0.230904
v 3.552812 0.206005 -0.230904
v 3.552812 -0.000000 -0.230904
v 3.662904 -0.000000 -0.230904
v 3.173694 0.486291 -0.230904
v 3.551799 0.487588 -0.230904
v 3.552812 0.321935 -0.230904
v 3.173370 0.321002 -0.230904
vn -0.0000 -0.0000 1.0000
vn -0.0000 -0.0003 1.0000
vn -0.0003 -0.0000 1.0000
vn -0.0000 -0.0000 -1.0000
vn -0.0000 0.0001 -1.0000
vn 0.3481 0.9374 -0.0000
vn -0.5296 0.8483 -0.0000
vn -0.9749 -0.2228 -0.0000
vn 0.5877 0.8091 -0.0000
vn -0.5320 0.8468 -0.0000
vn 0.5325 0.8464 -0.0000
vn -0.6349 0.7726 -0.0000
vn 0.6388 0.7694 -0.0000
vn -0.6812 0.7321 -0.0000
vn -0.8069 -0.5907 -0.0000
vn 1.0000 -0.0001 -0.0001
vn -1.0000 -0.0000 -0.0000
vn 1.0000 -0.0000 -0.0000
vn 0.6854 0.7282 -0.0000
vn -0.6395 -0.7688 -0.0000
vn -0.0000 -1.0000 -0.0000
vn -1.0000 0.0001 -0.0000
vn -0.5342 -0.8453 -0.0000
vn -0.0000 1.0000 -0.0000
vn 0.8092 0.5876 -0.0001
vn 0.8092 0.5875 -0.0001
vn -0.2855 -0.9584 -0.0000
vn -0.2856 -0.9584 -0.0000
vn -0.8435 0.5372 -0.0000
vn 0.8464 0.5325 -0.0000
vn -1.0000 -0.0001 0.0001
vn -0.9093 0.4162 -0.0000
vn -0.0023 -1.0000 -0.0000
vn -0.9754 0.2205 -0.0000
vn 0.9760 0.2179 -0.0000
vn 0.9760 0.2178 -0.0000
vn 0.0904 0.9959 -0.0000
vn -0.1532 0.9882 -0.0000
vn 0.2179 0.9760 -0.0000
vn -0.3468 0.9379 -0.0000
vn -0.9754 -0.2205 -0.0000
vn -0.6811 0.7322 -0.0000
vn 0.6854 0.7281 -0.0002
vn 0.9591 -0.2832 -0.0000
vn -0.8056 0.5924 -0.0000
vn -0.8436 -0.5370 -0.0000
vn 0.7694 -0.6388 -0.0000
vn 1.0000 -0.0001 0.0002
vn 0.6853 -0.7282 -0.0000
vn -0.9581 0.2863 -0.0000
vn 0.9591 0.2832 -0.0000
vn -0.6349 -0.7726 -0.0000
vn 0.9959 0.0903 -0.0000
vn 0.4737 -0.8807 -0.0000
vn -0.9879 -0.1552 -0.0000
vn 0.9882 -0.1533 -0.0000
vn -0.3469 -0.9379 -0.0000
vn 0.9374 -0.3481 -0.0000
vn -0.1532 -0.9882 -0.0000
vn -0.9093 -0.4162 -0.0000
vn 0.0903 -0.9959 -0.0000
vn 0.8045 -0.5940 -0.0000
vn -0.7844 0.6203 -0.0000
vn 0.7856 0.6187 -0.0000
vn -0.7656 -0.6433 -0.0000
vn -0.7655 -0.6434 -0.0000
vn -0.8045 -0.5940 -0.0000
vn 0.7281 -0.6855 -0.0000
vn 0.9882 -0.1534 -0.0000
vn -0.9581 -0.2864 -0.0000
vn 0.6387 -0.7694 -0.0000
vn 0.9590 -0.2833 -0.0000
vn 1.0000 -0.0001 0.0001
vn -0.9360 -0.3519 -0.0000
vn 1.0000 -0.0004 0.0001
vn -0.5319 -0.8468 -0.0000
vn -0.8783 -0.4781 -0.0000
vn -0.8783 -0.4782 -0.0000
vn 0.8807 -0.4737 -0.0000
vn -0.1554 0.9879 -0.0000
vn -0.1554 0.9878 -0.0000
vn 0.4118 -0.9113 -0.0000
vn 0.8465 -0.5324 -0.0000
vn 0.8091 -0.5877 -0.0000
vn -0.2854 -0.9584 -0.0000
vn 0.2832 -0.9591 -0.0000
vn -0.3500 0.9367 -0.0000
vn -0.3501 0.9367 -0.0000
vn 0.3482 0.9374 -0.0000
vn 0.7281 -0.6855 -0.0001
vn -0.7239 -0.6899 -0.0000
vn -0.1554 -0.9879 -0.0000
vn -0.1554 -0.9878 -0.0000
vn 0.4736 0.8808 -0.0000
vn -0.5861 0.8102 -0.0000
vn -0.5861 0.8103 -0.0000
vn 0.5324 -0.8465 -0.0000
vn 0.7281 0.6855 -0.0000
vn 0.4119 -0.9112 -0.0000
vn 0.7694 0.6388 -0.0000
vn 0.2831 -0.9591 -0.0000
vn -0.2203 -0.9754 -0.0000
vn 0.2180 -0.9760 -0.0000
vn -0.2174 -0.9761 -0.0000
vn -0.8435 0.5371 -0.0000
vn -0.0295 -0.9996 -0.0000
vn -0.4142 0.9102 -0.0000
vn -0.4758 0.8796 -0.0000
vn -0.5889 0.8082 -0.0000
vn -0.5890 0.8082 -0.0000
vn -0.7661 0.6427 -0.0000
vn -0.9581 -0.2863 -0.0000
vn -0.2174 0.9761 -0.0000
vn -0.7679 0.6406 -0.0000
vn 0.7654 -0.6436 -0.0000
vn 0.9959 0.0904 -0.0000
vn 0.2831 0.9591 -0.0000
vn 0.2832 0.9591 -0.0000
vn 0.9111 -0.4121 -0.0000
vn -0.0000 1.0000 0.0001
vn -0.8780 0.4787 -0.0000
vn 0.8807 -0.4736 -0.0000
vn 0.4736 0.8807 -0.0000
vn -0.9957 0.0930 -0.0000
vn -0.5842 0.8116 -0.0000
vn 0.2830 0.9591 -0.0000
vn -0.9995 0.0303 -0.0000
vn -0.6813 0.7320 -0.0000
vn -0.4712 0.8820 -0.0000
vn -0.7656 0.6433 0.0001
vn 0.5876 0.8091 -0.0000
vn 0.5876 0.8092 -0.0000
vn 0.8091 0.5877 -0.0000
vn 0.6853 0.7282 -0.0000
vn 0.8807 0.4736 -0.0000
vn 0.3482 -0.9374 -0.0000
vn -0.7656 0.6433 -0.0000
vn 1.0000 0.0001 -0.0000
vn -0.8057 0.5924 -0.0000
vn -0.0000 -1.0000 -0.0001
vn -0.9958 0.0916 -0.0000
vn 0.9882 0.1535 -0.0000
vn 0.9882 0.1534 -0.0000
vn -0.9958 0.0915 -0.0000
vn -0.0299 0.9996 -0.0000
vn -0.0917 0.9958 -0.0000
vn -0.2822 0.9593 -0.0000
vn -0.3467 0.9380 -0.0000
vn 0.4120 0.9112 -0.0000
vt 0.815287 0.000000
vt 0.885350 0.000000
vt 0.891720 0.000000
vt 0.802548 0.000000
vt 0.808917 0.000000
vt 0.898089 0.000000
vt 0.796178 0.000000
vt 0.904459 0.000000
vt 0.910828 0.000000
vt 0.783440 0.000000
vt 0.789809 0.000000
vt 0.917197 0.000000
vt 0.777070 0.000000
vt 0.923567 0.000000
vt 0.929936 0.000000
vt 0.719745 0.000000
vt 0.980892 0.000000
vt 0.987261 0.000000
vt 0.713376 0.000000
vt 0.700637 0.000000
vt 1.000000 0.000000
vt 0.095541 0.000000
vt 0.101911 0.000000
vt 0.687898 0.000000
vt 0.694268 0.000000
vt 0.178344 0.000000
vt 0.184713 0.000000
vt 0.012739 0.000000
vt 0.019108 0.000000
vt 0.000000 0.000000
vt 0.006369 0.000000
vt 0.356688 0.000000
vt 0.363057 0.000000
vt 0.369427 0.000000
vt 0.350318 0.000000
vt 0.375796 0.000000
vt 0.343949 0.000000
vt 0.681529 0.000000
vt 0.261146 0.000000
vt 0.267516 0.000000
vt 0.382166 0.000000
vt 0.668790 0.000000
vt 0.675159 0.000000
vt 0.394904 0.000000
vt 0.643312 0.000000
vt 0.420382 0.000000
vt 0.426752 0.000000
vt 0.624204 0.000000
vt 0.630573 0.000000
vt 0.439490 0.000000
vt 0.617834 0.000000
vt 0.445860 0.000000
vt 0.452229 0.000000
vt 0.579618 0.000000
vt 0.585987 0.000000
vt 0.484076 0.000000
vt 0.560510 0.000000
vt 0.503185 0.000000
vt 0.509554 0.000000
vt 0.777778 0.000000
vt 0.888889 0.000000
vt 0.555556 0.000000
vt 0.111111 0.000000
vt 0.222222 0.000000
vt 0.333333 0.000000
vt 0.666667 0.000000
vt 0.444444 0.000000
vt 0.614458 0.000000
vt 0.626506 0.000000
vt 0.072289 0.000000
vt 0.590361 0.000000
vt 0.096386 0.000000
vt 0.108434 0.000000
vt 0.554217 0.000000
vt 0.566265 0.000000
vt 0.132530 0.000000
vt 0.530120 0.000000
vt 0.542169 0.000000
vt 0.156627 0.000000
vt 0.518072 0.000000
vt 0.168675 0.000000
vt 0.180723 0.000000
vt 0.409639 0.000000
vt 0.421687 0.000000
vt 0.277108 0.000000
vt 0.289157 0.000000
vt 0.397590 0.000000
vt 0.843373 0.000000
vt 0.855422 0.000000
vt 0.373494 0.000000
vt 0.385542 0.000000
vt 0.674699 0.000000
vt 0.686747 0.000000
vt 0.698795 0.000000
vt 0.301205 0.000000
vt 0.313253 0.000000
vt 0.349398 0.000000
vt 0.337349 0.000000
vt 0.361446 0.000000
vt 0.325301 0.000000
vt 0.834395 0.000000
vt 0.840764 0.000000
vt 0.866242 0.000000
vt 0.872611 0.000000
vt 0.770701 0.000000
vt 0.757962 0.000000
vt 0.942675 0.000000
vt 0.949045 0.000000
vt 0.707006 0.000000
vt 0.656051 0.000000
vt 0.407643 0.000000
vt 0.414013 0.000000
vt 0.636943 0.000000
vt 0.611465 0.000000
vt 0.541401 0.000000
vt 0.547771 0.000000
vt 0.522293 0.000000
vt 0.655629 0.000000
vt 0.006623 0.000000
vt 0.013245 0.000000
vt 0.629139 0.000000
vt 0.635762 0.000000
vt 0.039735 0.000000
vt 0.046358 0.000000
vt 0.602649 0.000000
vt 0.609272 0.000000
vt 0.066225 0.000000
vt 0.556291 0.000000
vt 0.562914 0.000000
vt 0.112583 0.000000
vt 0.549669 0.000000
vt 0.119205 0.000000
vt 0.125828 0.000000
vt 0.509934 0.000000
vt 0.158940 0.000000
vt 0.834437 0.000000
vt 0.841060 0.000000
vt 0.496689 0.000000
vt 0.503311 0.000000
vt 0.920530 0.000000
vt 0.927152 0.000000
vt 0.748344 0.000000
vt 0.754967 0.000000
vt 0.165563 0.000000
vt 0.172185 0.000000
vt 0.490066 0.000000
vt 0.662252 0.000000
vt 0.668874 0.000000
vt 0.178808 0.000000
vt 0.470199 0.000000
vt 0.198675 0.000000
vt 0.205298 0.000000
vt 0.443709 0.000000
vt 0.450331 0.000000
vt 0.225166 0.000000
vt 0.430464 0.000000
vt 0.238411 0.000000
vt 0.245033 0.000000
vt 0.417219 0.000000
vt 0.423841 0.000000
vt 0.251656 0.000000
vt 0.357616 0.000000
vt 0.364238 0.000000
vt 0.311258 0.000000
vt 0.317881 0.000000
vt 0.764331 0.000000
vt 0.936306 0.000000
vt 0.751592 0.000000
vt 0.401274 0.000000
vt 0.662420 0.000000
vt 0.433121 0.000000
vt 0.605096 0.000000
vt 0.573248 0.000000
vt 0.490446 0.000000
vt 0.496815 0.000000
vt 0.625000 0.000000
vt 0.750000 0.000000
vt 0.875000 0.000000
vt 0.125000 0.000000
vt 0.250000 0.000000
vt 0.500000 0.000000
vt 0.375000 0.000000
vt 0.200000 0.000000
vt 0.400000 0.000000
vt 0.600000 0.000000
vt 0.800000 0.000000
vt 0.649007 0.000000
vt 0.019868 0.000000
vt 0.026490 0.000000
vt 0.622517 0.000000
vt 0.569536 0.000000
vt 0.576159 0.000000
vt 0.099338 0.000000
vt 0.105960 0.000000
vt 0.516556 0.000000
vt 0.483444 0.000000
vt 0.185430 0.000000
vt 0.192053 0.000000
vt 0.476821 0.000000
vt 0.377483 0.000000
vt 0.384106 0.000000
vt 0.291391 0.000000
vt 0.509434 0.000000
vt 0.745283 0.000000
vt 0.679245 0.000000
vt 0.009434 0.000000
vt 0.669811 0.000000
vt 0.075472 0.000000
vt 0.084906 0.000000
vt 0.660377 0.000000
vt 0.160377 0.000000
vt 0.169811 0.000000
vt 0.650943 0.000000
vt 0.226415 0.000000
vt 0.641509 0.000000
vt 0.632075 0.000000
vt 0.235849 0.000000
vt 0.764151 0.000000
vt 0.773585 0.000000
vt 0.518868 0.000000
vt 0.528302 0.000000
vt 0.245283 0.000000
vt 0.886792 0.000000
vt 0.490566 0.000000
vt 0.896226 0.000000
vt 0.254717 0.000000
vt 0.330189 0.000000
vt 0.339623 0.000000
vt 0.424528 0.000000
vt 0.433962 0.000000
vt 0.821656 0.000000
vt 0.878981 0.000000
vt 0.598726 0.000000
vt 0.464968 0.000000
vt 0.458599 0.000000
vt 0.528662 0.000000
vt 0.650602 0.000000
vt 0.048193 0.000000
vt 0.036145 0.000000
vt 0.506024 0.000000
vt 0.192771 0.000000
vt 0.433735 0.000000
vt 0.253012 0.000000
vt 0.445783 0.000000
vt 0.828025 0.000000
vt 0.955414 0.000000
vt 0.726115 0.000000
vt 0.974522 0.000000
vt 0.649682 0.000000
vt 0.566879 0.000000
vt 0.059603 0.000000
vt 0.582781 0.000000
vt 0.086093 0.000000
vt 0.589404 0.000000
vt 0.463576 0.000000
vt 0.218543 0.000000
vt 0.390728 0.000000
vt 0.278146 0.000000
vt 0.397351 0.000000
vt 0.304636 0.000000
vt 0.370861 0.000000
vt 0.738854 0.000000
vt 0.961783 0.000000
vt 0.745223 0.000000
vt 0.993631 0.000000
vt 0.554140 0.000000
vt 0.515924 0.000000
vt 0.615894 0.000000
vt 0.072848 0.000000
vt 0.456954 0.000000
vt 0.211921 0.000000
vt 0.403974 0.000000
vt 0.258278 0.000000
vt 0.410596 0.000000
vt 0.271523 0.000000
vt 0.298013 0.000000
vt 0.066038 0.000000
vt 0.103774 0.000000
vt 0.094340 0.000000
vt 0.141509 0.000000
vt 0.132075 0.000000
vt 0.216981 0.000000
vt 0.283019 0.000000
vt 0.273585 0.000000
vt 0.377358 0.000000
vt 0.367925 0.000000
vt 0.396226 0.000000
vt 0.386792 0.000000
vt 0.481132 0.000000
vt 0.471698 0.000000
vt 0.853503 0.000000
vt 0.847134 0.000000
vt 0.535032 0.000000
vt 0.337748 0.000000
vt 0.331126 0.000000
vt 0.012048 0.000000
s 1
usemtl Material.003
f 23/1/1 24/2/1 25/3/1
f 22/4/1 23/5/1 25/6/1
f 22/7/1 25/8/1 26/9/1
f 21/10/1 22/11/1 26/12/1
f 21/13/1 26/14/1 27/15/1
f 21/16/1 27/17/1 1/18/1
f 20/19/1 21/16/1 1/18/1
f 20/20/1 1/21/1 4/22/1
f 5/23/1 20/20/1 4/22/1
f 19/24/1 20/25/1 5/26/1
f 19/24/1 5/26/1 6/27/1
f 3/28/1 4/29/1 1/30/1
f 3/28/1 1/30/1 2/31/1
f 9/32/1 10/33/1 11/34/1
f 9/32/1 11/34/1 8/35/1
f 8/35/1 11/34/1 12/36/1
f 7/37/1 8/35/1 12/36/1
f 19/38/1 6/39/1 7/40/1
f 19/38/1 7/40/1 12/41/1
f 18/42/1 19/43/1 12/44/1
f 18/45/1 12/46/1 13/47/1
f 17/48/1 18/49/1 13/50/1
f 17/51/1 13/52/1 14/53/1
f 16/54/1 17/55/1 14/56/1
f 16/57/1 14/58/1 15/59/1
f 35/60/1 36/61/1 37/21/1
f 35/60/1 37/21/1 33/62/1
f 33/62/1 37/21/1 28/30/1
f 28/30/1 29/63/1 30/64/1
f 28/30/1 30/64/1 31/65/1
f 35/60/1 33/62/1 34/66/1
f 32/67/1 33/62/1 28/30/1
f 32/67/1 28/30/1 31/65/1
f 52/68/1 38/69/1 39/70/1
f 52/71/1 39/72/1 40/73/1
f 51/74/1 52/75/1 40/76/1
f 50/77/1 51/78/1 40/79/1
f 50/80/1 40/81/1 41/82/1
f 49/83/1 50/84/1 41/85/1
f 49/83/1 41/85/1 42/86/1
f 49/87/1 42/86/1 55/88/2
f 56/89/1 49/87/1 55/88/2
f 48/90/1 49/91/1 56/21/1
f 48/90/1 56/21/1 53/92/1
f 54/93/1 55/94/2 42/95/1
f 54/93/1 42/95/1 43/96/1
f 48/90/1 53/92/1 46/97/1
f 46/97/1 53/92/1 54/93/1
f 46/97/1 54/93/1 45/98/1
f 45/98/1 54/93/1 43/96/1
f 48/90/1 46/97/1 47/99/1
f 44/100/1 45/98/1 43/96/1
f 77/101/1 78/102/1 79/103/1
f 77/101/1 79/103/1 80/104/1
f 77/13/1 80/14/1 81/15/1
f 76/105/1 77/13/1 81/15/1
f 76/106/1 81/107/1 82/108/1
f 75/20/1 76/109/1 82/21/1
f 75/20/1 82/21/1 59/22/1
f 60/23/3 75/20/1 59/22/1
f 74/24/1 75/25/1 60/26/3
f 74/24/1 60/26/3 61/27/1
f 58/28/1 59/29/1 82/30/1
f 58/28/1 82/30/1 57/31/1
f 64/32/1 65/33/1 66/34/1
f 64/32/1 66/34/1 63/35/1
f 63/35/1 66/34/1 67/36/1
f 62/37/1 63/35/1 67/36/1
f 74/38/1 61/39/1 62/40/1
f 74/38/1 62/40/1 67/41/1
f 74/110/1 67/111/1 68/112/1
f 73/113/1 74/45/1 68/47/1
f 73/51/1 68/52/1 69/53/1
f 72/114/1 73/51/1 69/53/1
f 72/57/1 69/58/1 70/59/1
f 71/115/1 72/116/1 70/117/1
f 90/60/1 91/61/1 92/21/1
f 90/60/1 92/21/1 88/62/1
f 88/62/1 92/21/1 83/30/1
f 83/30/1 84/63/1 85/64/1
f 83/30/1 85/64/1 86/65/1
f 90/60/1 88/62/1 89/66/1
f 87/67/1 88/62/1 83/30/1
f 87/67/1 83/30/1 86/65/1
f 108/118/1 93/119/1 94/120/1
f 107/121/1 108/122/1 94/123/1
f 107/121/1 94/123/1 95/124/1
f 106/125/1 107/126/1 95/127/1
f 105/128/1 106/129/1 95/130/1
f 105/131/1 95/132/1 96/133/1
f 105/134/1 96/135/1 111/136/1
f 112/137/1 105/134/1 111/136/1
f 104/138/1 105/139/1 112/140/1
f 104/138/1 112/140/1 109/141/1
f 110/142/1 111/143/1 96/144/1
f 110/142/1 96/144/1 97/145/1
f 104/146/1 109/147/1 110/148/1
f 104/146/1 110/148/1 97/149/1
f 104/150/1 97/151/1 98/152/1
f 103/153/1 104/154/1 98/155/1
f 103/156/1 98/157/1 99/158/1
f 102/159/1 103/160/1 99/161/1
f 101/162/1 102/163/1 99/164/1
f 101/162/1 99/164/1 100/165/1
f 132/7/1 133/4/1 134/8/1
f 132/11/1 134/9/1 135/12/1
f 132/166/1 135/167/1 136/107/1
f 131/168/1 132/106/1 136/108/1
f 131/20/1 136/21/1 115/22/1
f 116/23/1 131/20/1 115/22/1
f 130/24/1 131/25/1 116/26/1
f 130/24/1 116/26/1 117/27/1
f 114/28/1 115/29/1 136/30/1
f 114/28/1 136/30/1 113/31/1
f 120/32/1 121/33/1 122/34/1
f 120/32/1 122/34/1 119/35/1
f 119/35/1 122/34/1 123/36/1
f 118/37/1 119/35/1 123/36/1
f 130/38/1 117/39/1 118/40/1
f 130/38/1 118/40/1 123/41/1
f 130/42/1 123/44/1 124/169/1
f 129/110/1 130/170/1 124/111/1
f 129/113/1 124/47/1 125/171/1
f 128/172/1 129/114/1 125/53/1
f 128/173/1 125/174/1 126/175/1
f 127/115/1 128/116/1 126/117/1
f 142/176/1 143/177/1 144/178/1
f 142/176/1 144/178/1 145/21/1
f 145/21/1 137/30/1 138/179/1
f 145/21/1 138/179/1 139/180/1
f 142/176/1 145/21/1 139/180/1
f 141/181/1 142/176/1 139/180/1
f 141/181/1 139/180/1 140/182/1
f 146/30/1 147/183/1 148/184/1
f 146/30/1 148/184/1 149/185/1
f 146/30/1 149/185/1 150/186/1
f 146/30/1 150/186/1 151/21/1
f 166/187/1 152/188/1 153/189/1
f 165/190/1 166/121/1 153/124/1
f 164/191/1 165/192/1 153/193/1
f 164/129/1 153/194/1 154/130/1
f 163/134/1 164/195/1 154/135/1
f 163/134/1 154/135/1 169/136/1
f 170/137/1 163/134/1 169/136/1
f 162/138/1 163/139/1 170/140/1
f 162/138/1 170/140/1 167/141/1
f 168/142/1 169/143/1 154/144/1
f 168/142/1 154/144/1 155/145/1
f 162/146/1 167/147/1 168/148/1
f 162/146/1 168/148/1 155/149/1
f 162/196/1 155/197/1 156/198/1
f 161/199/1 162/196/1 156/198/1
f 161/156/1 156/157/1 157/158/1
f 160/159/1 161/160/1 157/161/1
f 159/200/1 160/201/1 157/202/1
f 159/162/1 157/164/1 158/165/1
f 181/203/1 171/30/1 183/204/1
f 183/205/1 171/30/1 172/206/1
f 183/207/1 172/208/1 173/209/1
f 183/210/1 173/211/1 174/212/1
f 183/213/1 174/214/1 182/215/1
f 182/216/1 174/214/1 175/217/1
f 181/203/1 183/218/1 184/219/1
f 185/220/1 182/221/1 175/217/1
f 185/220/1 175/217/1 176/222/1
f 181/203/1 184/223/1 179/224/1
f 179/224/1 184/223/1 185/225/1
f 179/224/1 185/225/1 176/226/1
f 179/224/1 176/227/1 177/228/1
f 179/224/1 177/229/1 178/230/1
f 181/203/1 179/224/1 180/181/1
f 207/231/4 209/2/4 208/232/4
f 206/1/4 209/2/4 207/231/4
f 206/10/4 210/14/4 209/12/4
f 205/13/4 210/14/4 206/10/4
f 205/16/4 186/18/4 210/17/4
f 204/19/4 186/18/4 205/16/4
f 204/20/4 189/22/4 186/21/4
f 190/23/4 189/22/4 204/20/4
f 203/24/4 190/26/4 204/25/4
f 203/24/4 191/27/4 190/26/4
f 188/28/4 186/30/4 189/29/4
f 188/28/4 187/31/4 186/30/4
f 194/32/4 196/34/4 195/33/4
f 194/32/4 193/35/4 196/34/4
f 193/35/4 197/36/4 196/34/4
f 192/37/4 197/36/4 193/35/4
f 203/38/4 192/40/4 191/39/4
f 203/38/4 197/41/4 192/40/4
f 203/110/4 198/112/4 197/111/4
f 202/49/4 198/171/4 203/113/4
f 202/233/4 199/234/4 198/235/4
f 201/173/4 199/174/4 202/54/4
f 201/115/4 200/236/4 199/117/4
f 218/60/4 220/21/4 219/61/4
f 218/60/4 216/62/4 220/21/4
f 216/62/4 211/30/4 220/21/4
f 211/30/4 213/64/4 212/63/4
f 211/30/4 214/65/4 213/64/4
f 218/60/4 217/66/4 216/62/4
f 215/67/4 211/30/4 216/62/4
f 215/67/4 214/65/4 211/30/4
f 234/237/4 222/238/4 221/239/4
f 234/71/4 223/73/4 222/72/4
f 233/74/4 223/76/4 234/75/4
f 233/240/4 224/241/4 223/82/4
f 232/242/4 224/243/4 233/244/4
f 232/83/4 225/86/4 224/85/4
f 232/87/4 237/88/4 225/86/4
f 238/89/4 237/88/4 232/87/4
f 231/90/4 238/21/4 232/91/4
f 231/90/4 235/92/4 238/21/4
f 236/93/4 225/95/4 237/94/4
f 236/93/4 226/96/4 225/95/4
f 231/90/4 229/97/4 235/92/4
f 229/97/4 236/93/4 235/92/4
f 229/97/4 228/98/4 236/93/4
f 228/98/4 226/96/4 236/93/4
f 231/90/4 230/99/4 229/97/4
f 227/100/4 226/96/4 228/98/4
f 261/231/4 263/232/4 262/245/4
f 261/1/4 264/3/4 263/2/4
f 260/105/4 264/15/4 261/13/4
f 260/168/4 265/246/4 264/108/4
f 260/247/4 239/17/4 265/248/4
f 259/16/4 239/17/4 260/247/4
f 259/20/4 242/22/4 239/21/4
f 243/23/4 242/22/4 259/20/4
f 258/24/4 243/26/4 259/25/4
f 258/24/4 244/27/4 243/26/4
f 241/28/4 239/30/4 242/29/4
f 241/28/4 240/31/4 239/30/4
f 247/32/4 249/34/4 248/33/4
f 247/32/4 246/35/4 249/34/4
f 246/35/4 250/36/4 249/34/4
f 245/37/4 250/36/4 246/35/4
f 258/38/4 245/40/4 244/39/4
f 258/38/4 250/41/4 245/40/4
f 258/170/4 251/111/4 250/169/4
f 258/110/4 252/112/4 251/111/4
f 257/45/4 252/46/4 258/249/4
f 257/51/4 253/53/4 252/52/4
f 256/114/4 253/53/4 257/51/4
f 256/173/4 254/175/4 253/174/4
f 255/250/4 254/175/4 256/173/4
f 273/60/4 275/21/4 274/61/4
f 273/60/4 271/62/4 275/21/4
f 271/62/4 266/30/4 275/21/4
f 266/30/4 268/64/4 267/63/4
f 266/30/4 269/65/4 268/64/4
f 273/60/4 272/66/4 271/62/4
f 270/67/4 266/30/4 271/62/4
f 270/67/4 269/65/4 266/30/4
f 276/118/4 278/188/4 277/120/4
f 291/190/4 278/124/4 276/121/4
f 291/126/4 279/127/4 278/251/4
f 290/252/4 279/253/4 291/254/4
f 289/129/4 279/194/4 290/191/4
f 289/129/4 280/130/4 279/194/4
f 289/134/4 293/136/4 280/135/4
f 294/137/4 293/136/4 289/134/4
f 288/138/4 294/140/4 289/139/4
f 288/138/4 295/141/4 294/140/4
f 292/142/4 280/144/4 293/143/4
f 292/142/4 281/145/4 280/144/4
f 288/146/4 292/148/4 295/147/4
f 288/146/4 281/149/4 292/148/4
f 287/255/4 281/152/4 288/150/4
f 287/154/4 282/155/4 281/256/4
f 287/156/4 283/158/4 282/157/4
f 286/257/4 283/258/4 287/259/4
f 285/163/4 283/260/4 286/261/4
f 285/163/4 284/164/4 283/260/4
f 319/245/4 321/232/4 320/104/4
f 318/1/4 321/2/4 319/231/4
f 317/11/4 321/9/4 318/7/4
f 317/13/4 322/15/4 321/14/4
f 316/262/4 322/263/4 317/264/4
f 316/109/4 296/21/4 322/265/4
f 316/20/4 299/22/4 296/21/4
f 300/23/4 299/22/4 316/20/4
f 315/24/4 300/26/4 316/25/4
f 315/24/4 301/27/4 300/26/4
f 298/28/4 296/30/4 299/29/4
f 298/28/4 297/31/4 296/30/4
f 304/32/4 306/34/4 305/33/4
f 304/32/4 303/35/4 306/34/4
f 303/35/4 307/36/4 306/34/4
f 302/37/5 307/36/4 303/35/4
f 315/38/4 302/40/5 301/39/4
f 315/38/4 307/41/4 302/40/5
f 315/42/4 308/169/4 307/44/4
f 314/110/4 308/111/4 315/170/4
f 314/113/4 309/171/4 308/47/4
f 313/51/4 309/52/4 314/48/4
f 313/233/4 310/234/4 309/235/4
f 312/54/4 310/56/4 313/55/4
f 312/266/4 311/267/4 310/59/4
f 328/176/4 330/178/4 329/177/4
f 328/176/4 331/21/4 330/178/4
f 331/21/4 324/179/4 323/30/4
f 331/21/4 325/180/4 324/179/4
f 328/176/4 325/180/4 331/21/4
f 327/181/4 325/180/4 328/176/4
f 327/181/4 326/182/4 325/180/4
f 332/30/4 334/184/4 333/183/4
f 332/30/4 335/185/4 334/184/4
f 332/30/4 336/186/4 335/185/4
f 332/30/4 337/21/4 336/186/4
f 353/121/4 339/124/4 338/123/4
f 352/126/4 339/251/4 353/268/4
f 352/125/4 340/269/4 339/127/4
f 351/192/4 340/253/4 352/252/4
f 351/129/4 341/130/4 340/194/4
f 350/134/4 341/135/4 351/195/4
f 350/134/4 355/136/4 341/135/4
f 356/137/4 355/136/4 350/134/4
f 349/138/4 356/140/4 350/139/4
f 349/138/4 357/141/4 356/140/4
f 354/142/4 341/144/4 355/143/4
f 354/142/4 342/145/4 341/144/4
f 349/146/4 354/148/4 357/147/4
f 349/146/4 342/149/4 354/148/4
f 348/270/4 342/271/4 349/255/4
f 348/270/4 343/256/4 342/271/4
f 347/272/4 343/273/4 348/274/4
f 347/259/4 344/258/4 343/275/4
f 347/261/4 345/260/4 344/276/4
f 346/163/4 345/260/4 347/261/4
f 370/203/4 372/204/4 358/30/4
f 372/205/4 359/206/4 358/30/4
f 372/207/4 360/208/4 359/277/4
f 372/207/4 361/278/4 360/279/4
f 372/210/4 362/280/4 361/281/4
f 372/213/4 363/214/4 362/282/4
f 372/213/4 371/215/4 363/214/4
f 370/203/4 373/219/4 372/218/4
f 374/220/4 363/217/4 371/221/4
f 374/220/4 364/222/4 363/217/4
f 370/203/4 368/224/4 373/223/4
f 368/224/4 374/225/4 373/223/4
f 368/224/4 364/226/4 374/225/4
f 368/224/4 365/283/4 364/284/4
f 368/224/4 366/285/4 365/286/4
f 368/224/4 367/287/4 366/288/4
f 370/203/4 369/181/4 368/224/4
f 107/190/6 291/190/6 276/121/6
f 26/9/7 25/8/7 209/9/7
f 176/284/8 364/284/8 365/283/8
f 22/11/9 21/10/9 206/11/9
f 95/251/10 278/251/10 279/127/10
f 107/126/11 106/125/11 291/126/11
f 26/12/12 209/12/12 210/14/12
f 21/13/13 205/13/13 206/10/13
f 27/15/14 26/14/14 210/15/14
f 177/228/15 176/227/15 365/228/15
f 131/25/16 130/24/16 315/24/16 316/25/16
f 117/27/17 116/26/17 300/26/17 301/27/17
f 115/29/18 114/28/18 298/28/18 299/29/18
f 106/252/19 290/252/19 291/254/19
f 177/286/20 365/286/20 366/285/20
f 114/28/21 113/31/21 297/31/21 298/28/21
f 113/31/17 136/30/17 296/30/22 297/31/22
f 121/33/18 120/32/18 304/32/18 305/33/18
f 177/288/23 366/288/23 367/287/23
f 122/34/24 121/33/24 305/33/24 306/34/24
f 120/32/21 119/35/21 303/35/21 304/32/21
f 123/36/17 122/34/17 306/34/17 307/36/17
f 119/35/18 118/37/18 302/37/18 303/35/18
f 106/129/25 289/129/25 290/191/26
f 178/230/27 177/229/27 367/230/28
f 49/91/18 48/90/18 231/90/18 232/91/18
f 95/194/29 279/194/29 280/130/29
f 106/129/30 105/128/30 289/129/30
f 53/92/31 56/21/31 238/21/31 235/92/31
f 55/94/18 54/93/18 236/93/18 237/94/18
f 43/96/17 42/95/17 225/95/17 226/96/17
f 181/203/21 180/181/21 369/181/21 370/203/21
f 180/181/17 179/224/17 368/224/17 369/181/17
f 96/133/32 95/132/32 280/133/32
f 179/289/33 178/290/33 367/290/33 368/289/33
f 54/93/24 53/92/24 235/92/24 236/93/24
f 46/97/21 45/98/21 228/98/21 229/97/21
f 1/18/34 27/17/34 210/17/34 186/18/34
f 21/16/35 20/19/36 204/19/35 205/16/35
f 48/90/21 47/99/21 230/99/21 231/90/21
f 47/99/17 46/97/17 229/97/17 230/99/17
f 45/98/18 44/100/18 227/100/18 228/98/18
f 44/100/21 43/96/21 226/96/21 227/100/21
f 79/291/24 78/292/24 262/292/24 263/291/24
f 78/102/37 77/101/37 262/102/37
f 80/104/38 79/103/38 263/104/38
f 77/231/39 261/231/39 262/245/39
f 5/23/21 4/22/21 189/22/21 190/23/21
f 112/137/21 111/136/21 293/136/21 294/137/21
f 80/2/40 263/2/40 264/3/40
f 118/40/24 117/39/24 301/39/24 302/40/24
f 124/169/41 123/44/41 307/44/41 308/169/41
f 81/15/42 80/14/42 264/15/42
f 77/13/43 76/105/19 260/105/19 261/13/19
f 130/170/44 129/110/44 314/110/44 315/170/44
f 82/108/45 81/107/45 264/108/45
f 20/25/18 19/24/18 203/24/18 204/25/18
f 82/108/29 264/108/29 265/246/29
f 125/171/46 124/47/46 308/47/46 309/171/46
f 6/27/17 5/26/17 190/26/17 191/27/17
f 4/29/18 3/28/18 188/28/18 189/29/18
f 3/28/21 2/31/21 187/31/21 188/28/21
f 105/139/18 104/138/18 288/138/18 289/139/18
f 2/31/17 1/30/17 186/30/17 187/31/17
f 10/33/18 9/32/18 194/32/18 195/33/18
f 109/141/17 112/140/17 294/140/17 295/141/17
f 11/34/24 10/33/24 195/33/24 196/34/24
f 129/51/47 313/51/47 314/48/47
f 111/143/48 110/142/48 292/142/48 293/143/48
f 9/32/21 8/35/21 193/35/21 194/32/21
f 97/145/17 96/144/17 280/144/17 281/145/17
f 12/36/17 11/34/17 196/34/17 197/36/17
f 8/35/18 7/37/18 192/37/18 193/35/18
f 129/114/49 128/172/49 313/114/49
f 82/248/50 265/248/50 239/17/50
f 76/16/51 259/16/51 260/247/51
f 125/235/52 309/235/52 310/234/52
f 76/109/53 75/20/53 259/109/53
f 168/148/24 167/147/24 357/147/24 354/148/24
f 128/54/54 312/54/54 313/55/54
f 156/198/55 155/197/55 342/198/55
f 162/196/56 161/199/56 349/196/56
f 126/175/57 125/174/57 310/175/57
f 60/23/21 59/22/21 242/22/21 243/23/21
f 161/270/58 348/270/58 349/255/58
f 126/59/59 310/59/59 311/267/59
f 156/271/60 342/271/60 343/256/60
f 128/116/61 127/115/61 312/116/61
f 127/293/21 126/236/21 311/236/21 312/293/21
f 143/177/62 142/176/62 328/176/62 329/177/62
f 144/178/24 143/177/24 329/177/24 330/178/24
f 110/148/24 109/147/24 295/147/24 292/148/24
f 145/21/63 144/178/63 330/178/63 331/21/63
f 137/30/64 145/21/64 331/21/64 323/30/64
f 7/40/24 6/39/24 191/39/24 192/40/24
f 138/179/24 137/30/24 323/30/24 324/179/24
f 157/158/65 156/157/66 343/158/65
f 139/180/67 138/179/67 324/179/67 325/180/67
f 142/176/18 141/181/18 327/181/18 328/176/18
f 161/160/68 160/159/68 348/160/68
f 141/181/21 140/182/21 326/182/21 327/181/21
f 19/43/69 18/42/69 203/43/69
f 140/182/17 139/180/17 325/180/17 326/182/17
f 147/183/18 146/30/18 332/30/18 333/183/18
f 148/184/24 147/183/24 333/183/24 334/184/24
f 98/152/70 97/151/70 281/152/70
f 160/272/71 347/272/71 348/274/71
f 149/185/17 148/184/17 334/184/17 335/185/17
f 104/255/72 287/255/72 288/150/72
f 150/186/24 149/185/24 335/185/24 336/186/24
f 146/30/21 151/21/21 337/21/21 332/30/21
f 151/21/17 150/186/17 336/186/17 337/21/17
f 75/25/73 74/24/73 258/24/73 259/25/73
f 12/111/74 197/111/74 198/112/74
f 152/119/24 166/30/24 353/30/24 338/119/24
f 61/27/17 60/26/17 243/26/17 244/27/17
f 59/29/75 58/28/75 241/28/75 242/29/75
f 157/275/76 343/275/76 344/258/76
f 58/28/21 57/31/21 240/31/21 241/28/21
f 57/31/17 82/30/17 239/30/17 240/31/17
f 98/256/77 281/256/77 282/155/78
f 65/33/18 64/32/18 247/32/18 248/33/18
f 104/154/79 103/153/79 287/154/79
f 13/47/78 12/46/78 198/47/78
f 66/34/24 65/33/24 248/33/24 249/34/24
f 153/189/80 152/188/81 338/189/80
f 64/32/21 63/35/21 246/35/21 247/32/21
f 160/201/82 159/200/82 347/201/82
f 67/36/17 66/34/17 249/34/17 250/36/17
f 18/49/83 202/49/83 203/113/83
f 63/35/18 62/37/18 245/37/18 246/35/18
f 18/49/84 17/48/84 202/49/84
f 99/158/66 98/157/66 282/157/66 283/158/66
f 157/276/85 344/276/85 345/260/85
f 159/163/86 346/163/86 347/261/86
f 153/123/87 338/123/88 339/124/88
f 166/121/89 165/190/89 353/121/89
f 103/160/90 102/159/68 287/160/68
f 14/53/91 13/52/91 198/53/91
f 158/165/92 157/164/92 345/165/93
f 165/126/94 352/126/94 353/268/94
f 14/235/52 198/235/52 199/234/52
f 159/294/21 158/295/21 345/295/21 346/294/21
f 153/127/95 339/127/95 340/269/96
f 171/30/18 181/203/18 370/203/18 358/30/18
f 102/257/97 286/257/97 287/259/97
f 17/55/54 16/54/54 202/55/54
f 165/192/98 351/192/98 352/252/98
f 16/173/99 201/173/99 202/54/99
f 165/192/100 164/191/100 351/192/100
f 102/163/101 285/163/86 286/261/101
f 172/206/24 171/30/24 358/30/24 359/206/24
f 99/260/102 283/260/102 284/164/102
f 102/163/103 101/162/103 285/163/103
f 15/59/104 14/58/104 199/59/104
f 154/130/105 153/194/29 340/194/29 341/130/29
f 100/165/92 99/164/92 284/165/92
f 62/40/24 61/39/24 244/39/24 245/40/24
f 101/294/21 100/295/21 284/295/21 285/294/21
f 15/117/106 199/117/106 200/236/106
f 172/277/107 359/277/107 360/208/107
f 16/293/21 15/236/21 200/236/21 201/293/21
f 173/209/108 172/208/108 360/209/108
f 134/291/24 133/292/24 319/292/24 320/291/24
f 36/61/18 35/60/18 218/60/18 219/61/18
f 37/21/24 36/61/24 219/61/24 220/21/24
f 173/279/109 360/279/109 361/278/110
f 28/30/111 37/21/111 220/21/111 211/30/111
f 29/63/18 28/30/18 211/30/18 212/63/18
f 67/169/112 250/169/112 251/111/112
f 30/64/24 29/63/24 212/63/24 213/64/24
f 31/65/17 30/64/17 213/64/17 214/65/17
f 134/104/113 320/104/113 321/232/113
f 35/60/21 34/66/21 217/66/21 218/60/21
f 68/112/74 67/111/74 251/111/74 252/112/74
f 34/66/17 33/62/17 216/62/17 217/66/17
f 173/281/114 361/281/114 362/280/114
f 33/62/115 32/67/115 215/67/115 216/62/115
f 164/195/116 163/134/116 350/134/116 351/195/116
f 32/67/21 31/65/21 214/65/21 215/67/21
f 133/1/117 318/1/118 319/231/118
f 74/45/119 257/45/119 258/249/119
f 39/296/120 38/30/120 234/30/120 221/296/120
f 174/212/121 173/211/121 362/212/121
f 74/45/122 73/113/122 257/45/79
f 170/137/21 169/136/21 355/136/21 356/137/21
f 39/239/38 221/239/38 222/238/38
f 133/4/123 132/7/123 318/4/123
f 132/11/11 317/11/11 318/7/11
f 174/282/124 362/282/124 363/214/124
f 183/213/21 182/215/21 371/215/21 372/213/21
f 135/12/125 134/9/125 321/12/125
f 38/69/126 52/68/126 234/69/126
f 69/53/91 68/52/91 252/52/91 253/53/91
f 73/51/68 72/114/68 256/114/68 257/51/68
f 175/217/127 174/214/127 363/217/127
f 135/14/128 321/14/128 322/15/128
f 40/73/129 39/72/129 222/72/129 223/73/129
f 136/107/130 135/167/130 322/107/130
f 52/75/131 51/74/131 233/74/131 234/75/132
f 132/106/133 131/168/133 317/106/133
f 51/78/134 50/77/134 233/78/134
f 69/174/57 253/174/57 254/175/57
f 131/262/135 316/262/135 317/264/135
f 72/250/136 255/250/136 256/173/136
f 184/219/17 183/218/17 372/218/17 373/219/17
f 182/221/18 185/220/18 374/220/18 371/221/18
f 41/82/137 40/81/137 223/82/137
f 176/222/17 175/217/17 363/217/17 364/222/17
f 70/59/104 69/58/104 254/59/104
f 163/139/138 162/138/138 349/138/138 350/139/138
f 41/82/139 223/82/139 224/241/139
f 167/141/17 170/140/17 356/140/17 357/141/17
f 169/143/18 168/142/18 354/142/18 355/143/18
f 155/145/17 154/144/17 341/144/17 342/145/17
f 72/116/61 71/115/61 255/116/61
f 71/293/21 70/236/140 254/236/21 255/293/140
f 91/61/18 90/60/18 273/60/18 274/61/18
f 136/265/141 322/265/141 296/21/141
f 92/21/24 91/61/24 274/61/24 275/21/24
f 83/30/111 92/21/111 275/21/111 266/30/111
f 84/63/18 83/30/18 266/30/18 267/63/18
f 50/242/51 232/242/51 233/244/51
f 85/64/24 84/63/24 267/63/24 268/64/24
f 86/65/17 85/64/17 268/64/17 269/65/17
f 90/60/21 89/66/21 272/66/21 273/60/21
f 24/291/24 23/292/24 207/292/24 208/291/24
f 89/66/17 88/62/17 271/62/17 272/66/17
f 88/62/115 87/67/115 270/67/115 271/62/115
f 116/23/21 115/22/21 299/22/21 300/23/21
f 87/67/21 86/65/21 269/65/21 270/67/21
f 50/84/142 49/83/143 232/84/143
f 93/119/24 108/30/24 276/30/24 277/119/24
f 42/86/144 41/85/144 224/85/144 225/86/144
f 94/120/145 93/119/145 277/120/145
f 94/120/146 277/120/146 278/188/146
f 24/232/147 208/232/147 209/2/147
f 23/1/117 206/1/117 207/231/117
f 25/3/148 24/2/148 209/3/148
f 56/89/21 55/88/21 237/88/21 238/89/21
f 108/122/118 107/121/118 276/122/118
f 23/5/149 22/4/149 206/5/149
f 185/225/24 184/223/24 373/223/24 374/225/24
f 95/124/88 94/123/88 278/124/88
