# Blender 4.5.3 LTS
# www.blender.org
mtllib polydecimateobj.mtl
o Text
v -3.771624 0.438196 -0.000001
v -3.659031 0.437865 0.000002
v -3.658990 0.485503 0.000002
v -3.279590 0.485503 0.000002
v -3.281534 0.111105 0.000002
v -3.658381 0.112686 0.000002
v -3.659031 0.229358 0.000002
v -3.523084 0.229358 0.000002
v -3.523084 0.339450 0.000002
v -3.769956 0.339450 0.000002
v -3.769281 0.099313 0.000001
v -3.755705 0.057915 0.000000
v -3.719268 0.019235 0.000001
v -3.678089 0.001720 0.000000
v -3.262987 0.001491 0.000002
v -3.222714 0.017542 0.000003
v -3.189433 0.049468 0.000003
v -3.171003 0.092839 0.000002
v -3.169456 0.484570 0.000002
v -3.174466 0.521331 0.000002
v -3.199418 0.563880 0.000003
v -3.250683 0.597316 0.000003
v -3.675550 0.599336 0.000002
v -3.730600 0.573120 0.000003
v -3.764043 0.524614 -0.000002
v -2.965119 0.160133 0.000002
v -2.965119 0.600500 0.000002
v -3.076045 0.600500 0.000002
v -3.076045 0.000000 0.000002
v -2.955945 0.000000 0.000002
v -2.585636 0.440367 0.000002
v -2.585636 0.000000 0.000002
v -2.475545 0.000000 0.000002
v -2.475545 0.600500 0.000002
v -2.595645 0.600500 0.000002
v -1.880111 0.599879 0.000003
v -2.291779 0.597975 0.000001
v -2.345098 0.570011 0.000000
v -2.376050 0.520134 0.000000
v -2.380466 0.484570 0.000002
v -2.380466 0.000000 0.000002
v -2.269540 0.000000 0.000002
v -2.269540 0.201835 0.000002
v -1.890057 0.201835 0.000002
v -1.890057 0.000000 0.000002
v -1.779965 0.000000 0.000002
v -1.779965 0.484570 0.000002
v -1.786935 0.527041 0.000003
v -1.827459 0.580756 0.000001
v -1.890057 0.311927 0.000002
v -2.269540 0.311927 0.000002
v -2.269377 0.486354 0.000002
v -1.890098 0.485503 0.000002
v -1.686554 0.484570 0.000002
v -1.686554 0.437865 0.000002
v -1.575628 0.437865 0.000002
v -1.575628 0.484570 0.000002
v -1.196187 0.485503 0.000002
v -1.201983 0.110092 0.000002
v -1.575586 0.114997 0.000002
v -1.575628 0.229358 0.000002
v -1.439681 0.229358 0.000002
v -1.439681 0.339450 0.000002
v -1.686554 0.339450 0.000002
v -1.685372 0.096967 0.000002
v -1.667034 0.049282 0.000004
v -1.610729 0.004952 0.000006
v -1.173405 0.001972 0.000003
v -1.117002 0.035434 0.000004
v -1.088848 0.085303 0.000003
v -1.086054 0.484570 0.000002
v -1.097244 0.539078 0.000004
v -1.144036 0.586268 0.000001
v -1.187185 0.599983 0.000005
v -1.604903 0.596970 0.000002
v -1.650674 0.569031 0.000003
v -1.679074 0.527909 0.000004
v -0.881716 0.160133 0.000001
v -0.881716 0.600500 0.000001
v -0.992642 0.600500 0.000002
v -0.992642 0.000000 0.000002
v -0.872542 0.000000 0.000001
v -0.502234 0.440367 0.000001
v -0.502234 0.000000 0.000001
v -0.392142 0.000000 0.000001
v -0.392142 0.600500 0.000001
v -0.512242 0.600500 0.000001
v -0.218999 0.596835 -0.000003
v -0.263562 0.569737 0.000001
v -0.294602 0.525223 -0.000008
v -0.300399 0.484570 0.000001
v -0.299216 0.096808 0.000001
v -0.279859 0.046925 0.000001
v -0.222835 0.004695 0.000005
v 0.201532 0.000827 0.000002
v 0.245540 0.015974 0.000003
v 0.295984 0.075135 0.000000
v 0.300102 0.484570 0.000001
v 0.296349 0.515198 0.000001
v 0.275267 0.558405 0.000002
v 0.216492 0.598126 0.000005
v 0.184172 0.110092 0.000001
v -0.189438 0.114997 0.000001
v -0.189473 0.484570 0.000001
v 0.184172 0.490409 0.000001
v 0.390177 0.437865 0.000001
v 0.501103 0.437865 0.000001
v 0.501467 0.487125 0.000001
v 0.877301 0.490044 0.000001
v 0.880585 0.115930 0.000001
v 0.502562 0.111551 0.000001
v 0.501103 0.229358 0.000001
v 0.637049 0.229358 0.000001
v 0.637049 0.339450 0.000001
v 0.390177 0.339450 0.000001
v 0.390414 0.107969 0.000001
v 0.403698 0.058256 0.000004
v 0.462592 0.005890 0.000001
v 0.892045 0.000810 0.000001
v 0.935113 0.015337 0.000003
v 0.984931 0.071670 0.000002
v 0.990677 0.484570 0.000001
v 0.980121 0.539256 -0.000003
v 0.917275 0.595445 0.000002
v 0.470425 0.597308 0.000001
v 0.415054 0.557647 0.000002
v 0.392396 0.510282 0.000002
v 1.161653 0.600500 0.000001
v 1.029877 0.600500 0.000001
v 1.307608 0.224354 0.000001
v 1.307608 0.000000 0.000001
v 1.417700 0.000000 0.000001
v 1.417700 0.224354 0.000001
v 1.695431 0.600500 0.000001
v 1.564489 0.600500 0.000001
v 1.362654 0.345288 0.000001
v 2.311778 0.000000 0.000000
v 2.311778 0.601334 -0.000000
v 2.201686 0.601334 -0.000000
v 2.201686 0.110092 -0.000000
v 1.711278 0.110092 0.000001
v 1.711278 0.000000 0.000001
v 2.494204 0.598276 0.000002
v 2.442521 0.573024 0.000001
v 2.408258 0.518167 0.000002
v 2.404355 0.484570 -0.000000
v 2.405601 0.093811 0.000000
v 2.434212 0.035528 0.000005
v 2.494270 0.001888 0.000001
v 2.933320 0.006008 0.000000
v 2.988556 0.054109 0.000001
v 3.003774 0.096175 -0.000000
v 3.003695 0.503665 -0.000000
v 2.988303 0.546591 -0.000005
v 2.948318 0.585336 0.000001
v 2.908798 0.599387 0.000000
v 2.888926 0.110092 -0.000000
v 2.520285 0.110092 -0.000000
v 2.518096 0.490044 -0.000000
v 2.891480 0.490044 -0.000000
v 3.662904 0.599666 -0.000000
v 3.142008 0.595267 -0.000000
v 3.089549 0.559510 0.000001
v 3.064684 0.510525 0.000001
v 3.064399 0.292767 0.000001
v 3.087859 0.248960 -0.000002
v 3.140763 0.209435 -0.000001
v 3.552812 0.206005 -0.000000
v 3.552812 0.000000 0.000000
v 3.662904 0.000000 0.000000
v 3.179168 0.489575 -0.000000
v 3.551353 0.488115 -0.000000
v 3.551799 0.318083 -0.000000
v 3.173370 0.321002 -0.000000
v -3.772498 0.438986 -0.230909
v -3.659031 0.437865 -0.230902
v -3.658990 0.485503 -0.230902
v -3.279590 0.485503 -0.230902
v -3.282831 0.110457 -0.230902
v -3.657043 0.111105 -0.230902
v -3.659031 0.229358 -0.230902
v -3.523084 0.229358 -0.230902
v -3.523084 0.339450 -0.230902
v -3.769956 0.339450 -0.230902
v -3.765429 0.077249 -0.230903
v -3.726676 0.024647 -0.230903
v -3.678359 0.001874 -0.230901
v -3.248724 0.003124 -0.230902
v -3.197930 0.038902 -0.230901
v -3.171598 0.085185 -0.230901
v -3.169456 0.484570 -0.230902
v -3.175612 0.527420 -0.230903
v -3.211481 0.575081 -0.230902
v -3.257726 0.598788 -0.230903
v -3.668923 0.599562 -0.230902
v -3.719098 0.582147 -0.230901
v -3.760808 0.532854 -0.230903
v -2.965119 0.160133 -0.230902
v -2.965119 0.600500 -0.230902
v -3.076045 0.600500 -0.230902
v -3.076045 -0.000000 -0.230902
v -2.955945 -0.000000 -0.230902
v -2.585636 0.440367 -0.230902
v -2.585636 -0.000000 -0.230902
v -2.475545 -0.000000 -0.230902
v -2.475545 0.600500 -0.230902
v -2.595645 0.600500 -0.230902
v -2.293093 0.598448 -0.230901
v -2.343734 0.570122 -0.230904
v -2.375057 0.522567 -0.230904
v -2.380466 0.484570 -0.230902
v -2.380466 -0.000000 -0.230902
v -2.269540 -0.000000 -0.230903
v -2.269540 0.201835 -0.230903
v -1.890057 0.201835 -0.230903
v -1.890057 -0.000000 -0.230903
v -1.779965 -0.000000 -0.230903
v -1.779965 0.484570 -0.230903
v -1.784075 0.518060 -0.230904
v -1.807429 0.560764 -0.230902
v -1.856349 0.595978 -0.230900
v -1.890057 0.311927 -0.230903
v -2.269540 0.311927 -0.230903
v -2.269377 0.486354 -0.230903
v -1.890219 0.486354 -0.230903
v -1.687887 0.438305 -0.230902
v -1.575628 0.437865 -0.230903
v -1.575588 0.485503 -0.230903
v -1.196309 0.486354 -0.230903
v -1.201983 0.110092 -0.230903
v -1.575586 0.114997 -0.230903
v -1.575628 0.229358 -0.230903
v -1.439681 0.229358 -0.230903
v -1.439681 0.339450 -0.230903
v -1.686554 0.339450 -0.230903
v -1.685799 0.099718 -0.230903
v -1.672372 0.057868 -0.230901
v -1.630916 0.016013 -0.230904
v -1.585523 0.000938 -0.230903
v -1.163750 0.004312 -0.230902
v -1.116695 0.036517 -0.230903
v -1.092211 0.075057 -0.230903
v -1.086054 0.115930 -0.230903
v -1.086054 0.484570 -0.230903
v -1.092890 0.529909 -0.230900
v -1.125563 0.572117 -0.230903
v -1.163513 0.595955 -0.230900
v -1.591628 0.599233 -0.230901
v -1.633394 0.582789 -0.230904
v -1.678402 0.532762 -0.230901
v -0.881716 0.160133 -0.230903
v -0.881716 0.600500 -0.230903
v -0.992642 0.600500 -0.230903
v -0.992642 -0.000000 -0.230903
v -0.872542 -0.000000 -0.230903
v -0.502234 0.440367 -0.230903
v -0.502234 -0.000000 -0.230903
v -0.392142 -0.000000 -0.230903
v -0.392142 0.600500 -0.230903
v -0.512242 0.600500 -0.230903
v -0.202147 0.599773 -0.230902
v -0.257790 0.576494 -0.230906
v -0.295740 0.520460 -0.230907
v -0.300399 0.484570 -0.230903
v -0.297211 0.079373 -0.230903
v -0.261386 0.028750 -0.230902
v -0.215720 0.002804 -0.230894
v 0.225803 0.004552 -0.230902
v 0.283224 0.052879 -0.230902
v 0.299163 0.100211 -0.230903
v 0.300102 0.484570 -0.230903
v 0.287682 0.541680 -0.230905
v 0.224390 0.595932 -0.230901
v -0.189473 0.115930 -0.230903
v -0.189334 0.486354 -0.230903
v 0.185104 0.490368 -0.230903
v 0.185104 0.110132 -0.230903
v 0.390177 0.484570 -0.230903
v 0.390177 0.437865 -0.230903
v 0.501103 0.437865 -0.230903
v 0.501103 0.484570 -0.230903
v 0.878599 0.489395 -0.230904
v 0.876531 0.110254 -0.230904
v 0.506008 0.110132 -0.230903
v 0.501103 0.229358 -0.230903
v 0.637049 0.229358 -0.230903
v 0.637049 0.339450 -0.230903
v 0.390177 0.339450 -0.230903
v 0.390177 0.115930 -0.230903
v 0.398230 0.067638 -0.230904
v 0.442856 0.017981 -0.230903
v 0.485276 0.001216 -0.230903
v 0.903937 0.002436 -0.230907
v 0.965368 0.039559 -0.230906
v 0.989941 0.098194 -0.230903
v 0.990677 0.484570 -0.230904
v 0.978424 0.540422 -0.230906
v 0.935427 0.584773 -0.230905
v 0.891865 0.599749 -0.230904
v 0.473893 0.597059 -0.230899
v 0.426525 0.569665 -0.230903
v 0.396704 0.525890 -0.230900
v 1.161653 0.600500 -0.230904
v 1.029877 0.600500 -0.230904
v 1.307608 0.224354 -0.230904
v 1.307608 -0.000000 -0.230904
v 1.417700 -0.000000 -0.230904
v 1.417700 0.224354 -0.230904
v 1.695431 0.600500 -0.230904
v 1.564489 0.600500 -0.230904
v 1.362654 0.345288 -0.230904
v 2.311778 -0.000000 -0.230904
v 2.311778 0.601334 -0.230904
v 2.201686 0.601334 -0.230904
v 2.201686 0.110092 -0.230904
v 1.711278 0.110092 -0.230904
v 1.711278 -0.000000 -0.230904
v 2.494964 0.598727 -0.230900
v 2.451901 0.578862 -0.230904
v 2.420265 0.544651 -0.230905
v 2.405234 0.502679 -0.230905
v 2.410197 0.071991 -0.230907
v 2.457319 0.017387 -0.230906
v 2.499226 0.001391 -0.230903
v 2.923048 0.002996 -0.230904
v 2.979438 0.041871 -0.230907
v 3.002910 0.091081 -0.230905
v 3.001447 0.522977 -0.230906
v 2.955113 0.581058 -0.230903
v 2.912513 0.598737 -0.230904
v 2.515837 0.112686 -0.230904
v 2.515316 0.485503 -0.230904
v 2.888926 0.490409 -0.230904
v 2.889858 0.110132 -0.230904
v 3.662904 0.599666 -0.230904
v 3.155967 0.598097 -0.230904
v 3.112272 0.579529 -0.230904
v 3.076600 0.540772 -0.230906
v 3.063159 0.500451 -0.230903
v 3.065014 0.292850 -0.230901
v 3.100496 0.233588 -0.230906
v 3.156998 0.207449 -0.230903
v 3.552812 0.206005 -0.230904
v 3.552812 -0.000000 -0.230904
v 3.662904 -0.000000 -0.230904
v 3.173694 0.486291 -0.230904
v 3.551799 0.487588 -0.230904
v 3.552812 0.321935 -0.230904
v 3.173370 0.321002 -0.230904
vn 0.0347 0.5601 0.8277
vn 0.0004 0.4960 0.8683
vn -0.0000 -0.0001 1.0000
vn -0.0000 -0.0000 1.0000
vn -0.6114 -0.5417 0.5769
vn -0.0046 -0.7082 0.7060
vn 0.0015 -0.5099 0.8602
vn 0.0016 -0.4995 0.8663
vn 0.0005 0.5164 0.8564
vn 0.0001 0.5109 0.8596
vn -0.0000 -0.0003 1.0000
vn 0.1323 0.7237 0.6773
vn 0.0001 0.5036 0.8639
vn -0.0000 -0.0000 -1.0000
vn -0.0001 -0.5075 0.8616
vn 0.1982 -0.7290 0.6552
vn 0.2208 0.7277 0.6494
vn 0.0019 0.4980 0.8672
vn -0.0000 0.0001 1.0000
vn -0.0001 -0.0000 1.0000
vn -0.0007 -0.5239 0.8518
vn 0.1270 -0.7272 0.6746
vn -0.0004 0.5159 0.8566
vn -0.0014 0.5236 0.8520
vn -0.0003 -0.0000 1.0000
vn -0.0060 -0.5561 0.8311
vn -0.0019 -0.4995 0.8663
vn 0.1542 0.7239 0.6724
vn -0.1814 0.7141 0.6761
vn 0.0612 -0.5850 0.8087
vn 0.0034 -0.5088 0.8609
vn -0.0019 -0.3166 0.9486
vn -0.0035 -0.5135 0.8581
vn 0.1749 0.7315 -0.6590
vn 0.0028 0.4966 -0.8680
vn -0.0000 0.0001 -1.0000
vn -0.6115 -0.5430 -0.5755
vn 0.0001 0.0003 -1.0000
vn -0.0045 -0.7085 -0.7057
vn 0.0009 -0.5121 -0.8589
vn -0.0009 -0.5018 -0.8650
vn 0.0006 0.5013 -0.8653
vn 0.0007 0.5102 -0.8601
vn 0.0411 0.5349 -0.8439
vn -0.0001 0.5077 -0.8615
vn -0.0014 -0.7275 -0.6861
vn -0.0000 -0.0003 -1.0000
vn -0.0003 -0.0000 -1.0000
vn -0.0014 -0.7075 -0.7068
vn 0.0481 -0.5726 -0.8184
vn 0.0006 -0.5122 -0.8589
vn 0.0592 0.5899 -0.8053
vn 0.0004 0.5162 -0.8565
vn -0.0000 -0.0001 -1.0000
vn 0.2837 -0.7093 -0.6453
vn -0.0026 -0.5203 -0.8540
vn 0.9999 -0.0069 0.0084
vn 0.9999 -0.0068 0.0085
vn -0.0001 0.5198 -0.8543
vn 0.0004 0.5163 -0.8564
vn -0.0000 0.0004 -1.0000
vn 0.0004 -0.0661 -0.9978
vn -0.0000 0.0003 -1.0000
vn -0.0023 -0.5059 -0.8626
vn -0.1587 -0.7240 -0.6713
vn 0.1466 0.7199 -0.6784
vn -0.1923 0.7221 -0.6645
vn 0.2252 -0.7276 -0.6479
vn 0.0014 -0.4996 -0.8662
vn 0.0003 -0.0000 -1.0000
vn -0.0023 -0.3497 -0.9369
vn -0.0043 -0.5189 -0.8548
vn 0.5184 0.8551 0.0048
vn 0.5179 0.8554 0.0078
vn 0.5184 0.8551 0.0047
vn -0.4746 0.8788 0.0506
vn -0.4815 0.8754 0.0423
vn -0.6414 0.7661 0.0398
vn -0.8748 -0.4844 -0.0039
vn -0.8748 -0.4844 -0.0025
vn -0.8479 -0.5301 -0.0101
vn -0.8478 -0.5302 -0.0123
vn -0.8481 -0.5298 -0.0071
vn 0.5594 0.8288 0.0070
vn 0.6512 0.7587 -0.0159
vn 0.6510 0.7590 -0.0158
vn 0.6516 0.7584 -0.0160
vn -0.7422 0.6702 -0.0099
vn -0.7422 0.6701 -0.0089
vn -0.7422 0.6701 -0.0098
vn -0.8039 0.5947 0.0054
vn -0.8042 0.5944 0.0029
vn -0.8042 0.5944 0.0026
vn 0.8358 0.5490 -0.0031
vn 0.8359 0.5489 -0.0038
vn 0.8361 0.5484 -0.0104
vn -0.7815 0.6239 -0.0038
vn 0.9613 0.2743 -0.0239
vn 0.9708 0.2400 -0.0065
vn 0.8372 0.5469 0.0022
vn -0.5654 -0.8234 0.0480
vn -0.4204 -0.9072 -0.0139
vn -0.3566 -0.9340 -0.0193
vn -0.9717 0.2355 0.0182
vn -0.8286 0.5599 -0.0010
vn -0.9409 0.3367 -0.0374
vn 0.9135 0.4066 -0.0117
vn 0.9643 0.2645 -0.0117
vn 0.8919 0.4521 0.0135
vn 0.9698 0.2436 -0.0123
vn 0.9959 0.0904 -0.0000
vn 0.2380 0.9712 0.0123
vn -0.4287 0.9034 -0.0043
vn -0.4291 0.9032 -0.0119
vn -0.4289 0.9033 -0.0057
vn -0.5759 0.8175 0.0077
vn -0.5760 0.8174 0.0118
vn -0.5759 0.8175 0.0078
vn -0.9738 -0.2274 0.0028
vn -0.9737 -0.2278 -0.0025
vn -0.9738 -0.2275 0.0022
vn 0.5854 0.8108 -0.0044
vn 0.5854 0.8108 -0.0043
vn 0.5855 0.8107 -0.0072
vn 0.9348 -0.3546 -0.0217
vn 0.9348 -0.3546 -0.0213
vn 0.9348 -0.3547 -0.0207
vn 0.7514 0.6598 0.0117
vn 0.7512 0.6601 0.0068
vn 0.7512 0.6600 0.0072
vn -0.7627 0.6467 -0.0091
vn -0.7630 0.6463 -0.0127
vn -0.7627 0.6467 -0.0094
vn 0.9683 0.2498 0.0040
vn 0.9116 0.4109 -0.0091
vn 0.7904 0.6125 -0.0094
vn -0.8035 0.5953 0.0061
vn -0.8038 0.5949 0.0026
vn -0.8039 0.5947 0.0017
vn 0.7120 -0.7021 -0.0094
vn 0.5878 -0.8088 -0.0168
vn 0.7635 -0.6453 0.0233
vn 0.5458 -0.8377 -0.0189
vn 0.2870 -0.9579 0.0098
vn 0.2871 -0.9579 0.0086
vn 0.9794 -0.2008 -0.0199
vn 0.9614 -0.2751 0.0040
vn 0.9997 -0.0066 -0.0248
vn -0.7177 -0.6953 0.0388
vn -0.8974 -0.4409 0.0193
vn -0.7782 -0.6274 -0.0280
vn 0.7012 -0.7129 0.0092
vn 0.8674 -0.4975 -0.0073
vn 0.9023 -0.4310 -0.0062
vn -0.7049 -0.7081 -0.0420
vn 0.6579 -0.7531 0.0080
vn 0.9476 -0.3191 -0.0150
vn 0.9477 -0.3189 -0.0150
vn 0.9475 -0.3193 -0.0150
vn -0.9836 -0.1781 -0.0302
vn -0.9403 -0.3395 -0.0247
vn -0.8038 -0.5949 -0.0031
vn 0.5668 -0.8238 -0.0081
vn 0.9333 -0.3590 0.0069
vn 0.9333 -0.3591 0.0065
vn 0.9333 -0.3590 0.0080
vn -0.9957 0.0926 -0.0038
vn -0.9957 0.0901 -0.0237
vn -1.0000 -0.0000 0.0058
vn -0.5180 -0.8552 0.0156
vn 0.6966 -0.7175 0.0048
vn 0.8492 -0.5267 -0.0386
vn 0.8691 -0.4945 -0.0094
vn -0.9381 -0.3458 0.0189
vn -0.8254 -0.5638 -0.0293
vn -0.8240 -0.5664 -0.0118
vn -0.2920 -0.9564 -0.0059
vn -0.2921 -0.9564 -0.0036
vn -0.2921 -0.9564 -0.0040
vn 0.7603 -0.6494 0.0143
vn 0.7610 -0.6486 0.0143
vn 0.7607 -0.6490 0.0143
vn 0.3470 -0.9370 0.0396
vn 0.5951 -0.8035 -0.0172
vn -0.6852 -0.7283 0.0050
vn -0.6852 -0.7283 0.0054
vn -0.6852 -0.7283 0.0068
vn 0.6463 -0.7631 0.0025
vn 0.5220 -0.8529 -0.0083
vn 0.5220 -0.8529 -0.0076
vn 0.5218 -0.8530 -0.0118
vn -0.4264 -0.9045 -0.0031
vn -0.4263 -0.9046 -0.0031
vn -0.4265 -0.9045 -0.0031
vn 0.7381 0.6747 0.0051
vn 0.7378 0.6751 -0.0004
vn 0.7377 0.6751 -0.0011
vn 0.4331 -0.9013 0.0097
vn 0.4333 -0.9011 0.0141
vn 0.4330 -0.9013 0.0091
vn -0.3276 -0.9448 0.0027
vn -0.3277 -0.9448 0.0043
vn -0.3276 -0.9448 0.0036
vn -0.4755 0.8772 0.0668
vn -0.5865 0.8065 -0.0752
vn -0.7745 0.6325 -0.0063
vn 0.8007 0.5989 -0.0151
vn 0.8006 0.5990 -0.0140
vn 0.8007 0.5988 -0.0155
vn -0.8295 0.5583 0.0135
vn -0.8296 0.5582 0.0120
vn -0.8296 0.5582 0.0127
vn -0.0225 0.9995 0.0233
vn -0.2267 0.9738 0.0159
vn -0.3267 0.9450 -0.0123
vn 0.9930 -0.1181 -0.0019
vn 0.9930 -0.1178 -0.0035
vn 0.9930 -0.1180 -0.0022
vn 0.9912 0.1315 -0.0129
vn 0.9971 0.0763 -0.0061
vn 0.9160 0.4009 0.0138
vn -0.5073 0.8616 0.0162
vn -0.5076 0.8615 0.0098
vn -0.5077 0.8615 0.0096
vn -0.9803 0.1974 0.0086
vn -0.9282 0.3720 -0.0078
vn -0.9838 0.1791 0.0053
vn 0.2928 0.9561 -0.0128
vn 0.2926 0.9561 -0.0148
vn 0.2928 0.9561 -0.0130
vn -0.9066 0.4220 0.0075
vn -0.8805 0.4737 -0.0209
vn -0.7504 0.6607 0.0191
vn -0.9248 0.3804 0.0006
vn -0.9248 0.3805 -0.0004
vn -0.9247 0.3808 -0.0053
vn -0.4412 0.8974 -0.0099
vn -0.4412 0.8974 -0.0072
vn -0.4412 0.8974 -0.0065
vn -0.5558 0.8312 0.0091
vn -0.5564 0.8309 0.0057
vn -0.5564 0.8309 0.0055
vn 0.4048 0.9142 0.0171
vn 0.4045 0.9144 0.0121
vn 0.4046 0.9144 0.0122
vn -0.6891 -0.7246 -0.0043
vn -0.6889 -0.7248 -0.0067
vn -0.6891 -0.7246 -0.0045
vn 0.8257 -0.5624 -0.0432
vn 0.6170 -0.7870 -0.0031
vn 0.7569 -0.6530 -0.0262
vn -0.5800 -0.8146 0.0102
vn -0.6184 -0.7858 0.0101
vn -0.3766 -0.9263 -0.0105
vn 0.5094 -0.8605 0.0061
vn -0.8620 0.5069 -0.0034
vn -0.8622 0.5065 -0.0096
vn -0.8620 0.5069 -0.0040
vn 0.7730 0.6335 0.0329
vn 0.6315 0.7747 -0.0328
vn 0.5918 0.8058 -0.0211
vn -0.9022 0.4313 0.0079
vn -0.9023 0.4310 0.0079
vn -0.9023 0.4311 0.0079
vn -0.3152 -0.9489 -0.0113
vn 0.7778 0.6283 0.0140
vn 0.8607 0.5091 -0.0027
vn 0.8606 0.5093 -0.0045
vn 0.8607 0.5091 -0.0028
vn -0.9756 0.2192 -0.0068
vn -0.9756 0.2192 -0.0078
vn -0.9756 0.2191 -0.0121
vn 0.7366 0.6759 -0.0262
vn 0.9767 0.2147 -0.0019
vn 0.8515 0.5244 0.0014
vn 0.9874 0.1586 -0.0000
vn 0.9873 0.1586 0.0008
vn -0.3274 0.9449 -0.0019
vn -0.3276 0.9448 -0.0019
vn -0.3272 0.9449 -0.0020
vn -0.4300 0.9028 0.0073
vn -0.4306 0.9025 0.0073
vn -0.4303 0.9026 0.0073
vn -0.4172 0.9087 -0.0164
vn -1.0000 -0.0000 -0.0000
vn 1.0000 -0.0000 -0.0000
vn -0.0000 -1.0000 -0.0000
vn -0.9999 0.0163 0.0033
vn -0.5984 -0.8009 0.0206
vn -0.0000 1.0000 -0.0000
vn -1.0000 -0.0001 -0.0000
vn -0.9915 0.1304 0.0006
vn -0.9914 0.1306 0.0006
vn 0.9795 0.2014 -0.0006
vn 0.9795 0.2015 -0.0006
vn -0.9801 0.1986 0.0010
vn -0.9800 0.1989 0.0010
vn 1.0000 -0.0044 -0.0017
vn -0.8576 -0.5138 -0.0219
vn -0.9723 -0.2337 0.0063
vn -0.7446 -0.6671 -0.0218
vn 1.0000 -0.0049 0.0080
vn 1.0000 -0.0050 0.0081
vn 1.0000 -0.0001 0.0002
vn -1.0000 -0.0055 -0.0041
vn -0.9999 -0.0083 -0.0058
vn -0.9999 -0.0083 -0.0059
vn -0.6796 -0.7336 0.0032
vn -0.6806 -0.7326 0.0033
vn -0.9857 0.1680 -0.0097
vn -0.9859 0.1673 -0.0097
vn 0.9795 0.2014 0.0018
vn -0.3034 -0.9527 -0.0172
vn 0.8045 -0.5940 -0.0000
vn -0.7844 0.6203 -0.0000
vn 0.7856 0.6187 -0.0000
vn -0.8045 -0.5940 -0.0000
vn 1.0000 -0.0024 0.0039
vn 1.0000 -0.0023 0.0039
vn -0.9501 -0.3116 0.0139
vn 1.0000 -0.0001 -0.0000
vn -0.0020 -1.0000 -0.0009
vn -0.9829 -0.1843 0.0015
vn -0.9853 -0.1707 -0.0116
vn -1.0000 -0.0040 0.0009
vn 0.4245 0.9054 -0.0002
vn 0.4233 0.9060 -0.0002
vn -0.6716 -0.7406 -0.0187
vn -0.5531 -0.8331 0.0055
vn -0.0053 1.0000 0.0060
vn -0.9236 0.3834 -0.0053
vn -0.7661 0.6427 -0.0000
vn -0.7149 0.6991 -0.0111
vn -0.9335 -0.3587 -0.0003
vn -0.9334 -0.3588 -0.0002
vn 0.7654 -0.6436 -0.0000
vn 0.8721 -0.4894 0.0007
vn 0.8721 -0.4893 0.0007
vn 0.6417 0.7669 0.0059
vn 0.6431 0.7658 0.0060
vn -0.4676 0.8839 -0.0001
vn -0.4674 0.8840 -0.0005
vn -0.4676 0.8839 -0.0004
vn -0.4674 0.8840 -0.0001
vn -1.0000 -0.0037 0.0021
vn -0.8286 0.5598 0.0028
vn -0.8284 0.5601 0.0029
vn -0.8286 0.5598 0.0018
vn -0.8284 0.5601 0.0017
vn -0.9999 -0.0061 -0.0102
vn -0.9999 -0.0060 -0.0103
vn -0.9806 0.1959 -0.0014
vn -0.9807 0.1955 -0.0014
vn -0.9806 0.1959 -0.0010
vn -0.9807 0.1955 -0.0010
vn 0.9819 0.1894 0.0013
vn 0.9819 0.1892 0.0013
vn 0.9819 0.1894 0.0015
vn 0.9819 0.1892 0.0015
vn 0.4562 0.8899 -0.0082
vt 0.805859 0.000000
vt 0.891720 0.000000
vt 0.898089 0.000000
vt 0.789809 0.000000
vt 0.796178 0.000000
vt 0.910828 0.000000
vt 0.760921 0.000000
vt 0.942675 0.000000
vt 0.949045 0.000000
vt 0.745223 0.000000
vt 0.751592 0.000000
vt 0.955414 0.000000
vt 0.717293 0.000000
vt 0.987261 0.000000
vt 0.993631 0.000000
vt 0.707006 0.000000
vt 0.700637 0.000000
vt 1.000000 0.000000
vt 0.095541 0.000000
vt 0.101911 0.000000
vt 0.687898 0.000000
vt 0.694268 0.000000
vt 0.178344 0.000000
vt 0.184713 0.000000
vt 0.012739 0.000000
vt 0.019108 0.000000
vt 0.006324 0.000000
vt 0.356688 0.000000
vt 0.363057 0.000000
vt 0.369427 0.000000
vt 0.350318 0.000000
vt 0.380323 0.000000
vt 0.343949 0.000000
vt 0.677321 0.000000
vt 0.261146 0.000000
vt 0.267516 0.000000
vt 0.656051 0.000000
vt 0.407643 0.000000
vt 0.414013 0.000000
vt 0.649682 0.000000
vt 0.605096 0.000000
vt 0.452229 0.000000
vt 0.458599 0.000000
vt 0.598726 0.000000
vt 0.573248 0.000000
vt 0.583219 0.000000
vt 0.490446 0.000000
vt 0.500623 0.000000
vt 0.777778 0.000000
vt 0.888889 0.000000
vt 0.555556 0.000000
vt 0.000000 0.000000
vt 0.111111 0.000000
vt 0.222222 0.000000
vt 0.333333 0.000000
vt 0.666667 0.000000
vt 0.444444 0.000000
vt 0.602410 0.000000
vt 0.614458 0.000000
vt 0.084337 0.000000
vt 0.590361 0.000000
vt 0.096386 0.000000
vt 0.108434 0.000000
vt 0.493976 0.000000
vt 0.506024 0.000000
vt 0.192771 0.000000
vt 0.204819 0.000000
vt 0.421687 0.000000
vt 0.265060 0.000000
vt 0.277108 0.000000
vt 0.409639 0.000000
vt 0.397590 0.000000
vt 0.289157 0.000000
vt 0.843373 0.000000
vt 0.855422 0.000000
vt 0.373494 0.000000
vt 0.385542 0.000000
vt 0.674699 0.000000
vt 0.686747 0.000000
vt 0.698795 0.000000
vt 0.301205 0.000000
vt 0.313253 0.000000
vt 0.349398 0.000000
vt 0.337349 0.000000
vt 0.361446 0.000000
vt 0.325301 0.000000
vt 0.821656 0.000000
vt 0.830365 0.000000
vt 0.880209 0.000000
vt 0.793115 0.000000
vt 0.920673 0.000000
vt 0.760852 0.000000
vt 0.770701 0.000000
vt 0.929936 0.000000
vt 0.713376 0.000000
vt 0.006369 0.000000
vt 0.380972 0.000000
vt 0.681529 0.000000
vt 0.636943 0.000000
vt 0.643312 0.000000
vt 0.426752 0.000000
vt 0.464968 0.000000
vt 0.585987 0.000000
vt 0.592357 0.000000
vt 0.480769 0.000000
vt 0.615894 0.000000
vt 0.052980 0.000000
vt 0.059603 0.000000
vt 0.596026 0.000000
vt 0.602649 0.000000
vt 0.072848 0.000000
vt 0.576159 0.000000
vt 0.089371 0.000000
vt 0.099338 0.000000
vt 0.543046 0.000000
vt 0.549669 0.000000
vt 0.129318 0.000000
vt 0.523179 0.000000
vt 0.145695 0.000000
vt 0.152318 0.000000
vt 0.509934 0.000000
vt 0.516556 0.000000
vt 0.158940 0.000000
vt 0.834437 0.000000
vt 0.841060 0.000000
vt 0.496689 0.000000
vt 0.503311 0.000000
vt 0.920530 0.000000
vt 0.927152 0.000000
vt 0.748344 0.000000
vt 0.754967 0.000000
vt 0.165563 0.000000
vt 0.177611 0.000000
vt 0.490066 0.000000
vt 0.662252 0.000000
vt 0.668874 0.000000
vt 0.463576 0.000000
vt 0.205298 0.000000
vt 0.215782 0.000000
vt 0.417219 0.000000
vt 0.423841 0.000000
vt 0.247282 0.000000
vt 0.400524 0.000000
vt 0.271523 0.000000
vt 0.281997 0.000000
vt 0.364238 0.000000
vt 0.370861 0.000000
vt 0.304636 0.000000
vt 0.917197 0.000000
vt 0.777070 0.000000
vt 0.783440 0.000000
vt 0.923567 0.000000
vt 0.736459 0.000000
vt 0.961783 0.000000
vt 0.968153 0.000000
vt 0.995047 0.000000
vt 0.375796 0.000000
vt 0.382166 0.000000
vt 0.664489 0.000000
vt 0.394904 0.000000
vt 0.401274 0.000000
vt 0.611465 0.000000
vt 0.617834 0.000000
vt 0.560510 0.000000
vt 0.566879 0.000000
vt 0.499701 0.000000
vt 0.625000 0.000000
vt 0.750000 0.000000
vt 0.875000 0.000000
vt 0.125000 0.000000
vt 0.250000 0.000000
vt 0.500000 0.000000
vt 0.375000 0.000000
vt 0.200000 0.000000
vt 0.400000 0.000000
vt 0.600000 0.000000
vt 0.800000 0.000000
vt 0.629139 0.000000
vt 0.039735 0.000000
vt 0.046358 0.000000
vt 0.613342 0.000000
vt 0.622517 0.000000
vt 0.582781 0.000000
vt 0.079586 0.000000
vt 0.559644 0.000000
vt 0.105960 0.000000
vt 0.112583 0.000000
vt 0.536424 0.000000
vt 0.129375 0.000000
vt 0.508730 0.000000
vt 0.172185 0.000000
vt 0.486664 0.000000
vt 0.178808 0.000000
vt 0.470199 0.000000
vt 0.456954 0.000000
vt 0.211921 0.000000
vt 0.218543 0.000000
vt 0.410596 0.000000
vt 0.248580 0.000000
vt 0.386881 0.000000
vt 0.278146 0.000000
vt 0.284768 0.000000
vt 0.509434 0.000000
vt 0.745283 0.000000
vt 0.679245 0.000000
vt 0.009434 0.000000
vt 0.669811 0.000000
vt 0.079573 0.000000
vt 0.094340 0.000000
vt 0.660377 0.000000
vt 0.169811 0.000000
vt 0.179245 0.000000
vt 0.650943 0.000000
vt 0.226415 0.000000
vt 0.641509 0.000000
vt 0.764151 0.000000
vt 0.773585 0.000000
vt 0.518868 0.000000
vt 0.528302 0.000000
vt 0.235849 0.000000
vt 0.245283 0.000000
vt 0.886792 0.000000
vt 0.490566 0.000000
vt 0.896226 0.000000
vt 0.254717 0.000000
vt 0.320755 0.000000
vt 0.334644 0.000000
vt 0.377358 0.000000
vt 0.391872 0.000000
vt 0.885350 0.000000
vt 0.878981 0.000000
vt 0.802548 0.000000
vt 0.812823 0.000000
vt 0.764331 0.000000
vt 0.936306 0.000000
vt 0.748264 0.000000
vt 0.757962 0.000000
vt 0.683557 0.000000
vt 0.006216 0.000000
vt 0.626222 0.000000
vt 0.433121 0.000000
vt 0.439490 0.000000
vt 0.588547 0.000000
vt 0.468475 0.000000
vt 0.579618 0.000000
vt 0.484076 0.000000
vt 0.583974 0.000000
vt 0.533670 0.000000
vt 0.138405 0.000000
vt 0.554217 0.000000
vt 0.481928 0.000000
vt 0.256965 0.000000
vt 0.808917 0.000000
vt 0.901886 0.000000
vt 0.753235 0.000000
vt 0.006309 0.000000
vt 0.380215 0.000000
vt 0.675159 0.000000
vt 0.388535 0.000000
vt 0.423438 0.000000
vt 0.646690 0.000000
vt 0.566893 0.000000
vt 0.503185 0.000000
vt 0.496815 0.000000
vt 0.626258 0.000000
vt 0.589404 0.000000
vt 0.079470 0.000000
vt 0.559271 0.000000
vt 0.176777 0.000000
vt 0.210154 0.000000
vt 0.251656 0.000000
vt 0.245033 0.000000
vt 0.400093 0.000000
vt 0.258278 0.000000
vt 0.266872 0.000000
vt 0.683066 0.000000
vt 0.815287 0.000000
vt 0.881930 0.000000
vt 0.904459 0.000000
vt 0.920463 0.000000
vt 0.786960 0.000000
vt 0.744270 0.000000
vt 0.398865 0.000000
vt 0.662420 0.000000
vt 0.477707 0.000000
vt 0.569219 0.000000
vt 0.103152 0.000000
vt 0.092715 0.000000
vt 0.569536 0.000000
vt 0.541770 0.000000
vt 0.132450 0.000000
vt 0.125828 0.000000
vt 0.507892 0.000000
vt 0.485172 0.000000
vt 0.450331 0.000000
vt 0.221093 0.000000
vt 0.397351 0.000000
vt 0.267597 0.000000
vt 0.403974 0.000000
vt 0.365241 0.000000
vt 0.298013 0.000000
vt 0.066038 0.000000
vt 0.056604 0.000000
vt 0.132075 0.000000
vt 0.122642 0.000000
vt 0.188679 0.000000
vt 0.229004 0.000000
vt 0.311321 0.000000
vt 0.433962 0.000000
vt 0.424528 0.000000
vt 0.055694 0.000000
vt 0.330189 0.000000
vt 0.547648 0.000000
vt 0.829173 0.000000
vt 0.953222 0.000000
vt 0.614113 0.000000
vt 0.634212 0.000000
vt 0.374262 0.000000
vt 0.670945 0.000000
vt 0.147185 0.000000
vt 0.894116 0.000000
vt 0.550297 0.000000
vt 0.971358 0.000000
vt 0.036522 0.000000
vt 0.382130 0.000000
vt 0.481132 0.000000
vt 0.465279 0.000000
vt 0.471698 0.000000
vt 0.853503 0.000000
vt 0.847134 0.000000
vt 0.528662 0.000000
vt 0.540360 0.000000
vt 0.535032 0.000000
vt 0.006623 0.000000
vt 0.407785 0.000000
vt 0.337748 0.000000
vt 0.331126 0.000000
vt 0.127791 0.000000
vt 0.012048 0.000000
vt 0.447293 0.000000
vt 0.539508 0.000000
vt 0.842767 0.000000
vt 0.011703 0.000000
s 1
usemtl Material.001
f 22/1/1 23/2/2 24/3/3
f 21/4/4 22/5/1 24/6/3
f 21/7/4 24/8/3 25/9/4
f 20/10/4 21/11/4 25/12/4
f 20/13/4 25/14/4 1/15/5
f 19/16/4 20/13/4 1/15/5
f 19/17/4 1/18/5 3/19/3
f 4/20/4 19/17/4 3/19/3
f 18/21/4 19/22/4 4/23/4
f 18/21/4 4/23/4 5/24/4
f 2/25/6 3/26/3 1/27/5
f 8/28/4 9/29/4 10/30/4
f 8/28/4 10/30/4 7/31/4
f 7/31/4 10/30/4 11/32/4
f 6/33/4 7/31/4 11/32/4
f 18/34/4 5/35/4 6/36/4
f 18/34/4 6/36/4 11/32/4
f 18/37/4 11/38/4 12/39/4
f 17/40/4 18/37/4 12/39/4
f 17/41/4 12/42/4 13/43/4
f 16/44/4 17/41/4 13/43/4
f 15/45/7 16/46/4 13/47/4
f 15/45/7 13/47/4 14/48/8
f 33/49/4 34/50/4 35/18/4
f 33/49/4 35/18/4 31/51/4
f 31/51/4 35/18/4 26/52/4
f 26/52/4 27/53/4 28/54/4
f 26/52/4 28/54/4 29/55/4
f 33/49/4 31/51/4 32/56/4
f 30/57/4 31/51/4 26/52/4
f 30/57/4 26/52/4 29/55/4
f 49/58/4 36/59/9 37/60/10
f 49/61/4 37/62/10 38/63/4
f 48/64/4 49/65/4 38/66/4
f 48/64/4 38/66/4 39/67/4
f 48/68/4 39/69/4 40/70/4
f 47/71/4 48/68/4 40/70/4
f 47/72/4 40/73/4 52/74/11
f 53/75/4 47/72/4 52/74/11
f 46/76/4 47/77/4 53/18/4
f 46/76/4 53/18/4 50/78/4
f 51/79/4 52/80/11 40/81/4
f 51/79/4 40/81/4 41/82/4
f 46/76/4 50/78/4 44/83/4
f 44/83/4 50/78/4 51/79/4
f 44/83/4 51/79/4 43/84/4
f 43/84/4 51/79/4 41/82/4
f 46/76/4 44/83/4 45/85/4
f 42/86/4 43/84/4 41/82/4
f 73/87/4 74/88/12 75/89/13
f 73/90/4 75/6/13 76/91/4
f 72/92/4 73/93/4 76/94/4
f 72/92/4 76/8/4 77/9/4
f 72/95/4 77/14/4 54/15/4
f 71/16/4 72/95/4 54/15/4
f 71/17/4 54/18/4 57/19/14
f 58/20/4 71/17/4 57/19/14
f 70/21/4 71/22/4 58/23/4
f 70/21/4 58/23/4 59/24/4
f 56/25/4 57/26/14 54/52/4
f 56/25/4 54/52/4 55/96/4
f 62/28/4 63/29/4 64/30/4
f 62/28/4 64/30/4 61/31/4
f 61/31/4 64/30/4 65/97/4
f 60/33/4 61/31/4 65/97/4
f 70/98/4 59/35/4 60/36/4
f 70/98/4 60/36/4 65/97/4
f 70/37/4 65/38/4 66/39/4
f 69/99/4 70/100/4 66/101/4
f 69/44/4 66/43/4 67/102/15
f 68/103/16 69/104/4 67/105/15
f 85/49/4 86/50/4 87/18/4
f 85/49/4 87/18/4 83/51/4
f 83/51/4 87/18/4 78/52/4
f 78/52/4 79/53/4 80/54/4
f 78/52/4 80/54/4 81/55/4
f 85/49/4 83/51/4 84/56/4
f 82/57/4 83/51/4 78/52/4
f 82/57/4 78/52/4 81/55/4
f 101/106/17 88/107/18 89/108/3
f 100/109/4 101/110/17 89/111/3
f 100/112/4 89/113/3 90/114/19
f 99/115/4 100/116/4 90/117/19
f 99/118/4 90/119/19 91/120/19
f 98/121/4 99/122/4 91/123/19
f 98/121/4 91/123/19 104/124/4
f 105/125/20 98/121/4 104/124/4
f 97/126/4 98/127/4 105/128/20
f 97/126/4 105/128/20 102/129/4
f 103/130/4 104/131/4 91/132/19
f 103/130/4 91/132/19 92/133/4
f 97/134/4 102/135/4 103/136/4
f 97/134/4 103/136/4 92/133/4
f 97/137/4 92/138/4 93/139/4
f 96/140/4 97/141/4 93/142/4
f 96/143/4 93/144/4 94/145/21
f 95/146/22 96/147/4 94/148/21
f 124/4/23 125/6/24 126/149/4
f 123/150/4 124/151/23 126/152/4
f 123/153/4 126/154/4 127/155/4
f 122/17/4 123/16/4 127/156/4
f 122/17/4 127/156/4 108/19/4
f 109/20/25 122/17/4 108/19/4
f 121/21/4 122/22/4 109/23/25
f 121/21/4 109/23/25 110/24/4
f 107/25/4 108/26/4 127/52/4
f 107/25/4 127/52/4 106/96/4
f 113/28/4 114/29/4 115/30/4
f 113/28/4 115/30/4 112/31/4
f 112/31/4 115/30/4 116/157/4
f 111/33/4 112/31/4 116/157/4
f 121/98/4 110/35/4 111/36/4
f 121/98/4 111/36/4 116/158/4
f 121/159/4 116/160/4 117/161/4
f 120/162/4 121/163/4 117/42/4
f 120/41/4 117/42/4 118/43/26
f 119/164/27 120/165/4 118/166/26
f 133/167/4 134/168/4 135/169/4
f 133/167/4 135/169/4 136/18/4
f 136/18/4 128/52/4 129/170/4
f 136/18/4 129/170/4 130/171/4
f 133/167/4 136/18/4 130/171/4
f 132/172/4 133/167/4 130/171/4
f 132/172/4 130/171/4 131/173/4
f 137/52/4 138/174/4 139/175/4
f 137/52/4 139/175/4 140/176/4
f 137/52/4 140/176/4 141/177/4
f 137/52/4 141/177/4 142/18/4
f 156/178/28 143/179/29 144/180/4
f 155/181/3 156/182/28 144/107/4
f 154/112/4 155/183/3 144/184/4
f 154/185/4 144/186/4 145/187/4
f 153/188/4 154/115/4 145/189/4
f 153/118/4 145/119/4 146/120/4
f 153/190/4 146/123/4 159/124/11
f 160/125/4 153/190/4 159/124/11
f 152/126/4 153/190/4 160/128/4
f 152/126/4 160/128/4 157/129/4
f 158/130/4 159/131/11 146/132/4
f 158/130/4 146/132/4 147/191/4
f 152/192/4 157/135/4 158/136/4
f 152/192/4 158/136/4 147/193/4
f 151/137/4 152/194/4 147/138/4
f 151/195/4 147/196/4 148/197/4
f 150/198/30 151/140/4 148/199/4
f 150/200/30 148/201/4 149/202/31
f 170/203/4 161/52/4 172/204/4
f 172/205/4 161/52/4 162/206/4
f 172/207/4 162/208/4 163/209/4
f 172/210/4 163/211/4 164/212/4
f 172/213/4 164/214/4 171/215/4
f 170/203/4 172/216/4 173/217/4
f 174/218/4 171/219/4 164/220/4
f 174/218/4 164/220/4 165/221/4
f 170/203/4 173/222/4 168/223/32
f 168/223/32 173/222/4 174/224/4
f 168/223/32 174/224/4 165/225/4
f 168/223/32 165/226/4 166/227/4
f 168/223/32 166/228/4 167/229/33
f 170/203/4 168/223/32 169/172/4
f 194/87/34 196/230/14 195/231/35
f 193/232/14 196/3/14 194/233/34
f 193/234/14 197/8/36 196/235/14
f 192/236/14 197/9/36 193/237/14
f 192/95/14 175/15/37 197/14/36
f 191/16/14 175/15/37 192/95/14
f 191/17/14 177/19/38 175/18/37
f 178/20/14 177/19/38 191/17/14
f 190/238/14 178/23/14 191/22/14
f 190/238/14 179/24/14 178/23/14
f 176/25/39 175/239/37 177/26/38
f 182/28/14 184/30/14 183/29/14
f 182/28/14 181/31/14 184/30/14
f 181/31/14 185/157/14 184/30/14
f 180/33/14 185/157/14 181/31/14
f 190/238/14 180/36/14 179/35/14
f 190/238/14 185/158/14 180/36/14
f 189/240/14 185/241/14 190/99/14
f 189/240/14 186/242/14 185/241/14
f 188/243/40 186/244/14 189/44/14
f 188/245/40 187/47/41 186/246/14
f 205/49/14 207/18/14 206/50/14
f 205/49/14 203/51/14 207/18/14
f 203/51/14 198/52/14 207/18/14
f 198/52/14 200/54/14 199/53/14
f 198/52/14 201/55/14 200/54/14
f 205/49/14 204/56/14 203/51/14
f 202/57/14 198/52/14 203/51/14
f 202/57/14 201/55/14 198/52/14
f 221/247/42 209/63/14 208/62/43
f 220/248/36 209/249/14 221/250/42
f 220/64/36 210/67/14 209/66/14
f 219/251/14 210/67/14 220/64/36
f 219/68/14 211/70/14 210/252/14
f 218/71/14 211/70/14 219/68/14
f 218/72/14 224/74/14 211/73/14
f 225/75/14 224/74/14 218/72/14
f 217/76/14 225/18/14 218/77/14
f 217/76/14 222/78/14 225/18/14
f 223/79/14 211/81/14 224/80/14
f 223/79/14 212/82/14 211/81/14
f 217/76/14 215/83/14 222/78/14
f 215/83/14 223/79/14 222/78/14
f 215/83/14 214/84/14 223/79/14
f 214/84/14 212/82/14 223/79/14
f 217/76/14 216/85/14 215/83/14
f 213/86/14 212/82/14 214/84/14
f 247/253/44 249/254/14 248/2/45
f 246/150/14 249/152/14 247/151/44
f 246/234/14 250/235/14 249/94/14
f 245/255/14 250/8/14 246/234/14
f 245/95/14 226/15/46 250/14/14
f 244/16/14 226/15/46 245/95/14
f 244/17/14 228/19/14 226/18/46
f 229/20/47 228/19/14 244/17/14
f 243/21/14 229/23/47 244/22/14
f 243/21/14 230/24/48 229/23/47
f 227/25/49 226/256/46 228/26/14
f 233/28/14 235/30/14 234/29/14
f 233/28/14 232/31/14 235/30/14
f 232/31/14 236/257/14 235/30/14
f 231/33/14 236/257/14 232/31/14
f 243/98/14 231/36/14 230/35/48
f 243/98/14 236/257/14 231/36/14
f 242/258/14 236/259/14 243/98/14
f 242/37/14 237/39/14 236/38/14
f 241/99/14 237/260/14 242/261/14
f 241/41/14 238/43/36 237/42/14
f 240/44/50 238/43/36 241/41/14
f 240/262/50 239/263/51 238/264/36
f 258/49/14 260/18/14 259/50/14
f 258/49/14 256/51/14 260/18/14
f 256/51/14 251/52/14 260/18/14
f 251/52/14 253/54/14 252/53/14
f 251/52/14 254/55/14 253/54/14
f 258/49/14 257/56/14 256/51/14
f 255/57/14 251/52/14 256/51/14
f 255/57/14 254/55/14 251/52/14
f 273/265/52 262/180/14 261/179/53
f 272/266/14 262/267/14 273/109/52
f 272/268/14 263/187/54 262/186/14
f 272/118/14 264/120/14 263/119/54
f 271/122/14 264/120/14 272/118/14
f 271/121/14 275/124/14 264/123/14
f 276/125/47 275/124/14 271/121/14
f 270/126/14 276/128/47 271/127/14
f 270/126/14 277/129/14 276/128/47
f 274/130/14 264/132/14 275/131/14
f 274/130/14 265/269/14 264/132/14
f 270/134/14 274/136/14 277/135/14
f 270/134/14 265/269/14 274/136/14
f 269/137/14 265/270/14 270/194/14
f 269/141/14 266/271/54 265/272/14
f 268/273/55 266/274/54 269/198/14
f 268/273/55 267/201/56 266/275/54
f 295/276/57 296/22/57 122/22/57 121/21/58
f 298/277/14 300/278/59 299/87/60
f 298/232/14 301/279/14 300/3/59
f 297/150/14 301/280/14 298/281/14
f 297/282/14 302/12/14 301/9/14
f 297/95/14 278/15/61 302/14/14
f 296/16/14 278/15/61 297/95/14
f 296/17/14 281/19/62 278/18/61
f 282/20/54 281/19/62 296/17/14
f 295/276/14 282/23/54 296/22/14
f 295/276/14 283/24/14 282/23/54
f 280/25/14 278/52/61 281/26/62
f 280/25/14 279/96/14 278/52/61
f 286/28/14 288/30/14 287/29/14
f 286/28/14 285/31/14 288/30/14
f 285/31/14 289/157/14 288/30/14
f 284/33/63 289/157/14 285/31/14
f 295/276/14 284/36/63 283/35/14
f 295/276/14 289/158/14 284/36/63
f 295/258/14 290/283/14 289/259/14
f 294/37/14 290/38/14 295/284/14
f 294/41/14 291/43/14 290/42/14
f 293/103/64 291/285/14 294/104/14
f 293/286/64 292/263/65 291/264/14
f 308/167/14 310/169/14 309/168/14
f 308/167/14 311/18/14 310/169/14
f 311/18/14 304/170/14 303/52/14
f 311/18/14 305/171/14 304/170/14
f 308/167/14 305/171/14 311/18/14
f 307/172/14 305/171/14 308/167/14
f 307/172/14 306/173/14 305/171/14
f 312/52/14 314/175/14 313/174/14
f 312/52/14 315/176/14 314/175/14
f 312/52/14 316/177/14 315/176/14
f 312/52/14 317/18/14 316/177/14
f 330/178/66 319/180/36 318/179/67
f 329/106/14 319/107/36 330/182/66
f 329/112/14 320/287/14 319/288/36
f 328/289/14 320/287/14 329/112/14
f 328/290/14 321/291/14 320/292/14
f 328/293/14 332/124/14 321/123/14
f 333/125/14 332/124/14 328/293/14
f 327/126/14 333/128/14 328/293/14
f 327/126/14 334/129/14 333/128/14
f 331/130/14 321/132/14 332/131/14
f 331/130/14 322/191/14 321/132/14
f 327/294/14 331/136/14 334/135/14
f 327/294/14 322/193/14 331/136/14
f 326/295/14 322/296/14 327/195/14
f 326/141/14 323/271/14 322/272/14
f 325/297/68 323/298/14 326/299/14
f 325/300/68 324/148/69 323/301/14
f 345/203/14 347/204/70 335/52/14
f 347/205/70 336/206/14 335/52/14
f 347/207/70 337/302/14 336/303/14
f 347/207/70 338/304/14 337/305/14
f 347/210/70 339/306/14 338/212/14
f 347/213/70 346/215/14 339/307/14
f 345/203/14 348/217/14 347/216/70
f 349/218/14 339/307/14 346/219/14
f 349/218/14 340/221/14 339/307/14
f 345/203/14 343/223/71 348/222/14
f 343/223/71 349/224/14 348/222/14
f 343/223/71 340/225/14 349/224/14
f 343/223/71 341/226/36 340/308/14
f 343/223/71 342/309/72 341/310/36
f 345/203/14 344/172/14 343/223/14
f 22/5/73 21/4/74 193/5/75
f 88/107/76 262/311/77 89/108/78
f 165/308/79 340/308/80 341/226/80
f 166/227/81 165/226/82 341/312/83
f 101/110/17 100/109/84 273/110/52
f 100/266/85 272/266/86 273/109/87
f 24/235/88 196/235/89 197/8/90
f 25/9/91 24/8/92 197/9/93
f 21/11/94 192/236/95 193/237/96
f 90/114/97 89/113/78 262/114/77
f 20/10/98 192/236/99 21/11/100
f 167/310/101 341/310/102 342/309/103
f 90/186/104 262/186/105 263/187/106
f 99/115/107 272/313/108 100/116/109
f 99/122/107 271/122/110 272/118/108
f 99/122/111 98/121/111 271/122/111
f 74/88/12 73/87/112 247/314/44
f 75/2/113 248/2/114 249/254/115
f 76/91/116 75/6/117 249/149/118
f 116/259/119 289/259/120 290/283/121
f 73/150/122 246/150/123 247/151/124
f 121/37/125 294/37/126 295/284/127
f 73/93/128 72/92/129 246/93/130
f 76/94/131 249/94/132 250/235/133
f 72/92/134 245/255/135 246/234/136
f 77/9/137 76/8/138 250/315/139
f 120/162/140 294/316/141 121/163/142
f 120/103/140 293/103/143 294/104/141
f 120/165/144 119/164/145 293/286/145
f 152/194/146 151/137/147 327/194/148
f 148/197/149 147/196/150 322/296/151
f 151/295/152 326/295/153 327/195/154
f 148/199/149 322/272/151 323/271/155
f 151/140/152 150/198/156 326/140/153
f 97/137/157 269/137/158 270/194/159
f 92/138/160 265/270/161 93/139/162
f 150/297/30 325/297/68 326/299/163
f 18/37/164 17/40/165 190/37/166
f 54/52/167 226/256/168 55/96/169
f 149/202/170 148/201/149 323/202/155
f 17/317/171 189/240/172 190/99/173
f 12/241/174 185/241/175 186/242/176
f 149/301/177 323/301/178 324/148/179
f 97/141/180 96/140/181 269/141/182
f 96/143/183 268/273/55 269/198/184
f 13/43/185 12/42/186 186/43/187
f 17/41/171 16/44/188 189/41/172
f 16/104/189 188/243/190 189/44/191
f 13/246/192 186/246/193 187/47/194
f 155/183/195 154/112/196 329/183/197
f 16/46/198 15/45/199 188/245/200
f 14/48/201 13/47/202 187/264/203
f 144/288/204 319/288/205 320/287/206
f 154/289/207 328/289/208 329/112/209
f 96/147/183 95/146/22 268/318/55
f 145/187/210 144/186/211 320/187/212
f 162/303/213 336/303/214 337/302/215
f 70/319/216 242/258/217 243/98/218
f 153/188/219 328/290/220 154/115/221
f 163/209/222 162/208/223 337/209/224
f 145/119/225 321/320/226 146/120/227
f 124/277/228 298/277/229 299/87/230
f 164/212/231 163/211/232 338/212/233
f 164/212/234 338/212/235 339/306/236
f 125/321/237 300/3/238 301/279/239
f 126/149/240 125/6/241 301/280/242
f 36/59/243 49/58/244 221/59/245
f 66/42/246 237/42/247 238/43/248
f 69/44/249 240/44/250 241/41/251
f 67/102/252 66/43/253 238/102/254
f 69/104/255 68/103/16 240/104/50
f 126/9/256 301/9/257 302/12/258
f 49/322/259 220/248/260 221/250/261
f 127/155/262 126/154/263 302/323/264
f 67/264/252 238/264/254 239/263/265
f 49/65/259 48/64/266 220/65/260
f 48/251/267 219/251/268 220/64/269
f 127/14/270 302/14/271 278/15/272
f 123/16/273 296/16/274 297/95/275
f 123/16/276 122/17/276 296/16/277
f 23/231/278 195/231/279 196/230/280
f 24/3/281 23/2/282 196/3/283
f 88/324/76 261/179/284 262/180/77
f 282/23/285 283/24/285 110/24/285 109/23/285
f 281/26/286 108/26/286 107/25/286 280/25/286
f 280/25/287 107/25/287 106/96/287 279/96/287
f 278/52/288 279/96/288 106/96/288 127/52/288
f 287/29/286 114/29/286 113/28/286 286/28/286
f 167/229/101 166/228/289 341/325/102
f 288/30/290 115/30/290 114/29/290 287/29/290
f 286/28/287 113/28/287 112/31/287 285/31/287
f 289/157/285 116/157/285 115/30/285 288/30/285
f 285/31/286 112/31/286 111/33/286 284/33/286
f 218/77/286 47/77/286 46/76/286 217/76/286
f 222/78/291 50/78/291 53/18/291 225/18/291
f 224/80/286 52/80/286 51/79/286 223/79/286
f 212/82/285 41/82/285 40/81/285 211/81/285
f 345/203/287 170/203/287 169/172/287 344/172/287
f 344/172/285 169/172/285 168/223/285 343/223/285
f 343/326/71 168/326/32 167/327/33 342/328/72
f 223/79/290 51/79/290 50/78/290 222/78/290
f 215/83/287 44/83/287 43/84/287 214/84/287
f 217/76/287 46/76/287 45/85/287 216/85/287
f 216/85/285 45/85/285 44/83/285 215/83/285
f 214/84/286 43/84/286 42/86/286 213/86/286
f 175/15/37 1/15/5 25/14/292 197/14/293
f 212/82/287 213/86/287 42/86/287 41/82/287
f 192/95/99 20/13/98 19/16/294 191/16/295
f 248/329/45 75/329/13 74/330/12 247/330/44
f 264/120/296 91/120/297 90/119/104 263/119/106
f 178/20/287 4/20/287 3/19/287 177/19/287
f 275/124/287 276/125/287 105/125/287 104/124/287
f 283/35/290 284/36/290 111/36/290 110/35/290
f 190/238/298 191/22/298 19/22/298 18/21/298
f 117/161/299 116/160/300 290/283/301
f 178/23/285 179/24/285 5/24/285 4/23/285
f 177/26/286 3/26/286 2/25/286 176/25/286
f 176/25/39 2/25/6 1/27/5 175/239/37
f 271/127/302 98/127/302 97/126/302 270/126/303
f 183/29/286 9/29/286 8/28/286 182/28/286
f 276/128/285 277/129/285 102/129/285 105/128/285
f 184/30/290 10/30/290 9/29/290 183/29/290
f 274/130/304 275/131/304 104/131/304 103/130/304
f 182/28/287 8/28/287 7/31/287 181/31/287
f 265/269/161 92/133/160 91/132/305 264/132/305
f 184/30/306 185/157/307 11/32/306 10/30/307
f 181/31/286 7/31/286 6/33/286 180/33/286
f 291/43/308 118/43/309 117/42/299 290/42/301
f 250/14/310 226/15/168 54/15/167 77/14/311
f 245/95/135 72/95/134 71/16/312 244/16/312
f 334/135/290 331/136/290 158/136/290 157/135/290
f 229/20/287 58/20/287 57/19/287 228/19/287
f 292/331/65 293/332/64 119/333/27 118/331/26
f 118/166/26 291/264/313 292/263/65
f 309/168/314 134/168/314 133/167/314 308/167/314
f 310/169/290 135/169/290 134/168/290 309/168/290
f 274/136/290 103/136/290 102/135/290 277/135/290
f 311/18/315 136/18/315 135/169/315 310/169/315
f 303/52/316 128/52/316 136/18/316 311/18/316
f 180/36/290 6/36/290 5/35/290 179/35/290
f 304/170/290 129/170/290 128/52/290 303/52/290
f 305/171/317 130/171/317 129/170/317 304/170/317
f 308/167/286 133/167/286 132/172/286 307/172/286
f 307/172/287 132/172/287 131/173/287 306/173/287
f 306/173/285 131/173/285 130/171/285 305/171/285
f 313/174/286 138/174/286 137/52/286 312/52/286
f 314/175/290 139/175/290 138/174/290 313/174/290
f 315/176/285 140/176/285 139/175/285 314/175/285
f 316/177/290 141/177/290 140/176/290 315/176/290
f 317/18/287 312/52/287 137/52/287 142/18/287
f 317/18/285 142/18/285 141/177/285 316/177/285
f 243/21/318 244/22/318 71/22/318 70/21/319
f 318/334/67 143/334/29 156/52/28 330/52/66
f 12/39/174 11/38/320 185/335/175
f 230/24/285 59/24/285 58/23/285 229/23/285
f 227/25/321 228/26/321 57/26/321 56/25/321
f 227/25/49 56/25/322 55/96/322 226/256/46
f 234/29/286 63/29/286 62/28/286 233/28/286
f 235/30/290 64/30/290 63/29/290 234/29/290
f 233/28/287 62/28/287 61/31/287 232/31/287
f 236/257/323 65/97/324 64/30/325 235/30/325
f 232/31/286 61/31/286 60/33/286 231/33/286
f 318/179/67 319/180/205 144/180/204 143/179/29
f 330/182/66 156/182/28 155/181/326 329/106/327
f 93/142/162 265/272/161 266/271/328
f 325/336/68 150/336/30 149/337/31 324/337/69
f 266/275/328 267/201/329 94/145/329 93/144/162
f 335/52/286 161/52/286 170/203/286 345/203/286
f 336/206/214 162/206/213 161/52/330 335/52/330
f 231/36/290 60/36/290 59/35/290 230/35/290
f 267/337/56 268/336/55 95/336/22 94/337/21
f 188/333/40 15/333/7 14/331/8 187/331/41
f 145/189/225 320/292/331 321/291/226
f 299/330/60 300/329/59 125/329/24 124/330/23
f 206/50/286 34/50/286 33/49/286 205/49/286
f 207/18/290 35/18/290 34/50/290 206/50/290
f 198/52/332 26/52/332 35/18/332 207/18/332
f 199/53/286 27/53/286 26/52/286 198/52/286
f 200/54/290 28/54/290 27/53/290 199/53/290
f 201/55/285 29/55/285 28/54/285 200/54/285
f 163/338/232 337/305/333 338/304/233
f 205/49/287 33/49/287 32/56/287 204/56/287
f 237/39/334 66/39/335 65/38/324 236/38/323
f 204/56/285 32/56/285 31/51/285 203/51/285
f 203/51/336 31/51/336 30/57/336 202/57/336
f 202/57/287 30/57/287 29/55/287 201/55/287
f 208/339/43 37/339/10 36/340/9 221/52/42
f 242/261/337 70/100/338 69/99/249 241/99/251
f 333/125/287 160/125/287 159/124/287 332/124/287
f 347/213/287 172/213/287 171/215/287 346/215/287
f 298/281/339 124/151/340 123/150/273 297/150/275
f 208/62/341 209/63/342 38/63/343 37/62/344
f 348/217/285 173/217/285 172/216/285 347/216/285
f 346/219/286 171/219/286 174/218/286 349/218/286
f 339/307/345 340/221/345 165/221/345 164/220/345
f 328/293/220 153/190/219 152/126/146 327/126/148
f 334/129/285 157/129/285 160/128/285 333/128/285
f 332/131/286 159/131/286 158/130/286 331/130/286
f 210/67/346 39/67/347 38/66/348 209/66/349
f 321/132/350 322/191/351 147/191/351 146/132/350
f 239/331/51 240/333/50 68/341/16 67/331/15
f 259/50/286 86/50/286 85/49/286 258/49/286
f 260/18/290 87/18/290 86/50/290 259/50/290
f 251/52/332 78/52/332 87/18/332 260/18/332
f 252/53/286 79/53/286 78/52/286 251/52/286
f 253/54/290 80/54/290 79/53/290 252/53/290
f 254/55/285 81/55/285 80/54/285 253/54/285
f 258/49/287 85/49/287 84/56/287 257/56/287
f 194/342/34 195/329/35 23/329/2 22/330/1
f 257/56/285 84/56/285 83/51/285 256/51/285
f 256/51/336 83/51/336 82/57/336 255/57/336
f 281/19/287 282/20/287 109/20/287 108/19/287
f 211/70/352 40/70/353 39/69/354 210/252/355
f 254/55/287 255/57/287 82/57/287 81/55/287
f 219/68/356 48/68/357 47/71/358 218/71/359
f 261/343/53 88/334/18 101/52/17 273/52/52
f 225/75/287 53/75/287 52/74/287 224/74/287
f 349/224/290 174/224/290 173/222/290 348/222/290
f 22/1/1 193/232/360 194/233/34
